<?xml version="1.0" encoding="utf-8"?>
<!-- Generator: Adobe Illustrator 23.0.6, SVG Export Plug-In . SVG Version: 6.00 Build 0)  -->
<svg version="1.1" id="Layer_1" xmlns="http://www.w3.org/2000/svg" xmlns:xlink="http://www.w3.org/1999/xlink" x="0px" y="0px"
	 viewBox="0 0 512 512" style="enable-background:new 0 0 512 512;" xml:space="preserve">
<title>open book</title>
<path d="M31.9,421h448.6c6.2-0.1,11.1-5.2,11-11.4c0-1.1-0.2-2.2-0.5-3.2l-17.8-54.8c2.2,0.1,4.1,0.1,5.7,0.2
	c6.1,0.3,11.3-4.3,11.6-10.4c0.1-1.8-0.3-3.7-1.1-5.4L467,289.5c6.3-1.6,11.3-2.7,14.9-3.4c6-1.2,9.9-6.9,8.7-12.9
	c-0.2-1.2-0.7-2.3-1.3-3.4l0,0l-94.1-164.5c-3-5.3-9.7-7.1-15-4.1c-0.6,0.4-1.3,0.8-1.8,1.3l-125,110.4c-0.4-0.1-0.8-0.1-1.3-0.1
	H106.5c-4.5,0-8.5,2.7-10.2,6.9L21.7,405.6c-1.4,3.4-1,7.3,1.1,10.4C24.8,419.1,28.2,421,31.9,421z M279.5,396
	c23.3-9.7,64-25.6,96.8-30.5c24.7-3.6,49.9-5.4,75.2-5.5l17.3,36H279.5z M468.8,333.8c-3-0.1-6.5-0.2-10.6-0.2c-0.1,0-0.2,0-0.3,0
	c-27.9-0.1-55.8,2.3-83.1,7.4c-21.6,4.1-45.7,13.4-66.8,23c23.1-16.5,48-31,74.5-43.3c21-9.6,43-17.5,65.7-23.5L468.8,333.8z
	 M263,224l115-99l85.2,145.1c-16.2,3.3-50.8,12.3-91,33.2c-52.3,27.2-90.9,61.7-109.1,79.8V224H263z M116.8,236H245v160H51
	L116.8,236z"/>
</svg>
