<?xml version="1.0" encoding="utf-8"?>
<!-- Generator: Adobe Illustrator 23.0.6, SVG Export Plug-In . SVG Version: 6.00 Build 0)  -->
<svg version="1.1" id="Layer_1" xmlns="http://www.w3.org/2000/svg" xmlns:xlink="http://www.w3.org/1999/xlink" x="0px" y="0px"
	 viewBox="0 0 414 414" style="enable-background:new 0 0 414 414;" xml:space="preserve">
<g>
	<path d="M202.5,363.1c0-21.8-17.7-39.5-39.5-39.5c-21.8,0-39.5,17.7-39.5,39.5c0,21.8,17.7,39.5,39.5,39.5
		C184.8,402.6,202.5,384.9,202.5,363.1z M137.5,363.1c0-14.1,11.4-25.5,25.5-25.5c14.1,0,25.5,11.4,25.5,25.5
		c0,14.1-11.4,25.5-25.5,25.5C148.9,388.6,137.6,377.2,137.5,363.1z"/>
	<path d="M309.2,402.6c21.8,0,39.5-17.7,39.5-39.5c0-21.8-17.7-39.5-39.5-39.5c-21.8,0-39.5,17.7-39.5,39.5
		C269.7,384.9,287.4,402.6,309.2,402.6z M309.2,337.7c14.1,0,25.5,11.4,25.5,25.5c0,14.1-11.4,25.5-25.5,25.5
		c-14.1,0-25.5-11.4-25.5-25.5C283.7,349.1,295.1,337.7,309.2,337.7z"/>
	<path d="M7,25h42.7c14.1-0.1,26,10.2,28.2,24.1l33.8,213.5c3.2,20.7,21.1,36,42,35.9h208.9c3.9,0,7-3.1,7-7c0-3.9-3.1-7-7-7H153.7
		c-14.1,0.1-26-10.2-28.2-24.1l-5.7-36.3h214c18.1,0,34.2-11.5,40.2-28.6l39.7-114.6c0.7-2.1,0.4-4.5-0.9-6.4
		c-1.3-1.8-3.4-2.9-5.7-2.9H95.6l-3.9-24.7c-3.2-20.7-21.1-36-42-35.9H7c-3.9,0-7,3.1-7,7C0,21.9,3.1,25,7,25z M397.2,85.6
		l-36.5,105.3c-4,11.5-14.8,19.2-27,19.2H117.5L97.8,85.6L397.2,85.6z"/>
</g>
</svg>
