<?xml version="1.0" encoding="utf-8"?>
<!-- Generator: Adobe Illustrator 23.0.6, SVG Export Plug-In . SVG Version: 6.00 Build 0)  -->
<svg version="1.1" id="Layer_1" xmlns="http://www.w3.org/2000/svg" xmlns:xlink="http://www.w3.org/1999/xlink" x="0px" y="0px"
	 viewBox="0 0 484.2 400.1" style="enable-background:new 0 0 484.2 400.1;" xml:space="preserve">
<title>Customer feed back</title>
<g>
	<path d="M240.1,103.9c-31.2,0-56.5,25.3-56.5,56.5v25.3c0.1,31.2,25.5,56.4,56.8,56.3c31-0.1,56.2-25.3,56.3-56.3v-25.3
		C296.6,129.2,271.3,103.9,240.1,103.9z M284.6,185.7c-0.1,24.6-20.1,44.4-44.7,44.3c-24.4-0.1-44.2-19.9-44.3-44.3v-25.3
		c0.1-24.6,20.1-44.4,44.7-44.3c24.4,0.1,44.2,19.9,44.3,44.3V185.7z"/>
	<path d="M146.3,400.1h187.6c3.3,0,6-2.7,6-6v-19.3H470c3.3,0,6-2.7,6-6v-49.8c0-29.4-22.9-53.8-52.3-55.7c-3.2-0.2-4.8,1.7-6.5,3.8
		c-12.9,15.7-36.1,18.1-51.8,5.2c-2.4-1.9-4.5-4.2-6.3-6.6c-1.2-1.6-3-2.5-5-2.4c-10.2,0.2-20.1,3.3-28.6,8.7
		c-11.1-13.5-27.3-21.8-44.7-22.8c-3.1-0.2-4.6,1.7-6.5,4c-15,18.4-42.1,21.1-60.4,6c-2.8-2.3-5.2-4.8-7.3-7.7c-1.2-1.6-3-2.5-5-2.4
		c-16.4,0.4-32,7.2-43.4,18.9c-1.3,1.3-2.5,2.7-3.6,4.1c-8-5.1-17.1-8.1-26.6-8.7c-3.2-0.2-4.8,1.7-6.5,3.8
		c-12.9,15.7-36.1,18.1-51.8,5.2c-2.4-1.9-4.5-4.2-6.3-6.6c-1.2-1.6-3-2.5-5-2.4C28.1,264.1,4,288.8,4,319.1v49.8c0,3.3,2.7,6,6,6
		h130.3v19.3C140.3,397.4,143,400.1,146.3,400.1z M351.5,275.5c17.5,20.6,48.3,23,68.9,5.6c1.9-1.7,3.8-3.5,5.4-5.4
		c21.8,2.8,38.2,21.4,38.2,43.4v43.8H339.9V312c0-10.5-2.6-20.8-7.6-30C338.1,278.3,344.7,276.1,351.5,275.5z M198.9,261.3
		c19.5,23.3,54.1,26.4,77.4,6.9c2.4-2,4.7-4.3,6.7-6.7c25.6,3.1,44.8,24.7,44.8,50.5v76.1H152.3V312
		C152.3,285.6,172.6,263.5,198.9,261.3L198.9,261.3z M16,362.8v-43.8c0-22.6,17.2-41.5,39.7-43.6c17.5,20.6,48.3,23,68.9,5.6
		c1.9-1.7,3.8-3.5,5.4-5.4c6.3,0.8,12.4,3,17.8,6.4c-5,9.2-7.6,19.5-7.6,29.9v50.9L16,362.8z"/>
	<path d="M438.1,208.5v-22.1c0-27.7-22.5-50.2-50.2-50.2c-27.7,0-50.2,22.5-50.2,50.2v22.1c0,27.7,22.5,50.2,50.2,50.2
		C415.6,258.7,438.1,236.3,438.1,208.5z M349.7,208.5v-22.1c0-21.1,17.1-38.2,38.2-38.2c21.1,0,38.2,17.1,38.2,38.2l0,0v22.1
		c0,21.1-17.1,38.2-38.2,38.2l0,0C366.8,246.7,349.7,229.6,349.7,208.5L349.7,208.5z"/>
	<path d="M142.3,208.5v-22.1c0-27.7-22.5-50.2-50.2-50.2c-27.7,0-50.2,22.5-50.2,50.2c0,0,0,0,0,0v22.1c0,27.7,22.5,50.2,50.2,50.2
		C119.8,258.7,142.3,236.3,142.3,208.5z M53.9,208.5v-22.1c0-21.1,17.1-38.2,38.2-38.2s38.2,17.1,38.2,38.2v22.1
		c0,21.1-17.1,38.2-38.2,38.2l0,0C71,246.7,53.9,229.6,53.9,208.5z"/>
	<path d="M484.2,95.6V33.1c0-12.8-10.4-23.1-23.1-23.1H304c-12.8,0-23.1,10.4-23.1,23.1v62.5c0,12.8,10.4,23.1,23.1,23.1l7,0
		c4,22.4,18.8,29.6,22.5,31.1c1.1,0.6,2.4,0.8,3.6,0.6c2.5-0.4,4.5-2.3,5.1-4.7c0.4-1.8,0.7-3.7,0.8-5.5
		c1.3-13.9,4.3-21.4,16.2-21.4h101.9C473.9,118.8,484.2,108.4,484.2,95.6z M472.2,95.6c0,6.1-5,11.1-11.1,11.1H359.2
		c-21.5,0-26.2,17.2-27.6,27.7c-3.4-3.3-7.2-8.9-8.8-17.9c-1-5.7-6-9.8-11.8-9.7h-7c-6.1,0-11.1-5-11.1-11.1V33.1
		c0-6.1,5-11.1,11.1-11.1h157.1c6.1,0,11.1,5,11.1,11.1V95.6z"/>
	<path d="M180.2,0H23.1C10.4,0,0,10.4,0,23.1v72.5c0,12.8,10.4,23.1,23.1,23.1l103,0c4,22.4,18.7,29.6,22.5,31.1
		c1.1,0.6,2.4,0.8,3.6,0.6c2.5-0.4,4.5-2.3,5.1-4.7c0.6-2.2,0.4-4.9,0.2-8.3c-0.4-5.4-0.9-12.7,2.3-16.1c1.6-1.7,4.5-2.6,8.4-2.6
		h11.9c12.8,0,23.1-10.4,23.1-23.1V23.1C203.4,10.4,193,0,180.2,0z M191.4,95.6c0,6.1-5,11.1-11.1,11.1h-11.9
		c-7.4,0-13.2,2.2-17.2,6.4c-5.2,5.6-6,13.3-5.8,19.8c-3-3.4-6-8.6-7.4-16.5c-1-5.7-6-9.8-11.8-9.7h-103c-6.1,0-11.1-5-11.1-11.1
		V23.1C12,17,17,12,23.1,12h157.1c6.1,0,11.1,5,11.1,11.1V95.6z"/>
</g>
</svg>
