<?xml version="1.0" encoding="utf-8"?>
<!-- Generator: Adobe Illustrator 23.1.1, SVG Export Plug-In . SVG Version: 6.00 Build 0)  -->
<svg version="1.1" id="Layer_1" xmlns="http://www.w3.org/2000/svg" xmlns:xlink="http://www.w3.org/1999/xlink" x="0px" y="0px"
	 viewBox="0 0 512 512" style="enable-background:new 0 0 512 512;" xml:space="preserve">
<style type="text/css">
	.st0{fill:#E30000;}
</style>
<g>
	<g>
		<path class="st0" d="M507.5,426.1L282.9,53.5c-5.7-9.4-15.9-15.2-26.9-15.2c-11,0-21.2,5.8-26.9,15.2L4.5,426.1
			c-5.8,9.7-6,21.8-0.5,31.6c5.6,9.9,16,15.9,27.3,15.9h449.3c11.3,0,21.8-6.1,27.3-15.9C513.5,447.8,513.3,435.8,507.5,426.1z
			 M256.2,167.2c12.9,0,23.8,7.3,23.8,20.2c0,39.4-4.6,95.9-4.6,135.3c0,10.3-11.2,14.6-19.2,14.6c-10.6,0-19.5-4.3-19.5-14.6
			c0-39.4-4.6-95.9-4.6-135.3C232,174.5,242.6,167.2,256.2,167.2z M256.5,411c-14.6,0-25.5-11.9-25.5-25.5
			c0-13.9,10.9-25.5,25.5-25.5c13.6,0,25.1,11.6,25.1,25.5C281.6,399.1,270.1,411,256.5,411z"/>
	</g>
</g>
</svg>
