<?xml version="1.0" encoding="utf-8"?>
<!-- Generator: Adobe Illustrator 23.1.1, SVG Export Plug-In . SVG Version: 6.00 Build 0)  -->
<svg version="1.1" id="Capa_1" xmlns="http://www.w3.org/2000/svg" xmlns:xlink="http://www.w3.org/1999/xlink" x="0px" y="0px"
	 viewBox="0 0 370.6 477.2" style="enable-background:new 0 0 370.6 477.2;" xml:space="preserve">
<style type="text/css">
	.st0{fill:#DA6D42;}
</style>
<g>
	<path class="st0" d="M3.9,248.1L229,473.2c5.3,5.3,13.8,5.3,19.1,0s5.3-13.8,0-19.1L32.6,238.6L248.1,23.1c5.3-5.3,5.3-13.8,0-19.1
		c-2.6-2.6-6.1-4-9.5-4s-6.9,1.3-9.5,4L4,229.1C-1.3,234.3-1.3,242.9,3.9,248.1z"/>
</g>
<g>
	<path class="st0" d="M122.4,248.1l225.1,225.1c5.3,5.3,13.8,5.3,19.1,0c5.3-5.3,5.3-13.8,0-19.1L151.1,238.6L366.6,23.1
		c5.3-5.3,5.3-13.8,0-19.1c-2.6-2.6-6.1-4-9.5-4s-6.9,1.3-9.5,4L122.5,229.1C117.2,234.3,117.2,242.9,122.4,248.1z"/>
</g>
</svg>
