<?xml version="1.0" encoding="utf-8"?>
<!-- Generator: Adobe Illustrator 23.1.1, SVG Export Plug-In . SVG Version: 6.00 Build 0)  -->
<svg version="1.1" id="Capa_1" xmlns="http://www.w3.org/2000/svg" xmlns:xlink="http://www.w3.org/1999/xlink" x="0px" y="0px"
	 viewBox="0 0 370.6 477.2" style="enable-background:new 0 0 370.6 477.2;" xml:space="preserve">
<style type="text/css">
	.st0{fill:#DA6D42;}
</style>
<g>
	<path class="st0" d="M366.7,248.1L141.6,473.2c-5.3,5.3-13.8,5.3-19.1,0s-5.3-13.8,0-19.1L338,238.6L122.5,23.1
		c-5.3-5.3-5.3-13.8,0-19.1c2.6-2.6,6.1-4,9.5-4s6.9,1.3,9.5,4l225.1,225.1C371.9,234.3,371.9,242.9,366.7,248.1z"/>
</g>
<g>
	<path class="st0" d="M248.2,248.1L23.1,473.2c-5.3,5.3-13.8,5.3-19.1,0c-5.3-5.3-5.3-13.8,0-19.1l215.5-215.5L4,23.1
		C-1.3,17.8-1.3,9.3,4,4c2.6-2.6,6.1-4,9.5-4s6.9,1.3,9.5,4l225.1,225.1C253.4,234.3,253.4,242.9,248.2,248.1z"/>
</g>
</svg>
