<?xml version="1.0" encoding="utf-8"?>
<!-- Generator: Adobe Illustrator 23.1.1, SVG Export Plug-In . SVG Version: 6.00 Build 0)  -->
<svg version="1.1" id="Layer_1" xmlns="http://www.w3.org/2000/svg" xmlns:xlink="http://www.w3.org/1999/xlink" x="0px" y="0px"
	 viewBox="0 0 252.5 318.2" style="enable-background:new 0 0 252.5 318.2;" xml:space="preserve">
<g>
	<g>
		<g>
			<path d="M56.6,243.5c-5.9,0-10.4,1.7-13.6,5c-3.2,3.4-4.8,8.2-4.8,14.5c0,6.1,1.7,10.8,5.1,14.1s8.2,4.9,14.4,4.9
				c3,0,5.5-0.2,7.7-0.6c2.1-0.4,4.2-1.1,6.2-2.1v-9.2c-2.2,1-4.3,1.8-6.2,2.2c-1.9,0.4-4,0.6-6.2,0.6c-2.5,0-4.4-0.6-5.9-1.8
				s-2.2-2.8-2.3-4.9h22.9v-5.7c0-5.5-1.5-9.7-4.6-12.6C66.5,245,62.2,243.5,56.6,243.5z M51.5,258.2c0.2-2,0.8-3.5,1.8-4.5
				c1-1,2.3-1.4,3.8-1.4c1.6,0,2.9,0.5,3.9,1.6c1,1.1,1.5,2.5,1.5,4.3H51.5z"/>
			<path d="M204,256.2v-0.3c2.3-0.5,4.1-1.8,5.4-3.7c1.4-1.9,2.1-4.2,2.1-6.9c0-4.1-1.6-7.1-4.7-9c-3.2-1.9-8-2.9-14.5-2.9h-16.7v0
				v48h18.7c5.6,0,10.1-1.3,13.4-3.8c3.3-2.5,4.9-5.9,4.9-10.3c0-2.9-0.7-5.3-2-7.2C209.1,258.3,206.9,257,204,256.2z M188.5,243.2
				h3.6c4.1,0,6.1,1.3,6.1,4c0,1.5-0.5,2.6-1.5,3.4c-1,0.8-2.5,1.1-4.3,1.1h-3.9L188.5,243.2L188.5,243.2z M193,271.4h-4.6v-10.1
				h4.3c2.1,0,3.6,0.4,4.7,1.3s1.6,2.1,1.6,3.7C199.1,269.7,197.1,271.4,193,271.4z"/>
			<path d="M152.5,261.5L152.5,261.5c0,3.5-0.6,5.9-1.8,7.5s-3.1,2.3-5.8,2.3c-2.5,0-4.3-0.8-5.6-2.3c-1.3-1.5-1.9-4-1.9-7.4v-28.2
				h-13v29.2c0,6.3,1.8,11.1,5.3,14.4c3.5,3.3,8.5,5,15.1,5c6.7,0,11.8-1.7,15.4-5.2c3.6-3.4,5.3-8.3,5.3-14.6v-28.9h-13V261.5z"/>
			<path d="M112.4,237.4c-3-2.6-7.6-4-13.7-4H82.2v48h13v-15.9h3.6c5.8,0,10.3-1.5,13.5-4.4c3.2-2.9,4.7-7.1,4.7-12.4
				C117,243.8,115.5,240,112.4,237.4z M102.1,253.2c-1.1,1.1-2.7,1.6-4.6,1.6h-2.4v-11h3.3c3.6,0,5.4,1.6,5.4,4.9
				C103.8,250.6,103.3,252.2,102.1,253.2z"/>
			<path d="M250.3,52.7L199.8,2.2c-1.4-1.4-3.3-2.2-5.3-2.2H7.5C3.4,0,0,3.4,0,7.5v303.2c0,4.1,3.4,7.5,7.5,7.5H245
				c4.1,0,7.5-3.4,7.5-7.5V58C252.5,56,251.7,54.1,250.3,52.7z M202,25.6l24.9,24.9H202L202,25.6L202,25.6z M15,15h172v10.3H15V15z
				 M15,303.2V40.3h172V58c0,4.1,3.4,7.5,7.5,7.5h43v237.7H15z"/>
			<path d="M132.7,182.2l44-44c5.5-5.5,5.5-14.3,0-19.8l-48.9,48.9l-39-39l39-39l14.6,14.6l-22.4,22.4l9.9,9.9l27.3-27.3
				c2.7-2.7,2.7-7.2,0-9.9l-24.5-24.5c-2.7-2.7-7.2-2.7-9.9,0l-48.9,48.9c-2.7,2.7-2.7,7.2,0,9.9l48.9,48.9
				C125.5,185,129.9,185,132.7,182.2z"/>
		</g>
	</g>
</g>
</svg>
