<?xml version="1.0" encoding="utf-8"?>
<!-- Generator: Adobe Illustrator 23.0.6, SVG Export Plug-In . SVG Version: 6.00 Build 0)  -->
<svg version="1.1" id="Layer_1" xmlns="http://www.w3.org/2000/svg" xmlns:xlink="http://www.w3.org/1999/xlink" x="0px" y="0px"
	 viewBox="0 0 394 394" style="enable-background:new 0 0 394 394;" xml:space="preserve">
<g>
	<path d="M372.9,15c0.6,0,1.1,0.3,1.3,0.8c0.3,0.6,0.2,1.3-0.1,1.8l0,0l0,0L245.3,198.9c0,0-0.1,0.1-0.1,0.1
		c-6.5,8.8-10.1,19.7-10.1,30.6v120c0,0.6-0.2,1-0.2,1.1l-0.4,0.1l-0.5,0.2l-72.3,27.6l-0.2,0.1l-0.2,0.1c-0.2,0.1-0.5,0.1-0.7,0.1
		c-0.4,0-0.8-0.2-1-0.4c-0.3-0.3-0.4-0.6-0.4-1l0,0v0V229.6c0-10.9-3.6-21.8-10.1-30.6c0,0,0-0.1-0.1-0.1L20.4,17.7l0,0l0,0
		c-0.4-0.5-0.4-1.2-0.1-1.8c0.3-0.5,0.8-0.8,1.4-0.8H372.9L372.9,15 M372.9,0C372.8,0,372.8,0,372.9,0L21.6,0c0,0,0,0,0,0
		C15.3,0,9.7,3.5,6.8,9C4,14.5,4.5,21.3,8.1,26.4l128.7,181.3c0,0.1,0.1,0.1,0.1,0.2c4.7,6.3,7.2,14,7.2,21.8v147.8
		c0,4.4,1.7,8.6,4.8,11.7c3.1,3.1,7.3,4.9,11.7,4.9c2.2,0,4.4-0.4,6.5-1.3l72.3-27.6c6.5-2,10.8-8.1,10.8-15.5v-120
		c0-7.9,2.5-15.5,7.2-21.8c0-0.1,0.1-0.1,0.1-0.2L386.2,26.4c3.7-5.1,4.2-11.8,1.3-17.4C384.7,3.5,379,0,372.9,0L372.9,0z"/>
</g>
</svg>
