<?xml version="1.0" encoding="utf-8"?>
<!-- Generator: Adobe Illustrator 23.0.6, SVG Export Plug-In . SVG Version: 6.00 Build 0)  -->
<svg version="1.1" id="Layer_1" xmlns="http://www.w3.org/2000/svg" xmlns:xlink="http://www.w3.org/1999/xlink" x="0px" y="0px"
	 viewBox="0 0 384 320.7" style="enable-background:new 0 0 384 320.7;" xml:space="preserve">
<path d="M27,285.7h18.6c3.4,20.2,20.9,35,41.4,35c20.5,0,38-14.8,41.4-35h127.2c3.4,20.2,20.9,35,41.4,35c20.5,0,38-14.8,41.4-35
	H357c14.9,0,27-12.1,27-27v-89.6c0-0.1,0-0.1,0-0.2c0-0.1,0-0.3,0-0.4c0-0.1,0-0.2,0-0.3c0-0.1,0-0.2-0.1-0.4s0-0.2-0.1-0.3
	s-0.1-0.2-0.1-0.3s-0.1-0.2-0.1-0.3c0-0.1-0.1-0.2-0.1-0.3c0-0.1-0.1-0.2-0.1-0.3c0-0.1-0.1-0.2-0.1-0.3c-0.1-0.1-0.1-0.2-0.2-0.3
	c-0.1-0.1-0.1-0.2-0.2-0.3c-0.1-0.1-0.1-0.2-0.2-0.3c-0.1-0.1-0.1-0.2-0.2-0.3c-0.1-0.1-0.2-0.2-0.2-0.3c0,0-0.1-0.1-0.1-0.1
	l-51.5-56.1c-5.1-5.6-12.3-8.7-19.9-8.7h-93.3V27c0-14.9-12.1-27-27-27H27C12.1,0,0,12.1,0,27v231.7C0,273.6,12.1,285.7,27,285.7z
	 M87,306.7c-15.5,0-28-12.5-28-28c0-15.5,12.5-28,28-28s28,12.5,28,28C115,294.2,102.5,306.7,87,306.7z M297,306.7
	c-15.5,0-28-12.5-28-28c0-15.5,12.5-28,28-28s28,12.5,28,28C325,294.2,312.5,306.7,297,306.7z M370,258.7c0,7.2-5.8,13-13,13h-18.6
	c-3.4-20.2-20.9-35-41.4-35c-20.5,0-38,14.8-41.4,35h-38.1v-95.6H370V258.7z M310.7,113.6c3.6,0,7.1,1.5,9.6,4.2l40.8,44.4H217.5
	v-48.6H310.7z M14,27c0-7.2,5.8-13,13-13h163.5c7.2,0,13,5.8,13,13v244.7h-75.1c-3.4-20.2-20.9-35-41.4-35s-38,14.8-41.4,35H27
	c-7.2,0-13-5.8-13-13V27z"/>
</svg>
