<?xml version="1.0" encoding="utf-8"?>
<!-- Generator: Adobe Illustrator 23.0.6, SVG Export Plug-In . SVG Version: 6.00 Build 0)  -->
<svg version="1.1" id="Capa_1" xmlns="http://www.w3.org/2000/svg" xmlns:xlink="http://www.w3.org/1999/xlink" x="0px" y="0px"
	 viewBox="0 0 60.1 45.3" style="enable-background:new 0 0 60.1 45.3;" xml:space="preserve">
<g>
	<path d="M58.1,6.1H15.9c-1.7,0-2-1.1-2-2.3s0.3-2.3,2-2.3h42.2c1.7,0,2,1.1,2,2.3S59.8,6.1,58.1,6.1z"/>
	<path d="M58.1,25H15.9c-1.7,0-2-1.1-2-2.3s0.3-2.3,2-2.3h42.2c1.7,0,2,1.1,2,2.3S59.8,25,58.1,25z"/>
	<path d="M58.1,43.6H15.9c-1.7,0-2-1.1-2-2.3c0-1.3,0.3-2.3,2-2.3h42.2c1.7,0,2,1.1,2,2.3C60.1,42.5,59.8,43.6,58.1,43.6z"/>
	<circle cx="4" cy="4" r="4"/>
	<circle cx="4" cy="22.6" r="4"/>
	<circle cx="4" cy="41.2" r="4"/>
</g>
</svg>
