<?xml version="1.0" encoding="utf-8"?>
<!-- Generator: Adobe Illustrator 23.0.6, SVG Export Plug-In . SVG Version: 6.00 Build 0)  -->
<svg version="1.1" id="Layer_1" xmlns="http://www.w3.org/2000/svg" xmlns:xlink="http://www.w3.org/1999/xlink" x="0px" y="0px"
	 viewBox="0 0 401.6 498.7" style="enable-background:new 0 0 401.6 498.7;" xml:space="preserve">
<path d="M342.9,61.3C304.9,21.8,254.5,0,200.8,0S96.6,21.8,58.7,61.3l-0.1,0.1C20.8,100.7,0,153.1,0,208.7
	c0,55.7,20.8,108,58.6,147.4l133.2,138.8c4.8,5,12.7,5.1,17.6,0.4c0.1-0.1,0.2-0.2,0.4-0.4l133.2-138.8
	c37.8-39.4,58.6-91.8,58.6-147.4C401.6,153.1,380.7,100.7,342.9,61.3L342.9,61.3z M324.9,338.9L200.8,468.3L76.6,338.9
	C7.8,267.1,7.8,150.4,76.6,78.6l0.1-0.1c33.2-34.6,77.3-53.6,124.1-53.6c46.9,0,91,19.1,124.2,53.6l0.1,0.1
	C393.8,150.4,393.8,267.1,324.9,338.9z"/>
<path d="M200.8,76.1c-62,0-112.2,50.2-112.2,112.2s50.2,112.2,112.2,112.2c62,0,112.2-50.2,112.2-112.2
	C312.9,126.4,262.7,76.2,200.8,76.1z M200.8,275.6c-48.2,0-87.3-39.1-87.3-87.3s39.1-87.3,87.3-87.3c48.2,0,87.3,39.1,87.3,87.3
	S249,275.6,200.8,275.6z"/>
</svg>
