<?xml version="1.0" encoding="utf-8"?>
<!-- Generator: Adobe Illustrator 23.1.1, SVG Export Plug-In . SVG Version: 6.00 Build 0)  -->
<svg version="1.1" id="Layer_1" xmlns="http://www.w3.org/2000/svg" xmlns:xlink="http://www.w3.org/1999/xlink" x="0px" y="0px"
	 viewBox="0 0 670.3 670.3" style="enable-background:new 0 0 670.3 670.3;" xml:space="preserve">
<style type="text/css">
	.st0{fill:none;}
</style>
<path class="st0" d="M335.1,670.3c57.7,0,112-14.6,159.4-40.3H175.7C223.1,655.7,277.4,670.3,335.1,670.3z"/>
<path class="st0" d="M335.1,65.2C267.7,65.3,213,120,212.9,187.5c0,67.5,54.7,122.2,122.2,122.2S457.3,255,457.3,187.5
	S402.6,65.2,335.1,65.2z"/>
<path d="M335.1,90.3c-81.3,0-147.2,65.9-147.2,147.2c0.1,81.3,65.9,147.1,147.2,147.2c81.3,0,147.2-65.9,147.2-147.2
	S416.4,90.3,335.1,90.3z M335.1,359.7c-67.5,0-122.2-54.7-122.2-122.2c0.1-67.5,54.8-122.2,122.2-122.3
	c67.5,0,122.2,54.7,122.2,122.2S402.6,359.7,335.1,359.7z"/>
<g>
	<path d="M335.1,25.6c41.8,0,82.3,8.2,120.4,24.3c36.9,15.6,69.9,37.9,98.4,66.4c28.4,28.4,50.8,61.5,66.4,98.4
		c16.1,38.1,24.3,78.7,24.3,120.4s-8.2,82.3-24.3,120.4c-15.6,36.9-37.9,69.9-66.4,98.4c-28.4,28.4-61.5,50.8-98.4,66.4
		c-38.1,16.1-78.7,24.3-120.4,24.3s-82.3-8.2-120.4-24.3c-36.9-15.6-69.9-37.9-98.4-66.4c-28.4-28.4-50.8-61.5-66.4-98.3
		c-16.1-38.1-24.3-78.7-24.3-120.4s8.2-82.3,24.3-120.4c15.6-36.9,37.9-69.9,66.4-98.4c28.4-28.5,61.5-50.9,98.4-66.4
		C252.8,33.8,293.4,25.6,335.1,25.6 M335.1,0C150,0,0,150,0,335.1s150,335.1,335.1,335.1s335.1-150,335.1-335.1S520.2,0,335.1,0
		L335.1,0z"/>
</g>
<g>
	<path d="M558.9,584.3c-11.6-35-30.6-66.7-56.2-92.8c-44.1-45.1-103.6-70.1-167.6-70.1s-123.5,24.8-167.6,70
		c-25.7,26.3-44.7,58-56.3,93.2c6.6,6.1,13.5,11.8,20.7,17.2c10-35.2,28.1-67,53.2-92.8c39.4-40.3,92.7-62.5,149.8-62.5
		s110.4,22.2,149.8,62.5c25.2,25.7,43.3,57.5,53.2,92.8C545.3,596.3,552.3,590.5,558.9,584.3z"/>
</g>
</svg>
