<?xml version="1.0" encoding="utf-8"?>
<!-- Generator: Adobe Illustrator 23.0.6, SVG Export Plug-In . SVG Version: 6.00 Build 0)  -->
<svg version="1.1" id="Layer_1" xmlns="http://www.w3.org/2000/svg" xmlns:xlink="http://www.w3.org/1999/xlink" x="0px" y="0px"
	 viewBox="0 0 764.6 926.4" style="enable-background:new 0 0 764.6 926.4;" xml:space="preserve">
<g>
	<g>
		<path d="M129.8,45.9l-42-6.1l-18.8-38C68.6,0.7,67.5,0,66.3,0c-1.2,0-2.3,0.7-2.8,1.7l-18.8,38L2.7,45.9c-1.2,0.2-2.2,1-2.6,2.2
			S0.1,50.4,1,51.3l30.4,29.6l-7.2,41.8c-0.2,1.2,0.3,2.4,1.3,3.1c1,0.7,2.3,0.8,3.3,0.2l37.5-19.7l37.5,19.7
			c1.1,0.6,2.4,0.5,3.3-0.3c1-0.7,1.5-1.9,1.3-3.1l-7.2-41.8l30.4-29.6c0.9-0.8,1.2-2.1,0.8-3.2C132,46.9,131,46,129.8,45.9z"/>
		<path d="M287.8,45.9l-42-6.1l-18.8-38c-0.5-1.1-1.6-1.7-2.8-1.7c-1.2,0-2.3,0.7-2.8,1.7l-18.8,38l-41.9,6.1
			c-1.2,0.2-2.2,1-2.6,2.2s-0.1,2.4,0.8,3.2l30.4,29.6l-7.2,41.8c-0.2,1.2,0.3,2.4,1.3,3.1c1,0.7,2.3,0.8,3.3,0.2l37.5-19.7
			l37.5,19.7c1.1,0.6,2.4,0.5,3.3-0.3c1-0.7,1.5-1.9,1.3-3.1l-7.2-41.8l30.4-29.6c0.9-0.8,1.2-2.1,0.8-3.2
			C290,46.9,289,46,287.8,45.9z"/>
		<path d="M445.8,45.9l-42-6.1l-18.8-38c-0.5-1.1-1.6-1.7-2.8-1.7c-1.2,0-2.3,0.7-2.8,1.7l-18.8,38l-41.9,6.1
			c-1.2,0.2-2.2,1-2.6,2.2s-0.1,2.4,0.8,3.2l30.4,29.6l-7.2,41.8c-0.2,1.2,0.3,2.4,1.3,3.1c1,0.7,2.3,0.8,3.3,0.2l37.5-19.7
			l37.5,19.7c1.1,0.6,2.4,0.5,3.3-0.3c1-0.7,1.5-1.9,1.3-3.1l-7.2-41.8l30.4-29.6c0.9-0.8,1.2-2.1,0.8-3.2
			C448,46.9,447,46,445.8,45.9z"/>
		<path d="M603.8,45.9l-42-6.1l-18.8-38c-0.5-1.1-1.6-1.7-2.8-1.7c-1.2,0-2.3,0.7-2.8,1.7l-18.8,38l-41.9,6.1
			c-1.2,0.2-2.2,1-2.6,2.2s-0.1,2.4,0.8,3.2l30.4,29.6l-7.2,41.8c-0.2,1.2,0.3,2.4,1.3,3.1c1,0.7,2.3,0.8,3.3,0.2l37.5-19.7
			l37.5,19.7c1.1,0.6,2.4,0.5,3.3-0.3s1.5-1.9,1.3-3.1l-7.2-41.8l30.4-29.6c0.9-0.8,1.2-2.1,0.8-3.2C606,46.9,605,46,603.8,45.9z"/>
		<path d="M761.8,45.9l-42-6.1l-18.8-38c-0.5-1.1-1.6-1.7-2.8-1.7c-1.2,0-2.3,0.7-2.8,1.7l-18.8,38l-41.9,6.1
			c-1.2,0.2-2.2,1-2.6,2.2s-0.1,2.4,0.8,3.2l30.4,29.6l-7.2,41.8c-0.2,1.2,0.3,2.4,1.3,3.1c1,0.7,2.3,0.8,3.3,0.2l37.5-19.7
			l37.5,19.7c1.1,0.6,2.4,0.5,3.3-0.3s1.5-1.9,1.3-3.1l-7.2-41.8l30.4-29.6c0.9-0.8,1.2-2.1,0.8-3.2C764,46.9,763,46,761.8,45.9z"/>
	</g>
	<g>
		<path d="M129.8,205.9l-42-6.1l-18.8-38c-0.5-1.1-1.6-1.7-2.8-1.7c-1.2,0-2.3,0.7-2.8,1.7l-18.8,38l-41.9,6.1
			c-1.2,0.2-2.2,1-2.6,2.2c-0.4,1.1-0.1,2.4,0.8,3.2l30.4,29.6l-7.2,41.8c-0.2,1.2,0.3,2.4,1.3,3.1c1,0.7,2.3,0.8,3.3,0.2l37.5-19.7
			l37.5,19.7c1.1,0.6,2.4,0.5,3.3-0.3c1-0.7,1.5-1.9,1.3-3.1l-7.2-41.8l30.4-29.6c0.9-0.8,1.2-2.1,0.8-3.2
			C132,206.9,131,206,129.8,205.9z"/>
		<path d="M287.8,205.9l-42-6.1l-18.8-38c-0.5-1.1-1.6-1.7-2.8-1.7c-1.2,0-2.3,0.7-2.8,1.7l-18.8,38l-41.9,6.1
			c-1.2,0.2-2.2,1-2.6,2.2c-0.4,1.1-0.1,2.4,0.8,3.2l30.4,29.6l-7.2,41.8c-0.2,1.2,0.3,2.4,1.3,3.1c1,0.7,2.3,0.8,3.3,0.2l37.5-19.7
			l37.5,19.7c1.1,0.6,2.4,0.5,3.3-0.3c1-0.7,1.5-1.9,1.3-3.1l-7.2-41.8l30.4-29.6c0.9-0.8,1.2-2.1,0.8-3.2
			C290,206.9,289,206,287.8,205.9z"/>
		<path d="M445.8,205.9l-42-6.1l-18.8-38c-0.5-1.1-1.6-1.7-2.8-1.7c-1.2,0-2.3,0.7-2.8,1.7l-18.8,38l-41.9,6.1
			c-1.2,0.2-2.2,1-2.6,2.2c-0.4,1.1-0.1,2.4,0.8,3.2l30.4,29.6l-7.2,41.8c-0.2,1.2,0.3,2.4,1.3,3.1c1,0.7,2.3,0.8,3.3,0.2l37.5-19.7
			l37.5,19.7c1.1,0.6,2.4,0.5,3.3-0.3c1-0.7,1.5-1.9,1.3-3.1l-7.2-41.8l30.4-29.6c0.9-0.8,1.2-2.1,0.8-3.2
			C448,206.9,447,206,445.8,205.9z"/>
		<path d="M603.8,205.9l-42-6.1l-18.8-38c-0.5-1.1-1.6-1.7-2.8-1.7c-1.2,0-2.3,0.7-2.8,1.7l-18.8,38l-41.9,6.1
			c-1.2,0.2-2.2,1-2.6,2.2c-0.4,1.1-0.1,2.4,0.8,3.2l30.4,29.6l-7.2,41.8c-0.2,1.2,0.3,2.4,1.3,3.1c1,0.7,2.3,0.8,3.3,0.2l37.5-19.7
			l37.5,19.7c1.1,0.6,2.4,0.5,3.3-0.3c1-0.7,1.5-1.9,1.3-3.1l-7.2-41.8l30.4-29.6c0.9-0.8,1.2-2.1,0.8-3.2
			C606,206.9,605,206,603.8,205.9z"/>
		<g>
			<path d="M698.3,174.1l14.4,29.2l1.9,3.8l4.2,0.6l32.3,4.7l-23.3,22.7l-3,2.9l0.7,4.1l5.5,32.2L702,259.2l-3.7-2l-3.7,2
				l-28.9,15.2l5.5-32.1l0.7-4.1l-3-2.9l-23.3-22.8l32.2-4.7l4.2-0.6l1.9-3.8L698.3,174.1 M698.3,160c-1.2,0-2.3,0.7-2.8,1.7
				l-18.8,38l-41.9,6.1c-1.2,0.2-2.2,1-2.6,2.2c-0.4,1.1-0.1,2.4,0.8,3.2l30.4,29.6l-7.2,41.8c-0.2,1.2,0.3,2.4,1.3,3.1
				c0.5,0.4,1.2,0.6,1.8,0.6c0.5,0,1-0.1,1.5-0.4l37.5-19.7l37.5,19.7c0.5,0.2,1,0.4,1.5,0.4c0.7,0,1.3-0.2,1.9-0.6
				c1-0.7,1.5-1.9,1.3-3.1l-7.2-41.8l30.4-29.6c0.9-0.8,1.2-2.1,0.8-3.2c-0.4-1.1-1.4-2-2.6-2.1l-42-6.1l-18.8-38
				C700.6,160.7,699.5,160,698.3,160L698.3,160z"/>
		</g>
	</g>
	<g>
		<path d="M129.8,365.9l-42-6.1l-18.8-38c-0.5-1.1-1.6-1.7-2.8-1.7c-1.2,0-2.3,0.7-2.8,1.7l-18.8,38l-41.9,6.1
			c-1.2,0.2-2.2,1-2.6,2.2s-0.1,2.4,0.8,3.2l30.4,29.6l-7.2,41.8c-0.2,1.2,0.3,2.4,1.3,3.1c1,0.7,2.3,0.8,3.3,0.2l37.5-19.7
			l37.5,19.7c1.1,0.6,2.4,0.5,3.3-0.3c1-0.7,1.5-1.9,1.3-3.1l-7.2-41.8l30.4-29.6c0.9-0.8,1.2-2.1,0.8-3.2
			C132,366.9,131,366,129.8,365.9z"/>
		<path d="M287.8,365.9l-42-6.1l-18.8-38c-0.5-1.1-1.6-1.7-2.8-1.7c-1.2,0-2.3,0.7-2.8,1.7l-18.8,38l-41.9,6.1
			c-1.2,0.2-2.2,1-2.6,2.2s-0.1,2.4,0.8,3.2l30.4,29.6l-7.2,41.8c-0.2,1.2,0.3,2.4,1.3,3.1c1,0.7,2.3,0.8,3.3,0.2l37.5-19.7
			l37.5,19.7c1.1,0.6,2.4,0.5,3.3-0.3c1-0.7,1.5-1.9,1.3-3.1l-7.2-41.8l30.4-29.6c0.9-0.8,1.2-2.1,0.8-3.2
			C290,366.9,289,366,287.8,365.9z"/>
		<path d="M445.8,365.9l-42-6.1l-18.8-38c-0.5-1.1-1.6-1.7-2.8-1.7c-1.2,0-2.3,0.7-2.8,1.7l-18.8,38l-41.9,6.1
			c-1.2,0.2-2.2,1-2.6,2.2s-0.1,2.4,0.8,3.2l30.4,29.6l-7.2,41.8c-0.2,1.2,0.3,2.4,1.3,3.1c1,0.7,2.3,0.8,3.3,0.2l37.5-19.7
			l37.5,19.7c1.1,0.6,2.4,0.5,3.3-0.3c1-0.7,1.5-1.9,1.3-3.1l-7.2-41.8l30.4-29.6c0.9-0.8,1.2-2.1,0.8-3.2
			C448,366.9,447,366,445.8,365.9z"/>
		<g>
			<path d="M540.3,334.1l14.4,29.2l1.9,3.8l4.2,0.6l32.3,4.7l-23.3,22.7l-3,2.9l0.7,4.1l5.5,32.2L544,419.2l-3.7-2l-3.7,2
				l-28.9,15.2l5.5-32.1l0.7-4.1l-3-2.9l-23.3-22.8l32.2-4.7l4.2-0.6l1.9-3.8L540.3,334.1 M540.3,320c-1.2,0-2.3,0.7-2.8,1.7
				l-18.8,38l-41.9,6.1c-1.2,0.2-2.2,1-2.6,2.2c-0.4,1.1-0.1,2.4,0.8,3.2l30.4,29.6l-7.2,41.8c-0.2,1.2,0.3,2.4,1.3,3.1
				c0.5,0.4,1.2,0.6,1.8,0.6c0.5,0,1-0.1,1.5-0.4l37.5-19.7l37.5,19.7c0.5,0.2,1,0.4,1.5,0.4c0.7,0,1.3-0.2,1.9-0.6
				c1-0.7,1.5-1.9,1.3-3.1l-7.2-41.8l30.4-29.6c0.9-0.8,1.2-2.1,0.8-3.2c-0.4-1.1-1.4-2-2.6-2.1l-42-6.1l-18.8-38
				C542.6,320.7,541.5,320,540.3,320L540.3,320z"/>
		</g>
		<g>
			<path d="M698.3,334.1l14.4,29.2l1.9,3.8l4.2,0.6l32.3,4.7l-23.3,22.7l-3,2.9l0.7,4.1l5.5,32.2L702,419.2l-3.7-2l-3.7,2
				l-28.9,15.2l5.5-32.1l0.7-4.1l-3-2.9l-23.3-22.8l32.2-4.7l4.2-0.6l1.9-3.8L698.3,334.1 M698.3,320c-1.2,0-2.3,0.7-2.8,1.7
				l-18.8,38l-41.9,6.1c-1.2,0.2-2.2,1-2.6,2.2c-0.4,1.1-0.1,2.4,0.8,3.2l30.4,29.6l-7.2,41.8c-0.2,1.2,0.3,2.4,1.3,3.1
				c0.5,0.4,1.2,0.6,1.8,0.6c0.5,0,1-0.1,1.5-0.4l37.5-19.7l37.5,19.7c0.5,0.2,1,0.4,1.5,0.4c0.7,0,1.3-0.2,1.9-0.6
				c1-0.7,1.5-1.9,1.3-3.1l-7.2-41.8l30.4-29.6c0.9-0.8,1.2-2.1,0.8-3.2c-0.4-1.1-1.4-2-2.6-2.1l-42-6.1l-18.8-38
				C700.6,320.7,699.5,320,698.3,320L698.3,320z"/>
		</g>
	</g>
	<g>
		<path d="M129.8,525.9l-42-6.1l-18.8-38c-0.5-1.1-1.6-1.7-2.8-1.7c-1.2,0-2.3,0.7-2.8,1.7l-18.8,38l-41.9,6.1
			c-1.2,0.2-2.2,1-2.6,2.2s-0.1,2.4,0.8,3.2l30.4,29.6l-7.2,41.8c-0.2,1.2,0.3,2.4,1.3,3.1c1,0.7,2.3,0.8,3.3,0.2l37.5-19.7
			l37.5,19.7c1.1,0.6,2.4,0.5,3.3-0.3c1-0.7,1.5-1.9,1.3-3.1l-7.2-41.8l30.4-29.6c0.9-0.8,1.2-2.1,0.8-3.2
			C132,526.9,131,526,129.8,525.9z"/>
		<path d="M287.8,525.9l-42-6.1l-18.8-38c-0.5-1.1-1.6-1.7-2.8-1.7c-1.2,0-2.3,0.7-2.8,1.7l-18.8,38l-41.9,6.1
			c-1.2,0.2-2.2,1-2.6,2.2s-0.1,2.4,0.8,3.2l30.4,29.6l-7.2,41.8c-0.2,1.2,0.3,2.4,1.3,3.1c1,0.7,2.3,0.8,3.3,0.2l37.5-19.7
			l37.5,19.7c1.1,0.6,2.4,0.5,3.3-0.3c1-0.7,1.5-1.9,1.3-3.1l-7.2-41.8l30.4-29.6c0.9-0.8,1.2-2.1,0.8-3.2
			C290,526.9,289,526,287.8,525.9z"/>
		<g>
			<path d="M382.3,494.1l14.4,29.2l1.9,3.8l4.2,0.6l32.3,4.7l-23.3,22.7l-3,2.9l0.7,4.1l5.5,32.2L386,579.2l-3.7-2l-3.7,2
				l-28.9,15.2l5.5-32.1l0.7-4.1l-3-2.9l-23.3-22.8l32.2-4.7l4.2-0.6l1.9-3.8L382.3,494.1 M382.3,480c-1.2,0-2.3,0.7-2.8,1.7
				l-18.8,38l-41.9,6.1c-1.2,0.2-2.2,1-2.6,2.2c-0.4,1.1-0.1,2.4,0.8,3.2l30.4,29.6l-7.2,41.8c-0.2,1.2,0.3,2.4,1.3,3.1
				c0.5,0.4,1.2,0.6,1.8,0.6c0.5,0,1-0.1,1.5-0.4l37.5-19.7l37.5,19.7c0.5,0.2,1,0.4,1.5,0.4c0.7,0,1.3-0.2,1.9-0.6
				c1-0.7,1.5-1.9,1.3-3.1l-7.2-41.8l30.4-29.6c0.9-0.8,1.2-2.1,0.8-3.2c-0.4-1.1-1.4-2-2.6-2.1l-42-6.1l-18.8-38
				C384.6,480.7,383.5,480,382.3,480L382.3,480z"/>
		</g>
		<g>
			<path d="M540.3,494.1l14.4,29.2l1.9,3.8l4.2,0.6l32.3,4.7l-23.3,22.7l-3,2.9l0.7,4.1l5.5,32.2L544,579.2l-3.7-2l-3.7,2
				l-28.9,15.2l5.5-32.1l0.7-4.1l-3-2.9l-23.3-22.8l32.2-4.7l4.2-0.6l1.9-3.8L540.3,494.1 M540.3,480c-1.2,0-2.3,0.7-2.8,1.7
				l-18.8,38l-41.9,6.1c-1.2,0.2-2.2,1-2.6,2.2c-0.4,1.1-0.1,2.4,0.8,3.2l30.4,29.6l-7.2,41.8c-0.2,1.2,0.3,2.4,1.3,3.1
				c0.5,0.4,1.2,0.6,1.8,0.6c0.5,0,1-0.1,1.5-0.4l37.5-19.7l37.5,19.7c0.5,0.2,1,0.4,1.5,0.4c0.7,0,1.3-0.2,1.9-0.6
				c1-0.7,1.5-1.9,1.3-3.1l-7.2-41.8l30.4-29.6c0.9-0.8,1.2-2.1,0.8-3.2c-0.4-1.1-1.4-2-2.6-2.1l-42-6.1l-18.8-38
				C542.6,480.7,541.5,480,540.3,480L540.3,480z"/>
		</g>
		<g>
			<path d="M698.3,494.1l14.4,29.2l1.9,3.8l4.2,0.6l32.3,4.7l-23.3,22.7l-3,2.9l0.7,4.1l5.5,32.2L702,579.2l-3.7-2l-3.7,2
				l-28.9,15.2l5.5-32.1l0.7-4.1l-3-2.9l-23.3-22.8l32.2-4.7l4.2-0.6l1.9-3.8L698.3,494.1 M698.3,480c-1.2,0-2.3,0.7-2.8,1.7
				l-18.8,38l-41.9,6.1c-1.2,0.2-2.2,1-2.6,2.2c-0.4,1.1-0.1,2.4,0.8,3.2l30.4,29.6l-7.2,41.8c-0.2,1.2,0.3,2.4,1.3,3.1
				c0.5,0.4,1.2,0.6,1.8,0.6c0.5,0,1-0.1,1.5-0.4l37.5-19.7l37.5,19.7c0.5,0.2,1,0.4,1.5,0.4c0.7,0,1.3-0.2,1.9-0.6
				c1-0.7,1.5-1.9,1.3-3.1l-7.2-41.8l30.4-29.6c0.9-0.8,1.2-2.1,0.8-3.2c-0.4-1.1-1.4-2-2.6-2.1l-42-6.1l-18.8-38
				C700.6,480.7,699.5,480,698.3,480L698.3,480z"/>
		</g>
	</g>
	<g>
		<path d="M129.8,685.9l-42-6.1l-18.8-38c-0.5-1.1-1.6-1.7-2.8-1.7c-1.2,0-2.3,0.7-2.8,1.7l-18.8,38l-41.9,6.1
			c-1.2,0.2-2.2,1-2.6,2.2s-0.1,2.4,0.8,3.2l30.4,29.6l-7.2,41.8c-0.2,1.2,0.3,2.4,1.3,3.1c1,0.7,2.3,0.8,3.3,0.2l37.5-19.7
			l37.5,19.7c1.1,0.6,2.4,0.5,3.3-0.3c1-0.7,1.5-1.9,1.3-3.1l-7.2-41.8l30.4-29.6c0.9-0.8,1.2-2.1,0.8-3.2
			C132,686.9,131,686,129.8,685.9z"/>
		<g>
			<path d="M224.3,654.1l14.4,29.2l1.9,3.8l4.2,0.6l32.3,4.7l-23.3,22.7l-3,2.9l0.7,4.1l5.5,32.2L228,739.2l-3.7-2l-3.7,2
				l-28.9,15.2l5.5-32.1l0.7-4.1l-3-2.9l-23.3-22.8l32.2-4.7l4.2-0.6l1.9-3.8L224.3,654.1 M224.3,640c-1.2,0-2.3,0.7-2.8,1.7
				l-18.8,38l-41.9,6.1c-1.2,0.2-2.2,1-2.6,2.2c-0.4,1.1-0.1,2.4,0.8,3.2l30.4,29.6l-7.2,41.8c-0.2,1.2,0.3,2.4,1.3,3.1
				c0.5,0.4,1.2,0.6,1.8,0.6c0.5,0,1-0.1,1.5-0.4l37.5-19.7l37.5,19.7c0.5,0.2,1,0.4,1.5,0.4c0.7,0,1.3-0.2,1.9-0.6
				c1-0.7,1.5-1.9,1.3-3.1l-7.2-41.8l30.4-29.6c0.9-0.8,1.2-2.1,0.8-3.2c-0.4-1.1-1.4-2-2.6-2.1l-42-6.1l-18.8-38
				C226.6,640.7,225.5,640,224.3,640L224.3,640z"/>
		</g>
		<g>
			<path d="M382.3,654.1l14.4,29.2l1.9,3.8l4.2,0.6l32.3,4.7l-23.3,22.7l-3,2.9l0.7,4.1l5.5,32.2L386,739.2l-3.7-2l-3.7,2
				l-28.9,15.2l5.5-32.1l0.7-4.1l-3-2.9l-23.3-22.8l32.2-4.7l4.2-0.6l1.9-3.8L382.3,654.1 M382.3,640c-1.2,0-2.3,0.7-2.8,1.7
				l-18.8,38l-41.9,6.1c-1.2,0.2-2.2,1-2.6,2.2c-0.4,1.1-0.1,2.4,0.8,3.2l30.4,29.6l-7.2,41.8c-0.2,1.2,0.3,2.4,1.3,3.1
				c0.5,0.4,1.2,0.6,1.8,0.6c0.5,0,1-0.1,1.5-0.4l37.5-19.7l37.5,19.7c0.5,0.2,1,0.4,1.5,0.4c0.7,0,1.3-0.2,1.9-0.6
				c1-0.7,1.5-1.9,1.3-3.1l-7.2-41.8l30.4-29.6c0.9-0.8,1.2-2.1,0.8-3.2c-0.4-1.1-1.4-2-2.6-2.1l-42-6.1l-18.8-38
				C384.6,640.7,383.5,640,382.3,640L382.3,640z"/>
		</g>
		<g>
			<path d="M540.3,654.1l14.4,29.2l1.9,3.8l4.2,0.6l32.3,4.7l-23.3,22.7l-3,2.9l0.7,4.1l5.5,32.2L544,739.2l-3.7-2l-3.7,2
				l-28.9,15.2l5.5-32.1l0.7-4.1l-3-2.9l-23.3-22.8l32.2-4.7l4.2-0.6l1.9-3.8L540.3,654.1 M540.3,640c-1.2,0-2.3,0.7-2.8,1.7
				l-18.8,38l-41.9,6.1c-1.2,0.2-2.2,1-2.6,2.2c-0.4,1.1-0.1,2.4,0.8,3.2l30.4,29.6l-7.2,41.8c-0.2,1.2,0.3,2.4,1.3,3.1
				c0.5,0.4,1.2,0.6,1.8,0.6c0.5,0,1-0.1,1.5-0.4l37.5-19.7l37.5,19.7c0.5,0.2,1,0.4,1.5,0.4c0.7,0,1.3-0.2,1.9-0.6
				c1-0.7,1.5-1.9,1.3-3.1l-7.2-41.8l30.4-29.6c0.9-0.8,1.2-2.1,0.8-3.2c-0.4-1.1-1.4-2-2.6-2.1l-42-6.1l-18.8-38
				C542.6,640.7,541.5,640,540.3,640L540.3,640z"/>
		</g>
		<g>
			<path d="M698.3,654.1l14.4,29.2l1.9,3.8l4.2,0.6l32.3,4.7l-23.3,22.7l-3,2.9l0.7,4.1l5.5,32.2L702,739.2l-3.7-2l-3.7,2
				l-28.9,15.2l5.5-32.1l0.7-4.1l-3-2.9l-23.3-22.8l32.2-4.7l4.2-0.6l1.9-3.8L698.3,654.1 M698.3,640c-1.2,0-2.3,0.7-2.8,1.7
				l-18.8,38l-41.9,6.1c-1.2,0.2-2.2,1-2.6,2.2c-0.4,1.1-0.1,2.4,0.8,3.2l30.4,29.6l-7.2,41.8c-0.2,1.2,0.3,2.4,1.3,3.1
				c0.5,0.4,1.2,0.6,1.8,0.6c0.5,0,1-0.1,1.5-0.4l37.5-19.7l37.5,19.7c0.5,0.2,1,0.4,1.5,0.4c0.7,0,1.3-0.2,1.9-0.6
				c1-0.7,1.5-1.9,1.3-3.1l-7.2-41.8l30.4-29.6c0.9-0.8,1.2-2.1,0.8-3.2c-0.4-1.1-1.4-2-2.6-2.1l-42-6.1l-18.8-38
				C700.6,640.7,699.5,640,698.3,640L698.3,640z"/>
		</g>
	</g>
	<g>
		<g>
			<path d="M66.3,814.1l14.4,29.2l1.9,3.8l4.2,0.6l32.3,4.7l-23.3,22.7l-3,2.9l0.7,4.1l5.5,32.2L70,899.2l-3.7-2l-3.7,2l-28.9,15.2
				l5.5-32.1l0.7-4.1l-3-2.9l-23.3-22.8l32.2-4.7l4.2-0.6l1.9-3.8L66.3,814.1 M66.3,800c-1.2,0-2.3,0.7-2.8,1.7l-18.8,38l-41.9,6.1
				c-1.2,0.2-2.2,1-2.6,2.2c-0.4,1.1-0.1,2.4,0.8,3.2l30.4,29.6l-7.2,41.8c-0.2,1.2,0.3,2.4,1.3,3.1c0.5,0.4,1.2,0.6,1.8,0.6
				c0.5,0,1-0.1,1.5-0.4l37.5-19.7l37.5,19.7c0.5,0.2,1,0.4,1.5,0.4c0.7,0,1.3-0.2,1.9-0.6c1-0.7,1.5-1.9,1.3-3.1l-7.2-41.8
				l30.4-29.6c0.9-0.8,1.2-2.1,0.8-3.2c-0.4-1.1-1.4-2-2.6-2.1l-42-6.1l-18.8-38C68.6,800.7,67.5,800,66.3,800L66.3,800z"/>
		</g>
		<g>
			<path d="M224.3,814.1l14.4,29.2l1.9,3.8l4.2,0.6l32.3,4.7l-23.3,22.7l-3,2.9l0.7,4.1l5.5,32.2L228,899.2l-3.7-2l-3.7,2
				l-28.9,15.2l5.5-32.1l0.7-4.1l-3-2.9l-23.3-22.8l32.2-4.7l4.2-0.6l1.9-3.8L224.3,814.1 M224.3,800c-1.2,0-2.3,0.7-2.8,1.7
				l-18.8,38l-41.9,6.1c-1.2,0.2-2.2,1-2.6,2.2c-0.4,1.1-0.1,2.4,0.8,3.2l30.4,29.6l-7.2,41.8c-0.2,1.2,0.3,2.4,1.3,3.1
				c0.5,0.4,1.2,0.6,1.8,0.6c0.5,0,1-0.1,1.5-0.4l37.5-19.7l37.5,19.7c0.5,0.2,1,0.4,1.5,0.4c0.7,0,1.3-0.2,1.9-0.6
				c1-0.7,1.5-1.9,1.3-3.1l-7.2-41.8l30.4-29.6c0.9-0.8,1.2-2.1,0.8-3.2c-0.4-1.1-1.4-2-2.6-2.1l-42-6.1l-18.8-38
				C226.6,800.7,225.5,800,224.3,800L224.3,800z"/>
		</g>
		<g>
			<path d="M382.3,814.1l14.4,29.2l1.9,3.8l4.2,0.6l32.3,4.7l-23.3,22.7l-3,2.9l0.7,4.1l5.5,32.2L386,899.2l-3.7-2l-3.7,2
				l-28.9,15.2l5.5-32.1l0.7-4.1l-3-2.9l-23.3-22.8l32.2-4.7l4.2-0.6l1.9-3.8L382.3,814.1 M382.3,800c-1.2,0-2.3,0.7-2.8,1.7
				l-18.8,38l-41.9,6.1c-1.2,0.2-2.2,1-2.6,2.2c-0.4,1.1-0.1,2.4,0.8,3.2l30.4,29.6l-7.2,41.8c-0.2,1.2,0.3,2.4,1.3,3.1
				c0.5,0.4,1.2,0.6,1.8,0.6c0.5,0,1-0.1,1.5-0.4l37.5-19.7l37.5,19.7c0.5,0.2,1,0.4,1.5,0.4c0.7,0,1.3-0.2,1.9-0.6
				c1-0.7,1.5-1.9,1.3-3.1l-7.2-41.8l30.4-29.6c0.9-0.8,1.2-2.1,0.8-3.2c-0.4-1.1-1.4-2-2.6-2.1l-42-6.1l-18.8-38
				C384.6,800.7,383.5,800,382.3,800L382.3,800z"/>
		</g>
		<g>
			<path d="M540.3,814.1l14.4,29.2l1.9,3.8l4.2,0.6l32.3,4.7l-23.3,22.7l-3,2.9l0.7,4.1l5.5,32.2L544,899.2l-3.7-2l-3.7,2
				l-28.9,15.2l5.5-32.1l0.7-4.1l-3-2.9l-23.3-22.8l32.2-4.7l4.2-0.6l1.9-3.8L540.3,814.1 M540.3,800c-1.2,0-2.3,0.7-2.8,1.7
				l-18.8,38l-41.9,6.1c-1.2,0.2-2.2,1-2.6,2.2c-0.4,1.1-0.1,2.4,0.8,3.2l30.4,29.6l-7.2,41.8c-0.2,1.2,0.3,2.4,1.3,3.1
				c0.5,0.4,1.2,0.6,1.8,0.6c0.5,0,1-0.1,1.5-0.4l37.5-19.7l37.5,19.7c0.5,0.2,1,0.4,1.5,0.4c0.7,0,1.3-0.2,1.9-0.6
				c1-0.7,1.5-1.9,1.3-3.1l-7.2-41.8l30.4-29.6c0.9-0.8,1.2-2.1,0.8-3.2c-0.4-1.1-1.4-2-2.6-2.1l-42-6.1l-18.8-38
				C542.6,800.7,541.5,800,540.3,800L540.3,800z"/>
		</g>
		<g>
			<path d="M698.3,814.1l14.4,29.2l1.9,3.8l4.2,0.6l32.3,4.7l-23.3,22.7l-3,2.9l0.7,4.1l5.5,32.2L702,899.2l-3.7-2l-3.7,2
				l-28.9,15.2l5.5-32.1l0.7-4.1l-3-2.9l-23.3-22.8l32.2-4.7l4.2-0.6l1.9-3.8L698.3,814.1 M698.3,800c-1.2,0-2.3,0.7-2.8,1.7
				l-18.8,38l-41.9,6.1c-1.2,0.2-2.2,1-2.6,2.2c-0.4,1.1-0.1,2.4,0.8,3.2l30.4,29.6l-7.2,41.8c-0.2,1.2,0.3,2.4,1.3,3.1
				c0.5,0.4,1.2,0.6,1.8,0.6c0.5,0,1-0.1,1.5-0.4l37.5-19.7l37.5,19.7c0.5,0.2,1,0.4,1.5,0.4c0.7,0,1.3-0.2,1.9-0.6
				c1-0.7,1.5-1.9,1.3-3.1l-7.2-41.8l30.4-29.6c0.9-0.8,1.2-2.1,0.8-3.2c-0.4-1.1-1.4-2-2.6-2.1l-42-6.1l-18.8-38
				C700.6,800.7,699.5,800,698.3,800L698.3,800z"/>
		</g>
	</g>
</g>
</svg>
