<?xml version="1.0" encoding="utf-8"?>
<!-- Generator: Adobe Illustrator 23.1.1, SVG Export Plug-In . SVG Version: 6.00 Build 0)  -->
<svg version="1.1" id="Layer_1" xmlns="http://www.w3.org/2000/svg" xmlns:xlink="http://www.w3.org/1999/xlink" x="0px" y="0px"
	 viewBox="0 0 764.5 126.4" style="enable-background:new 0 0 764.5 126.4;" xml:space="preserve">
<g>
	<g>
		<g>
			<path d="M66.3,12l15.3,30.9l1.6,3.3l3.6,0.5l34.3,5L96.4,75.8l-2.6,2.6l0.6,3.6l5.9,34.2l-30.6-16.1l-3.3-1.7l-3.3,1.7
				l-30.6,16.1l5.9-34.1l0.6-3.6l-2.6-2.6L11.5,51.7l34.3-5.1l3.6-0.5l1.6-3.3L66.3,12 M66.4,0c-1.2,0-2.3,0.7-2.8,1.7l-18.8,38
				l-42,6.2c-1.2,0.2-2.2,1-2.6,2.2c-0.4,1.2,0,2.3,0.9,3.2l30.4,29.6l-7.2,41.8c-0.2,1.2,0.3,2.4,1.3,3.1c0.6,0.4,1.2,0.6,1.8,0.6
				c0.5,0,1-0.1,1.5-0.4l37.5-19.7l37.5,19.7c0.5,0.3,1,0.4,1.5,0.4c0.7,0,1.3-0.2,1.8-0.7c1-0.7,1.5-1.9,1.3-3.1l-7.2-41.8
				l30.4-29.6c0.9-0.8,1.2-2.1,0.8-3.2c-0.4-1.1-1.4-2-2.6-2.1l-42-6.1l-18.8-38C68.7,0.7,67.6,0,66.4,0L66.4,0z"/>
		</g>
		<g>
			<path d="M224.3,11.9l15.3,31l1.6,3.3l3.6,0.5l34.2,5l-24.7,24.1l-2.6,2.6l0.6,3.6l5.9,34.2l-30.6-16.1l-3.3-1.7l-3.3,1.7
				l-30.6,16.1l5.9-34.1l0.6-3.6l-2.6-2.6l-24.8-24.2l34.2-5l3.6-0.5l1.6-3.3L224.3,11.9 M224.3,0.1c-1.2,0-2.3,0.7-2.8,1.7
				l-18.8,38l-41.9,6.1c-1.2,0.2-2.2,1-2.6,2.2c-0.4,1.2-0.1,2.4,0.8,3.2l30.4,29.6l-7.2,41.8c-0.2,1.2,0.3,2.4,1.3,3.1
				c0.6,0.4,1.2,0.6,1.8,0.6c0.5,0,1-0.1,1.5-0.4l37.5-19.7l37.5,19.7c0.5,0.3,1,0.4,1.5,0.4c0.7,0,1.3-0.2,1.8-0.7
				c1-0.7,1.5-1.9,1.3-3.1l-7.2-41.8l30.4-29.6c0.9-0.8,1.2-2.1,0.8-3.2c-0.3-1.1-1.3-2-2.5-2.1l-42-6.1l-18.8-38
				C226.6,0.7,225.5,0.1,224.3,0.1L224.3,0.1z"/>
		</g>
		<g>
			<path d="M382.3,11.9l15.3,31l1.6,3.3l3.6,0.5l34.2,5l-24.7,24.1l-2.6,2.6l0.6,3.6l5.9,34.2l-30.6-16.1l-3.3-1.7l-3.3,1.7
				l-30.6,16.1l5.9-34.1l0.6-3.6l-2.6-2.6l-24.8-24.2l34.2-5l3.6-0.5l1.6-3.3L382.3,11.9 M382.3,0.1c-1.2,0-2.3,0.7-2.8,1.7
				l-18.8,38l-41.9,6.1c-1.2,0.2-2.2,1-2.6,2.2c-0.4,1.2-0.1,2.4,0.8,3.2l30.4,29.6l-7.2,41.8c-0.2,1.2,0.3,2.4,1.3,3.1
				c0.6,0.4,1.2,0.6,1.8,0.6c0.5,0,1-0.1,1.5-0.4l37.5-19.7l37.5,19.7c0.5,0.3,1,0.4,1.5,0.4c0.7,0,1.3-0.2,1.8-0.7
				c1-0.7,1.5-1.9,1.3-3.1l-7.2-41.8l30.4-29.6c0.9-0.8,1.2-2.1,0.8-3.2c-0.3-1.1-1.3-2-2.5-2.1l-42-6.1l-18.8-38
				C384.6,0.7,383.5,0.1,382.3,0.1L382.3,0.1z"/>
		</g>
		<g>
			<path d="M540.3,11.9l15.3,31l1.6,3.3l3.6,0.5l34.2,5l-24.7,24.1l-2.6,2.6l0.6,3.6l5.9,34.2l-30.6-16.1l-3.3-1.7l-3.3,1.7
				l-30.6,16.1l5.9-34.1l0.6-3.6l-2.6-2.6l-24.8-24.2l34.2-5l3.6-0.5l1.6-3.3L540.3,11.9 M540.3,0.1c-1.2,0-2.3,0.7-2.8,1.7
				l-18.8,38l-41.9,6.1c-1.2,0.2-2.2,1-2.6,2.2c-0.4,1.2-0.1,2.4,0.8,3.2l30.4,29.6l-7.2,41.8c-0.2,1.2,0.3,2.4,1.3,3.1
				c0.6,0.4,1.2,0.6,1.8,0.6c0.5,0,1-0.1,1.5-0.4l37.5-19.7l37.5,19.7c0.5,0.3,1,0.4,1.5,0.4c0.7,0,1.3-0.2,1.8-0.7
				c0.9-0.8,1.5-1.9,1.3-3.1l-7.2-41.8l30.4-29.6c0.9-0.8,1.2-2.1,0.8-3.2c-0.3-1.1-1.3-2-2.5-2.1l-42-6.1l-18.8-38
				C542.6,0.7,541.5,0.1,540.3,0.1L540.3,0.1z"/>
		</g>
		<g>
			<path d="M698.3,11.9l15.3,31l1.6,3.3l3.6,0.5l34.2,5l-24.7,24.1l-2.6,2.6l0.6,3.6l5.9,34.2l-30.6-16.1l-3.3-1.7l-3.3,1.7
				l-30.6,16.1l5.9-34.1l0.6-3.6l-2.6-2.6l-24.8-24.2l34.2-5l3.6-0.5l1.6-3.3L698.3,11.9 M698.3,0.1c-1.2,0-2.3,0.7-2.8,1.7
				l-18.8,38l-41.9,6.1c-1.2,0.2-2.2,1-2.6,2.2c-0.4,1.2-0.1,2.4,0.8,3.2l30.4,29.6l-7.2,41.8c-0.2,1.2,0.3,2.4,1.3,3.1
				c0.6,0.4,1.2,0.6,1.8,0.6c0.5,0,1-0.1,1.5-0.4l37.5-19.7l37.5,19.7c0.5,0.3,1,0.4,1.5,0.4c0.7,0,1.3-0.2,1.8-0.7
				c0.9-0.8,1.5-1.9,1.3-3.1l-7.2-41.8l30.4-29.6c0.9-0.8,1.2-2.1,0.8-3.2c-0.3-1.1-1.3-2-2.5-2.1l-42-6.1l-18.8-38
				C700.6,0.7,699.5,0.1,698.3,0.1L698.3,0.1z"/>
		</g>
	</g>
</g>
</svg>
