<?xml version="1.0" encoding="utf-8"?>
<!-- Generator: Adobe Illustrator 23.1.1, SVG Export Plug-In . SVG Version: 6.00 Build 0)  -->
<svg version="1.1" id="Layer_1" xmlns="http://www.w3.org/2000/svg" xmlns:xlink="http://www.w3.org/1999/xlink" x="0px" y="0px"
	 viewBox="0 0 764.5 126.4" style="enable-background:new 0 0 764.5 126.4;" xml:space="preserve">
<g>
	<g>
		<path d="M129.9,45.9l-42-6.1l-18.8-38C68.7,0.7,67.6,0,66.4,0s-2.3,0.7-2.8,1.7l-18.8,38l-42,6.2c-1.2,0.2-2.2,1-2.6,2.2
			s0,2.3,0.9,3.2l30.4,29.6l-7.2,41.8c-0.2,1.2,0.3,2.4,1.3,3.1s2.3,0.8,3.3,0.2l37.5-19.7l37.5,19.7c1.1,0.6,2.4,0.5,3.3-0.3
			c1-0.7,1.5-1.9,1.3-3.1l-7.2-41.8l30.4-29.6c0.9-0.8,1.2-2.1,0.8-3.2C132.1,46.9,131.1,46,129.9,45.9z"/>
		<path d="M287.9,45.9l-42-6.1l-18.8-38c-0.5-1.1-1.6-1.7-2.8-1.7s-2.3,0.7-2.8,1.7l-18.8,38l-41.9,6.1c-1.2,0.2-2.2,1-2.6,2.2
			s-0.1,2.4,0.8,3.2l30.4,29.6l-7.2,41.8c-0.2,1.2,0.3,2.4,1.3,3.1s2.3,0.8,3.3,0.2l37.5-19.7l37.5,19.7c1.1,0.6,2.4,0.5,3.3-0.3
			c1-0.7,1.5-1.9,1.3-3.1l-7.2-41.8l30.4-29.6c0.9-0.8,1.2-2.1,0.8-3.2C290.1,46.9,289.1,46,287.9,45.9z"/>
		<path d="M445.9,45.9l-42-6.1l-18.8-38c-0.5-1.1-1.6-1.7-2.8-1.7c-1.2,0-2.3,0.7-2.8,1.7l-18.8,38l-41.9,6.1
			c-1.2,0.2-2.2,1-2.6,2.2s-0.1,2.4,0.8,3.2l30.4,29.6l-7.2,41.8c-0.2,1.2,0.3,2.4,1.3,3.1s2.3,0.8,3.3,0.2l37.5-19.7l37.5,19.7
			c1.1,0.6,2.4,0.5,3.3-0.3c1-0.7,1.5-1.9,1.3-3.1l-7.2-41.8l30.4-29.6c0.9-0.8,1.2-2.1,0.8-3.2C448.1,46.9,447.1,46,445.9,45.9z"/>
		<path d="M603.9,45.9l-42-6.1l-18.8-38c-0.5-1.1-1.6-1.7-2.8-1.7s-2.3,0.7-2.8,1.7l-18.8,38l-41.9,6.1c-1.2,0.2-2.2,1-2.6,2.2
			s-0.1,2.4,0.8,3.2l30.4,29.6l-7.2,41.8c-0.2,1.2,0.3,2.4,1.3,3.1s2.3,0.8,3.3,0.2l37.5-19.7l37.5,19.7c1.1,0.6,2.4,0.5,3.3-0.3
			s1.5-1.9,1.3-3.1l-7.2-41.8l30.4-29.6c0.9-0.8,1.2-2.1,0.8-3.2C606.1,46.9,605.1,46,603.9,45.9z"/>
		<path d="M761.9,45.9l-42-6.1l-18.8-38c-0.5-1.1-1.6-1.7-2.8-1.7s-2.3,0.7-2.8,1.7l-18.8,38l-41.9,6.1c-1.2,0.2-2.2,1-2.6,2.2
			s-0.1,2.4,0.8,3.2l30.4,29.6l-7.2,41.8c-0.2,1.2,0.3,2.4,1.3,3.1s2.3,0.8,3.3,0.2l37.5-19.7l37.5,19.7c1.1,0.6,2.4,0.5,3.3-0.3
			s1.5-1.9,1.3-3.1l-7.2-41.8l30.4-29.6c0.9-0.8,1.2-2.1,0.8-3.2C764.1,46.9,763.1,46,761.9,45.9z"/>
	</g>
</g>
</svg>
