<?xml version="1.0" encoding="utf-8"?>
<!-- Generator: Adobe Illustrator 23.0.6, SVG Export Plug-In . SVG Version: 6.00 Build 0)  -->
<svg version="1.1" id="Layer_1" xmlns="http://www.w3.org/2000/svg" xmlns:xlink="http://www.w3.org/1999/xlink" x="0px" y="0px"
	 viewBox="0 0 486.6 486.3" style="enable-background:new 0 0 486.6 486.3;" xml:space="preserve">
<path d="M383.6,365.9c36-40.2,55.9-92.3,55.9-146.2C439.5,98.6,340.9,0,219.8,0C98.6-0.1,0,98.4,0,219.6s98.6,219.7,219.7,219.7
	c54,0.1,106.1-19.8,146.2-55.9l99.3,99.3c2.3,2.4,5.5,3.7,8.9,3.6c3.3,0,6.5-1.3,8.9-3.6c2.3-2.3,3.6-5.5,3.6-8.8s-1.3-6.5-3.6-8.8
	L383.6,365.9z M25,219.6c0-107.4,87.3-194.7,194.7-194.7c107.4,0,194.7,87.3,194.7,194.7s-87.3,194.7-194.7,194.7
	C112.3,414.4,25,327,25,219.6z"/>
</svg>
