<?xml version="1.0" encoding="utf-8"?>
<!-- Generator: Adobe Illustrator 23.1.1, SVG Export Plug-In . SVG Version: 6.00 Build 0)  -->
<svg version="1.1" id="Layer_1" xmlns="http://www.w3.org/2000/svg" xmlns:xlink="http://www.w3.org/1999/xlink" x="0px" y="0px"
	 viewBox="0 0 130 200" style="enable-background:new 0 0 130 200;" xml:space="preserve">
<style type="text/css">
	.st0{fill:#EBEBEB;}
	.st1{fill:none;stroke:#FFFFFF;stroke-width:3;stroke-miterlimit:10;}
	.st2{fill:#FFFFFF;}
	.st3{fill:#333333;}
</style>
<g>
	<rect x="0" class="st0" width="130" height="200"/>
</g>
<line class="st1" x1="0" y1="0.5" x2="130" y2="200.5"/>
<rect x="18.5" y="80" class="st2" width="92" height="34.5"/>
<g>
	<path class="st3" d="M30.2,87.3c-0.2-0.7-0.5-1.3-0.9-1.6c-0.5-0.3-1.1-0.5-1.8-0.5c-0.5,0-1,0.1-1.3,0.3c-0.4,0.2-0.7,0.5-0.9,0.8
		c-0.2,0.4-0.4,0.8-0.5,1.2c-0.1,0.5-0.2,0.9-0.2,1.5c0,0.5,0,1,0.1,1.4s0.3,0.9,0.5,1.2c0.2,0.4,0.5,0.7,0.9,0.9
		c0.4,0.2,0.9,0.3,1.5,0.3c0.4,0,0.7-0.1,1-0.2c0.3-0.1,0.6-0.3,0.8-0.5c0.2-0.2,0.4-0.5,0.6-0.8c0.2-0.3,0.3-0.6,0.4-0.9h0.9
		c-0.1,0.4-0.2,0.8-0.4,1.2c-0.2,0.4-0.4,0.7-0.7,1c-0.3,0.3-0.7,0.5-1.1,0.7c-0.4,0.2-0.9,0.2-1.5,0.2c-0.7,0-1.2-0.1-1.7-0.4
		c-0.5-0.2-0.9-0.6-1.2-1c-0.3-0.4-0.5-0.9-0.7-1.4c-0.1-0.5-0.2-1.1-0.2-1.7c0-0.8,0.1-1.5,0.3-2.1c0.2-0.6,0.5-1,0.8-1.4
		s0.8-0.6,1.3-0.8c0.5-0.2,1-0.2,1.6-0.2c0.4,0,0.8,0.1,1.2,0.2c0.4,0.1,0.7,0.3,1,0.5s0.5,0.5,0.7,0.9c0.2,0.3,0.3,0.7,0.4,1.2
		H30.2z"/>
	<path class="st3" d="M35.1,93.6c-0.4,0-0.8-0.1-1.1-0.2c-0.3-0.1-0.7-0.3-0.9-0.6c-0.3-0.3-0.5-0.6-0.6-1c-0.2-0.4-0.2-0.9-0.2-1.4
		c0-0.5,0.1-0.9,0.2-1.3c0.1-0.4,0.3-0.7,0.5-1c0.2-0.3,0.5-0.5,0.9-0.7c0.4-0.2,0.8-0.3,1.3-0.3c0.5,0,0.9,0.1,1.3,0.3
		s0.7,0.4,0.9,0.7c0.2,0.3,0.4,0.6,0.5,1c0.1,0.4,0.2,0.8,0.2,1.3c0,0.5-0.1,0.9-0.2,1.3c-0.1,0.4-0.3,0.7-0.6,1
		c-0.3,0.3-0.6,0.5-0.9,0.7C35.9,93.5,35.5,93.6,35.1,93.6z M37.2,90.3c0-0.4,0-0.7-0.1-1c-0.1-0.3-0.2-0.6-0.4-0.8
		c-0.2-0.2-0.4-0.4-0.6-0.6c-0.3-0.1-0.6-0.2-1-0.2c-0.4,0-0.7,0.1-1,0.2c-0.3,0.1-0.5,0.3-0.7,0.6s-0.3,0.5-0.4,0.8
		C33,89.7,33,90,33,90.3c0,0.4,0,0.7,0.1,1.1c0.1,0.3,0.2,0.6,0.4,0.8c0.2,0.2,0.4,0.4,0.7,0.5c0.3,0.1,0.6,0.2,0.9,0.2
		c0.4,0,0.7-0.1,1-0.2c0.3-0.1,0.5-0.3,0.7-0.6s0.3-0.5,0.4-0.8C37.1,91,37.2,90.7,37.2,90.3z"/>
	<path class="st3" d="M43.5,87.2h0.7v6.2h-0.7v-0.9c-0.1,0.1-0.2,0.2-0.3,0.3c-0.1,0.1-0.3,0.2-0.4,0.3c-0.2,0.1-0.3,0.2-0.5,0.3
		c-0.2,0.1-0.4,0.1-0.7,0.1c-0.4,0-0.8-0.1-1-0.2c-0.3-0.1-0.5-0.3-0.7-0.5c-0.2-0.2-0.3-0.5-0.4-0.7c-0.1-0.3-0.1-0.6-0.1-0.9v-4.1
		H40v4.1c0,0.5,0.1,0.9,0.4,1.2c0.2,0.3,0.7,0.4,1.2,0.4c0.3,0,0.6-0.1,0.8-0.2c0.2-0.1,0.4-0.3,0.6-0.5c0.2-0.2,0.3-0.5,0.4-0.7
		s0.1-0.6,0.1-0.9V87.2z"/>
	<path class="st3" d="M45.3,87.2h0.8l2,5.3l2-5.3h0.8l-2.4,6.2h-0.8L45.3,87.2z"/>
	<path class="st3" d="M52.4,90.5c0,0.3,0,0.7,0.1,1c0.1,0.3,0.2,0.6,0.4,0.8c0.2,0.2,0.4,0.4,0.7,0.5c0.3,0.1,0.6,0.2,0.9,0.2
		c0.5,0,0.9-0.1,1.2-0.4s0.6-0.6,0.7-1.1h0.8c-0.1,0.3-0.2,0.6-0.3,0.8s-0.3,0.5-0.5,0.7c-0.2,0.2-0.5,0.3-0.8,0.4
		c-0.3,0.1-0.6,0.2-1,0.2c-0.5,0-0.9-0.1-1.3-0.3c-0.4-0.2-0.7-0.4-0.9-0.7c-0.2-0.3-0.4-0.6-0.5-1c-0.1-0.4-0.2-0.8-0.2-1.3
		s0.1-0.9,0.2-1.3c0.1-0.4,0.3-0.8,0.6-1c0.2-0.3,0.5-0.5,0.9-0.7s0.8-0.3,1.2-0.3c0.9,0,1.5,0.3,2,0.9c0.5,0.6,0.7,1.4,0.7,2.6
		H52.4z M56.4,89.9c0-0.3,0-0.6-0.1-0.9c-0.1-0.3-0.2-0.5-0.4-0.7c-0.2-0.2-0.4-0.4-0.6-0.5c-0.2-0.1-0.5-0.2-0.9-0.2
		s-0.6,0.1-0.8,0.2s-0.5,0.3-0.6,0.5c-0.2,0.2-0.3,0.4-0.4,0.7c-0.1,0.3-0.2,0.5-0.2,0.8H56.4z"/>
	<path class="st3" d="M59.4,93.4h-0.7v-6.2h0.7v1.2h0c0.2-0.5,0.5-0.8,0.8-1s0.7-0.3,1.3-0.3v0.8c-0.4,0-0.7,0.1-1,0.2
		c-0.3,0.1-0.5,0.3-0.6,0.6c-0.2,0.2-0.3,0.5-0.3,0.8c-0.1,0.3-0.1,0.6-0.1,1V93.4z"/>
	<path class="st3" d="M64.8,93.5c-0.1,0-0.2,0-0.3,0.1c-0.1,0-0.3,0.1-0.5,0.1c-0.4,0-0.6-0.1-0.8-0.3c-0.2-0.2-0.3-0.5-0.3-1v-4.5
		H62v-0.6h0.9v-1.7h0.7v1.7h1.2v0.6h-1.2v4.3c0,0.2,0,0.3,0,0.4c0,0.1,0,0.2,0.1,0.3c0,0.1,0.1,0.1,0.2,0.2c0.1,0,0.2,0,0.4,0
		c0.1,0,0.2,0,0.3,0s0.2,0,0.3-0.1V93.5z"/>
	<path class="st3" d="M70.2,87.2h0.7v6.2h-0.7v-0.9c-0.1,0.1-0.2,0.2-0.3,0.3c-0.1,0.1-0.3,0.2-0.4,0.3c-0.2,0.1-0.3,0.2-0.5,0.3
		c-0.2,0.1-0.4,0.1-0.7,0.1c-0.4,0-0.8-0.1-1-0.2c-0.3-0.1-0.5-0.3-0.7-0.5c-0.2-0.2-0.3-0.5-0.4-0.7C66,92,66,91.7,66,91.3v-4.1
		h0.7v4.1c0,0.5,0.1,0.9,0.4,1.2c0.2,0.3,0.7,0.4,1.2,0.4c0.3,0,0.6-0.1,0.8-0.2c0.2-0.1,0.4-0.3,0.6-0.5c0.2-0.2,0.3-0.5,0.4-0.7
		s0.1-0.6,0.1-0.9V87.2z"/>
	<path class="st3" d="M73.4,93.4h-0.7v-6.2h0.7v1.2h0c0.2-0.5,0.5-0.8,0.8-1s0.7-0.3,1.3-0.3v0.8c-0.4,0-0.7,0.1-1,0.2
		c-0.3,0.1-0.5,0.3-0.6,0.6c-0.2,0.2-0.3,0.5-0.3,0.8c-0.1,0.3-0.1,0.6-0.1,1V93.4z"/>
	<path class="st3" d="M77.1,90.5c0,0.3,0,0.7,0.1,1c0.1,0.3,0.2,0.6,0.4,0.8c0.2,0.2,0.4,0.4,0.7,0.5c0.3,0.1,0.6,0.2,0.9,0.2
		c0.5,0,0.9-0.1,1.2-0.4s0.6-0.6,0.7-1.1h0.8c-0.1,0.3-0.2,0.6-0.3,0.8S81.2,92.8,81,93c-0.2,0.2-0.5,0.3-0.8,0.4
		c-0.3,0.1-0.6,0.2-1,0.2c-0.5,0-0.9-0.1-1.3-0.3c-0.4-0.2-0.7-0.4-0.9-0.7c-0.2-0.3-0.4-0.6-0.5-1c-0.1-0.4-0.2-0.8-0.2-1.3
		s0.1-0.9,0.2-1.3c0.1-0.4,0.3-0.8,0.6-1c0.2-0.3,0.5-0.5,0.9-0.7s0.8-0.3,1.2-0.3c0.9,0,1.5,0.3,2,0.9c0.5,0.6,0.7,1.4,0.7,2.6
		H77.1z M81.1,89.9c0-0.3,0-0.6-0.1-0.9c-0.1-0.3-0.2-0.5-0.4-0.7c-0.2-0.2-0.4-0.4-0.6-0.5c-0.2-0.1-0.5-0.2-0.9-0.2
		s-0.6,0.1-0.8,0.2s-0.5,0.3-0.6,0.5c-0.2,0.2-0.3,0.4-0.4,0.7c-0.1,0.3-0.2,0.5-0.2,0.8H81.1z"/>
	<path class="st3" d="M87.3,93.4h-0.7v-6.2h0.7v0.9c0.3-0.3,0.6-0.6,0.9-0.7c0.3-0.2,0.7-0.3,1.1-0.3c0.4,0,0.7,0.1,1.1,0.2
		c0.3,0.1,0.6,0.4,0.8,0.7c0.2,0.2,0.2,0.5,0.3,0.7c0,0.2,0,0.5,0,0.7v4.1h-0.7v-4.1c0-0.6-0.1-1-0.4-1.3c-0.2-0.3-0.7-0.4-1.2-0.4
		c-0.2,0-0.4,0-0.6,0.1c-0.2,0.1-0.4,0.2-0.5,0.3c-0.1,0.1-0.3,0.2-0.4,0.4c-0.1,0.1-0.2,0.3-0.2,0.5c-0.1,0.2-0.1,0.4-0.1,0.6
		c0,0.2,0,0.4,0,0.6V93.4z"/>
	<path class="st3" d="M95.8,93.6c-0.4,0-0.8-0.1-1.1-0.2c-0.3-0.1-0.7-0.3-0.9-0.6c-0.3-0.3-0.5-0.6-0.6-1c-0.2-0.4-0.2-0.9-0.2-1.4
		c0-0.5,0.1-0.9,0.2-1.3c0.1-0.4,0.3-0.7,0.5-1c0.2-0.3,0.5-0.5,0.9-0.7c0.4-0.2,0.8-0.3,1.3-0.3c0.5,0,0.9,0.1,1.3,0.3
		s0.7,0.4,0.9,0.7c0.2,0.3,0.4,0.6,0.5,1c0.1,0.4,0.2,0.8,0.2,1.3c0,0.5-0.1,0.9-0.2,1.3c-0.1,0.4-0.3,0.7-0.6,1
		c-0.3,0.3-0.6,0.5-0.9,0.7C96.6,93.5,96.2,93.6,95.8,93.6z M97.9,90.3c0-0.4,0-0.7-0.1-1c-0.1-0.3-0.2-0.6-0.4-0.8
		c-0.2-0.2-0.4-0.4-0.6-0.6c-0.3-0.1-0.6-0.2-1-0.2c-0.4,0-0.7,0.1-1,0.2c-0.3,0.1-0.5,0.3-0.7,0.6s-0.3,0.5-0.4,0.8
		c-0.1,0.3-0.1,0.6-0.1,1c0,0.4,0,0.7,0.1,1.1c0.1,0.3,0.2,0.6,0.4,0.8c0.2,0.2,0.4,0.4,0.7,0.5c0.3,0.1,0.6,0.2,0.9,0.2
		c0.4,0,0.7-0.1,1-0.2c0.3-0.1,0.5-0.3,0.7-0.6s0.3-0.5,0.4-0.8C97.8,91,97.9,90.7,97.9,90.3z"/>
	<path class="st3" d="M100.7,93.4H100v-6.2h0.7v0.9c0.3-0.3,0.6-0.6,0.9-0.7c0.3-0.2,0.7-0.3,1.1-0.3c0.4,0,0.7,0.1,1.1,0.2
		c0.3,0.1,0.6,0.4,0.8,0.7c0.2,0.2,0.2,0.5,0.3,0.7c0,0.2,0,0.5,0,0.7v4.1h-0.7v-4.1c0-0.6-0.1-1-0.4-1.3c-0.2-0.3-0.7-0.4-1.2-0.4
		c-0.2,0-0.4,0-0.6,0.1c-0.2,0.1-0.4,0.2-0.5,0.3c-0.1,0.1-0.3,0.2-0.4,0.4c-0.1,0.1-0.2,0.3-0.2,0.5c-0.1,0.2-0.1,0.4-0.1,0.6
		c0,0.2,0,0.4,0,0.6V93.4z"/>
	<path class="st3" d="M42.1,99.2h0.7v8.6h-0.7v-1.1h0c-0.1,0.2-0.2,0.4-0.4,0.5s-0.3,0.3-0.5,0.4c-0.2,0.1-0.4,0.2-0.6,0.2
		s-0.4,0.1-0.6,0.1c-0.5,0-0.9-0.1-1.3-0.3s-0.6-0.4-0.9-0.7c-0.2-0.3-0.4-0.6-0.5-1c-0.1-0.4-0.2-0.8-0.2-1.3
		c0-0.4,0.1-0.8,0.2-1.2c0.1-0.4,0.3-0.8,0.5-1c0.2-0.3,0.5-0.5,0.9-0.7c0.3-0.2,0.8-0.3,1.2-0.3c0.4,0,0.9,0.1,1.3,0.3
		s0.7,0.5,1,0.9V99.2z M42.1,104.7c0-0.4,0-0.7-0.1-1c-0.1-0.3-0.2-0.6-0.4-0.8s-0.4-0.4-0.7-0.6c-0.3-0.1-0.6-0.2-0.9-0.2
		c-0.4,0-0.7,0.1-1,0.2c-0.3,0.1-0.5,0.3-0.7,0.6s-0.3,0.6-0.4,0.9c-0.1,0.3-0.1,0.7-0.1,1.1c0,0.4,0.1,0.7,0.2,1s0.3,0.6,0.4,0.8
		c0.2,0.2,0.4,0.4,0.7,0.5c0.3,0.1,0.5,0.2,0.8,0.2c0.3,0,0.6-0.1,0.9-0.2c0.3-0.1,0.5-0.3,0.7-0.6c0.2-0.2,0.3-0.5,0.4-0.8
		S42.1,105.1,42.1,104.7z"/>
	<path class="st3" d="M44.7,100.3v-1.1h0.8v1.1H44.7z M44.7,107.8v-6.2h0.7v6.2H44.7z"/>
	<path class="st3" d="M47.7,105.9c0.1,0.5,0.3,0.9,0.6,1.1c0.3,0.2,0.7,0.3,1.3,0.3c0.3,0,0.5,0,0.7-0.1c0.2-0.1,0.3-0.1,0.5-0.3
		s0.2-0.2,0.3-0.4c0.1-0.1,0.1-0.3,0.1-0.4c0-0.3-0.1-0.5-0.3-0.7c-0.2-0.1-0.4-0.3-0.7-0.3s-0.6-0.2-1-0.2c-0.3-0.1-0.7-0.2-1-0.3
		c-0.3-0.1-0.5-0.3-0.7-0.5c-0.2-0.2-0.3-0.5-0.3-0.9c0-0.5,0.2-0.9,0.6-1.3c0.4-0.3,0.9-0.5,1.6-0.5c0.7,0,1.2,0.1,1.6,0.5
		c0.4,0.3,0.7,0.8,0.8,1.5H51c-0.1-0.5-0.2-0.8-0.5-1c-0.3-0.2-0.7-0.3-1.1-0.3s-0.8,0.1-1,0.3c-0.2,0.2-0.4,0.5-0.4,0.8
		c0,0.3,0.1,0.5,0.3,0.6c0.2,0.1,0.4,0.3,0.7,0.4c0.3,0.1,0.6,0.2,1,0.2c0.3,0.1,0.7,0.2,1,0.3s0.5,0.3,0.7,0.5
		c0.2,0.2,0.3,0.5,0.3,0.9c0,0.3-0.1,0.6-0.2,0.8c-0.1,0.2-0.3,0.4-0.5,0.6c-0.2,0.2-0.5,0.3-0.8,0.3c-0.3,0.1-0.6,0.1-1,0.1
		c-0.4,0-0.7-0.1-1-0.2c-0.3-0.1-0.5-0.3-0.7-0.5c-0.2-0.2-0.4-0.4-0.5-0.7c-0.1-0.3-0.2-0.5-0.2-0.8H47.7z"/>
	<path class="st3" d="M54.1,110.3h-0.7v-8.7h0.7v1.1h0c0.1-0.2,0.2-0.4,0.4-0.5c0.2-0.2,0.3-0.3,0.5-0.4c0.2-0.1,0.4-0.2,0.6-0.2
		c0.2-0.1,0.4-0.1,0.6-0.1c0.5,0,0.9,0.1,1.3,0.3c0.4,0.2,0.6,0.4,0.9,0.7c0.2,0.3,0.4,0.6,0.5,1c0.1,0.4,0.2,0.8,0.2,1.3
		c0,0.4-0.1,0.8-0.2,1.2c-0.1,0.4-0.3,0.8-0.5,1s-0.5,0.5-0.9,0.7c-0.3,0.2-0.8,0.3-1.2,0.3c-0.4,0-0.9-0.1-1.3-0.3
		c-0.4-0.2-0.7-0.5-1-0.9V110.3z M54.1,104.8c0,0.4,0,0.7,0.1,1c0.1,0.3,0.2,0.6,0.4,0.8c0.2,0.2,0.4,0.4,0.7,0.6
		c0.3,0.1,0.6,0.2,0.9,0.2c0.4,0,0.7-0.1,1-0.2c0.3-0.1,0.5-0.3,0.7-0.6c0.2-0.3,0.3-0.6,0.4-0.9s0.1-0.7,0.1-1.1
		c0-0.4-0.1-0.7-0.2-1s-0.3-0.6-0.5-0.8c-0.2-0.2-0.4-0.4-0.7-0.5c-0.3-0.1-0.5-0.2-0.8-0.2c-0.3,0-0.6,0.1-0.9,0.2
		c-0.3,0.1-0.5,0.3-0.7,0.6c-0.2,0.2-0.3,0.5-0.4,0.8C54.1,104,54.1,104.4,54.1,104.8z"/>
	<path class="st3" d="M63.1,108c-0.4,0-0.8-0.1-1.1-0.2c-0.3-0.1-0.7-0.3-0.9-0.6c-0.3-0.3-0.5-0.6-0.6-1c-0.2-0.4-0.2-0.9-0.2-1.4
		c0-0.5,0.1-0.9,0.2-1.3c0.1-0.4,0.3-0.7,0.5-1c0.2-0.3,0.5-0.5,0.9-0.7c0.4-0.2,0.8-0.3,1.3-0.3c0.5,0,0.9,0.1,1.3,0.3
		s0.7,0.4,0.9,0.7c0.2,0.3,0.4,0.6,0.5,1c0.1,0.4,0.2,0.8,0.2,1.3c0,0.5-0.1,0.9-0.2,1.3c-0.1,0.4-0.3,0.7-0.6,1
		c-0.3,0.3-0.6,0.5-0.9,0.7C63.9,107.9,63.5,108,63.1,108z M65.2,104.7c0-0.4,0-0.7-0.1-1c-0.1-0.3-0.2-0.6-0.4-0.8
		c-0.2-0.2-0.4-0.4-0.6-0.6c-0.3-0.1-0.6-0.2-1-0.2c-0.4,0-0.7,0.1-1,0.2c-0.3,0.1-0.5,0.3-0.7,0.6s-0.3,0.5-0.4,0.8
		c-0.1,0.3-0.1,0.6-0.1,1c0,0.4,0,0.7,0.1,1.1c0.1,0.3,0.2,0.6,0.4,0.8c0.2,0.2,0.4,0.4,0.7,0.5c0.3,0.1,0.6,0.2,0.9,0.2
		c0.4,0,0.7-0.1,1-0.2c0.3-0.1,0.5-0.3,0.7-0.6s0.3-0.5,0.4-0.8C65.2,105.4,65.2,105.1,65.2,104.7z"/>
	<path class="st3" d="M68,107.8h-0.7v-6.2H68v0.9c0.3-0.3,0.6-0.6,0.9-0.7c0.3-0.2,0.7-0.3,1.1-0.3c0.4,0,0.7,0.1,1.1,0.2
		c0.3,0.1,0.6,0.4,0.8,0.7c0.2,0.2,0.2,0.5,0.3,0.7c0,0.2,0,0.5,0,0.7v4.1h-0.7v-4.1c0-0.6-0.1-1-0.4-1.3c-0.2-0.3-0.7-0.4-1.2-0.4
		c-0.2,0-0.4,0-0.6,0.1c-0.2,0.1-0.4,0.2-0.5,0.3c-0.1,0.1-0.3,0.2-0.4,0.4c-0.1,0.1-0.2,0.3-0.2,0.5c-0.1,0.2-0.1,0.4-0.1,0.6
		c0,0.2,0,0.4,0,0.6V107.8z"/>
	<path class="st3" d="M74,100.3v-1.1h0.8v1.1H74z M74.1,107.8v-6.2h0.7v6.2H74.1z"/>
	<path class="st3" d="M77.4,107.8h-0.7v-8.6h0.7v3.4c0.2-0.4,0.5-0.7,1-0.9c0.4-0.2,0.8-0.3,1.3-0.3c0.5,0,0.9,0.1,1.2,0.3
		c0.3,0.2,0.6,0.4,0.9,0.7c0.2,0.3,0.4,0.6,0.5,1c0.1,0.4,0.2,0.8,0.2,1.2c0,0.5-0.1,0.9-0.2,1.3c-0.1,0.4-0.3,0.7-0.5,1
		c-0.2,0.3-0.5,0.5-0.9,0.7c-0.4,0.2-0.8,0.3-1.3,0.3c-0.2,0-0.4,0-0.6-0.1c-0.2-0.1-0.4-0.1-0.6-0.2c-0.2-0.1-0.4-0.2-0.5-0.4
		c-0.2-0.2-0.3-0.3-0.4-0.5h0V107.8z M77.4,104.7c0,0.4,0,0.7,0.1,1c0.1,0.3,0.2,0.6,0.4,0.8c0.2,0.2,0.4,0.4,0.7,0.6
		c0.3,0.1,0.6,0.2,0.9,0.2c0.3,0,0.6-0.1,0.8-0.2c0.3-0.1,0.5-0.3,0.7-0.5c0.2-0.2,0.3-0.5,0.5-0.8s0.2-0.6,0.2-1
		c0-0.4,0-0.8-0.1-1.1s-0.2-0.6-0.4-0.9c-0.2-0.3-0.4-0.5-0.7-0.6c-0.3-0.1-0.6-0.2-1-0.2c-0.3,0-0.6,0.1-0.9,0.2
		c-0.3,0.1-0.5,0.3-0.7,0.6c-0.2,0.2-0.3,0.5-0.4,0.8C77.5,104,77.4,104.4,77.4,104.7z"/>
	<path class="st3" d="M84.1,107.8v-8.6h0.7v8.6H84.1z"/>
	<path class="st3" d="M87.1,104.9c0,0.3,0,0.7,0.1,1c0.1,0.3,0.2,0.6,0.4,0.8c0.2,0.2,0.4,0.4,0.7,0.5c0.3,0.1,0.6,0.2,0.9,0.2
		c0.5,0,0.9-0.1,1.2-0.4s0.6-0.6,0.7-1.1h0.8c-0.1,0.3-0.2,0.6-0.3,0.8s-0.3,0.5-0.5,0.7c-0.2,0.2-0.5,0.3-0.8,0.4
		c-0.3,0.1-0.6,0.2-1,0.2c-0.5,0-0.9-0.1-1.3-0.3c-0.4-0.2-0.7-0.4-0.9-0.7c-0.2-0.3-0.4-0.6-0.5-1c-0.1-0.4-0.2-0.8-0.2-1.3
		s0.1-0.9,0.2-1.3c0.1-0.4,0.3-0.8,0.6-1c0.2-0.3,0.5-0.5,0.9-0.7s0.8-0.3,1.2-0.3c0.9,0,1.5,0.3,2,0.9c0.5,0.6,0.7,1.4,0.7,2.6
		H87.1z M91.1,104.3c0-0.3,0-0.6-0.1-0.9c-0.1-0.3-0.2-0.5-0.4-0.7c-0.2-0.2-0.4-0.4-0.6-0.5c-0.2-0.1-0.5-0.2-0.9-0.2
		s-0.6,0.1-0.8,0.2s-0.5,0.3-0.6,0.5c-0.2,0.2-0.3,0.4-0.4,0.7c-0.1,0.3-0.2,0.5-0.2,0.8H91.1z"/>
</g>
</svg>
