<?xml version="1.0" encoding="utf-8"?>
<!-- Generator: Adobe Illustrator 23.0.6, SVG Export Plug-In . SVG Version: 6.00 Build 0)  -->
<svg version="1.1" id="Layer_1" xmlns="http://www.w3.org/2000/svg" xmlns:xlink="http://www.w3.org/1999/xlink" x="0px" y="0px"
	 viewBox="0 0 210.5 62.3" style="enable-background:new 0 0 210.5 62.3;" xml:space="preserve">
<style type="text/css">
	.st0{fill:none;stroke:#000000;stroke-width:6;stroke-linecap:square;stroke-miterlimit:10;}
	.st1{fill:none;stroke:#84240C;stroke-width:1;stroke-linecap:square;stroke-miterlimit:10;}
	.st2{fill:none;stroke:#84240C;stroke-width:6;stroke-linecap:square;stroke-miterlimit:10;}
</style>
<g>
	<g>
		<path d="M21.6,11.8c0.5,0.1,1,0.2,1.5,0.2s1-0.1,1.5-0.2c0.5-0.1,1-0.3,1.5-0.5v6.5H32v0.7h-5.9v16.8c0,0.5,0,1,0.1,1.4
			c0.1,0.4,0.2,0.8,0.4,1.2c0.2,0.3,0.5,0.6,0.8,0.8c0.4,0.2,0.8,0.3,1.4,0.3c0.6,0,1.2-0.1,1.6-0.4c0.5-0.3,0.8-0.6,1.2-1
			c0.3-0.4,0.6-0.9,0.8-1.4c0.2-0.5,0.4-1,0.5-1.5l0.8,0.2c-0.2,1.1-0.5,2-1,2.7c-0.5,0.7-1,1.2-1.6,1.6c-0.6,0.4-1.3,0.6-2,0.7
			c-0.7,0.1-1.4,0.2-2,0.2c-1.7,0-3.1-0.2-4-0.6c-0.9-0.4-1.6-0.9-2.1-1.5c-0.4-0.6-0.7-1.2-0.8-2c-0.1-0.7-0.1-1.3-0.1-1.9V18.5
			h-3.3v-0.7H20v-6.5C20.5,11.5,21.1,11.7,21.6,11.8z"/>
		<path d="M44.8,17.8V22h0.1c0.6-1.3,1.4-2.4,2.4-3.3c1-0.9,2.4-1.4,4-1.4c1.4,0,2.5,0.4,3.4,1.1c0.9,0.8,1.3,1.8,1.3,3.1
			c0,1-0.2,1.8-0.7,2.4c-0.5,0.6-1.3,0.8-2.3,0.8c-0.8,0-1.5-0.2-2.1-0.5C50.3,24,50,23.4,50,22.5c0-0.1,0-0.3,0-0.5
			c0-0.2,0.1-0.5,0.1-0.8c0-0.3,0.1-0.5,0.1-0.8c0-0.2,0-0.4,0-0.4c0-0.3-0.1-0.5-0.1-0.6c-0.1-0.1-0.2-0.3-0.3-0.4
			c-0.2-0.1-0.4-0.2-0.7-0.2c-0.3,0-0.8,0.2-1.2,0.5c-0.5,0.3-1,0.8-1.4,1.4c-0.4,0.6-0.8,1.3-1.1,2.2c-0.3,0.8-0.5,1.8-0.5,2.9
			v12.8h4v0.7H35.5v-0.7h3.2v-20h-3.2v-0.7H44.8z"/>
		<path d="M79,39.7c-0.9,0.1-1.7,0.2-2.5,0.2c-1.7,0-3-0.3-3.8-0.9c-0.8-0.6-1.3-1.4-1.5-2.5h-0.1c-0.5,1.3-1.3,2.2-2.2,2.7
			c-0.9,0.5-2.3,0.7-4,0.7c-0.8,0-1.6-0.1-2.5-0.2c-0.8-0.2-1.6-0.4-2.3-0.8c-0.7-0.4-1.3-0.9-1.7-1.5c-0.4-0.7-0.6-1.4-0.6-2.4
			c0-1,0.2-1.8,0.6-2.4c0.4-0.7,0.9-1.2,1.5-1.7c0.6-0.5,1.3-0.8,2.1-1.1c0.8-0.3,1.6-0.6,2.4-0.8c1.4-0.4,2.5-0.7,3.3-1
			c0.9-0.3,1.5-0.6,2-0.9c0.5-0.3,0.8-0.7,1-1.1c0.2-0.4,0.3-0.9,0.3-1.5v-3.1c0-0.9-0.2-1.7-0.6-2.4c-0.4-0.7-1.2-1.1-2.5-1.1
			c-0.8,0-1.4,0.2-2,0.5c-0.6,0.3-0.9,1-0.9,1.9c0,0.1,0,0.3,0.1,0.5c0,0.2,0.1,0.5,0.1,0.8c0,0.3,0.1,0.6,0.1,0.9s0.1,0.5,0.1,0.5
			c0,0.5-0.1,0.9-0.4,1.2c-0.2,0.3-0.5,0.5-0.8,0.6c-0.3,0.1-0.6,0.2-1,0.2c-0.3,0-0.6,0-0.9,0c-0.3,0-0.7,0-1-0.1
			c-0.4,0-0.7-0.2-0.9-0.3c-0.3-0.2-0.5-0.4-0.7-0.8c-0.2-0.3-0.3-0.8-0.3-1.3c0-0.9,0.2-1.6,0.7-2.3c0.5-0.7,1.1-1.2,1.9-1.7
			c0.8-0.4,1.7-0.8,2.7-1c1-0.2,2.1-0.4,3.2-0.4c1.3,0,2.5,0.1,3.6,0.3c1.1,0.2,2.1,0.6,2.9,1.1c0.8,0.5,1.5,1.3,2,2.2
			c0.5,0.9,0.7,2.1,0.7,3.5v12.4c0,0.6,0.1,1.2,0.3,1.7c0.2,0.5,0.6,0.7,1.4,0.7c0.4,0,0.8-0.1,1.1-0.2c0.3-0.2,0.6-0.4,0.8-0.7
			l0.5,0.5C80.6,39.2,79.9,39.6,79,39.7z M70.8,26.8c-0.1,0.2-0.2,0.4-0.4,0.6c-0.2,0.2-0.5,0.4-1,0.6c-0.6,0.3-1.3,0.6-1.9,0.9
			c-0.6,0.3-1.2,0.6-1.7,1.1c-0.5,0.4-0.9,1-1.2,1.6c-0.3,0.6-0.5,1.5-0.5,2.5c0,0.4,0,0.9,0.1,1.4c0,0.5,0.2,1,0.4,1.5
			c0.2,0.5,0.5,0.9,1,1.3c0.4,0.3,1,0.5,1.8,0.5c0.4,0,0.9-0.1,1.3-0.3c0.4-0.2,0.8-0.5,1.1-0.9c0.3-0.4,0.6-1,0.8-1.7
			c0.2-0.7,0.3-1.5,0.3-2.5v-6.6H70.8z"/>
		<path d="M84.2,24.7c0.5-1.3,1.3-2.6,2.4-3.7c1.1-1.1,2.3-2,3.9-2.8c1.5-0.7,3.3-1.1,5.3-1.1c1.3,0,2.4,0.1,3.5,0.4
			c1,0.3,1.9,0.6,2.7,1.1c0.8,0.5,1.3,1.1,1.8,1.8c0.4,0.7,0.6,1.4,0.6,2.3c0,1.1-0.3,1.9-0.8,2.3c-0.6,0.5-1.4,0.7-2.4,0.7
			c-0.8,0-1.5-0.1-2.1-0.4c-0.6-0.3-1-0.9-1-1.8c0-0.1,0-0.4,0.1-0.7c0.1-0.3,0.2-0.7,0.2-1c0.1-0.4,0.2-0.7,0.2-1
			c0.1-0.3,0.1-0.6,0.1-0.7c0-0.7-0.3-1.2-0.9-1.6c-0.6-0.4-1.3-0.6-2.2-0.6c-1.2,0-2.1,0.3-2.9,0.9c-0.7,0.6-1.2,1.3-1.6,2.3
			c-0.4,1-0.6,2-0.8,3.3c-0.1,1.2-0.2,2.6-0.2,4c0,1.3,0,2.6,0.1,3.9c0.1,1.3,0.4,2.5,0.8,3.6c0.4,1.1,1.1,1.9,1.9,2.6
			c0.8,0.7,2,1,3.4,1c1.4,0,2.5-0.2,3.5-0.7c0.9-0.5,1.7-1.1,2.2-1.7c0.6-0.7,1-1.3,1.3-2c0.3-0.7,0.5-1.1,0.5-1.4l0.7,0.2
			c-0.2,0.6-0.4,1.3-0.8,2c-0.3,0.7-0.9,1.4-1.5,2c-0.7,0.6-1.5,1.1-2.6,1.6c-1.1,0.4-2.4,0.7-4,0.7c-0.4,0-1,0-1.8-0.1
			c-0.8-0.1-1.6-0.3-2.5-0.6c-0.9-0.3-1.8-0.7-2.8-1.2c-0.9-0.5-1.8-1.2-2.6-2c-0.8-0.9-1.4-1.9-1.9-3.1c-0.5-1.2-0.7-2.7-0.7-4.4
			C83.4,27.3,83.7,26,84.2,24.7z"/>
		<path d="M114.2,29c0,1.2,0,2.4,0.1,3.6s0.4,2.3,0.8,3.3c0.4,1,1.1,1.8,1.9,2.4c0.8,0.6,2,1,3.5,1c1.3,0,2.5-0.2,3.4-0.8
			c0.9-0.5,1.7-1.1,2.2-1.7c0.6-0.7,1-1.3,1.3-1.9c0.3-0.6,0.4-1.1,0.5-1.4l0.7,0.2c-0.2,0.6-0.5,1.3-0.9,2c-0.4,0.7-1,1.4-1.6,2
			c-0.7,0.6-1.6,1.1-2.6,1.6c-1,0.4-2.3,0.6-3.8,0.6c-1.7,0-3.4-0.3-4.9-0.8s-2.8-1.3-3.9-2.2c-1.1-1-2-2.2-2.6-3.6
			c-0.6-1.4-1-3-1-4.8c0-1.4,0.3-2.8,0.9-4.2c0.6-1.4,1.4-2.6,2.5-3.6s2.3-1.9,3.7-2.5c1.4-0.7,2.9-1,4.6-1c1.2,0,2.3,0.2,3.5,0.6
			c1.2,0.4,2.2,0.9,3.1,1.7c0.9,0.8,1.7,1.8,2.3,3c0.6,1.2,0.9,2.7,0.9,4.4h-14.7V29z M122.2,22.7c0-0.4,0-0.8,0-1.4
			c0-0.5-0.2-1.1-0.4-1.6c-0.2-0.5-0.5-1-1-1.4c-0.5-0.4-1.1-0.5-1.9-0.5c-1.1,0-2,0.3-2.6,0.8c-0.6,0.5-1.1,1.2-1.4,2
			c-0.3,0.8-0.5,1.7-0.6,2.7c-0.1,0.9-0.1,1.9-0.2,2.7h8V22.7z"/>
		<path d="M133.6,32c0.4,0.9,0.8,1.8,1.2,2.7c0.4,0.9,0.9,1.6,1.5,2.3c0.6,0.7,1.2,1.2,2,1.6c0.8,0.4,1.8,0.6,3,0.6
			c0.3,0,0.7,0,1.2,0s1-0.2,1.5-0.4c0.5-0.2,0.9-0.6,1.2-1.2c0.4-0.5,0.5-1.3,0.5-2.2c0-0.3,0-0.6-0.1-0.9c-0.1-0.3-0.3-0.6-0.5-1
			c-0.3-0.3-0.7-0.7-1.2-1c-0.5-0.3-1.2-0.6-2.1-1l-4.1-1.5c-0.5-0.2-1-0.4-1.5-0.7s-1-0.7-1.5-1.1c-0.5-0.5-0.8-1-1.1-1.7
			c-0.3-0.7-0.5-1.4-0.5-2.3c0-1,0.2-1.9,0.6-2.8c0.4-0.9,1-1.6,1.7-2.3c0.7-0.6,1.6-1.2,2.6-1.5c1-0.4,2.1-0.6,3.3-0.6
			c0.6,0,1.2,0.1,1.8,0.2c0.5,0.1,1,0.3,1.5,0.4c0.4,0.2,0.9,0.3,1.2,0.4c0.4,0.1,0.6,0.2,0.8,0.2c0.4,0,0.6-0.1,0.7-0.2
			c0.1-0.1,0.2-0.3,0.2-0.5h0.7v6.1h-0.6c-0.3-0.8-0.7-1.6-1-2.3c-0.4-0.7-0.8-1.4-1.2-1.9c-0.5-0.5-1.1-1-1.8-1.3
			c-0.7-0.3-1.6-0.5-2.6-0.5c-1.1,0-2.1,0.3-3,0.9c-0.9,0.6-1.4,1.4-1.4,2.6c0,0.2,0,0.5,0.1,0.8c0.1,0.3,0.2,0.6,0.5,0.9
			c0.2,0.3,0.6,0.6,1.1,1c0.5,0.3,1.2,0.6,2,0.9l4.2,1.5c1.8,0.6,3.2,1.5,4.1,2.5c0.9,1,1.4,2.4,1.4,4c0,1.1-0.2,2.1-0.7,3
			c-0.5,0.9-1.1,1.6-1.9,2.2c-0.8,0.6-1.7,1.1-2.7,1.4c-1,0.3-2.1,0.5-3.2,0.5c-0.6,0-1.2-0.1-1.9-0.2c-0.7-0.1-1.4-0.3-2-0.5
			c-0.7-0.2-1.2-0.3-1.8-0.5c-0.5-0.1-0.9-0.2-1.2-0.2c-0.3,0-0.5,0-0.6,0.2c-0.1,0.1-0.2,0.3-0.3,0.5h-0.7V32H133.6z"/>
	</g>
	<line class="st0" x1="3" y1="45.8" x2="66.5" y2="45.8"/>
	<line class="st1" x1="11.7" y1="50.5" x2="58.5" y2="50.5"/>
	<line class="st1" x1="90.9" y1="50.5" x2="197.5" y2="50.8"/>
	<line class="st0" x1="84.5" y1="45.8" x2="207.5" y2="45.8"/>
	<line class="st0" x1="8" y1="3.2" x2="8" y2="59.2"/>
	<line class="st0" x1="63.3" y1="45.8" x2="63.3" y2="59.3"/>
	<line class="st0" x1="86.5" y1="45.8" x2="86.5" y2="59.3"/>
	<line class="st0" x1="202.5" y1="45.8" x2="202.5" y2="59.3"/>
	<line class="st2" x1="191" y1="16.2" x2="200.5" y2="36.8"/>
	<line class="st2" x1="183" y1="10.5" x2="183" y2="37.8"/>
	<line class="st2" x1="174" y1="24.3" x2="174" y2="37.8"/>
	<line class="st0" x1="162.5" y1="3" x2="162.5" y2="43"/>
</g>
</svg>
