<?xml version="1.0" encoding="utf-8"?><svg viewBox="0 0 4765 4632" xmlns="http://www.w3.org/2000/svg" xmlns:xlink="http://www.w3.org/1999/xlink"><svg viewBox="0 0 76.18 48.454" id="amex" xmlns="http://www.w3.org/2000/svg"><path d="M0 48.454h76.18V0H0v48.454z"/><path fill="#fff" d="M.882 47.585h74.486V.882H.882v46.703z"/><path d="M17.312 26.752l1.441 1.655 1.489-1.644h1.193v.508l-1.866 2.067 1.866 2.21v-4.785h3.368c.637 0 1.571.295 1.571 1.618 0 1.856-1.229 1.878-1.902 1.878h-1.749v1.797H20.23l-1.523-1.761-1.56 1.748H12.19v-5.292h5.122v.001zm15.259 0h4.248v1.141h-2.948v.991h2.866v1.004h-2.866v1.048h2.948v1.108h-4.248v-5.292zm-4.282 5.305h-1.3v-5.293h3.379c.639 0 1.56.284 1.56 1.417 0 .64-.189 1.111-.898 1.466.614.071.851.473.851 1.323l.047 1.087h-1.265l-.035-.97c-.011-.448-.189-.897-.637-.897h-1.702v1.867zm16.688-3.242c1.599.08 1.731.879 1.731 1.729 0 .992-.815 1.524-1.666 1.524h-2.729v-1.133h2.127c.361 0 .898 0 .898-.51 0-.242-.095-.395-.479-.437a16.13 16.13 0 00-.897-.062c-1.443-.038-1.778-.755-1.778-1.629 0-.992.697-1.535 1.548-1.535h2.729v1.135h-1.997c-.454.006-.945-.054-.945.461 0 .324.243.389.549.42.106.001.815.037.909.037zm-4.868 0c1.598.08 1.731.879 1.731 1.729 0 .992-.816 1.524-1.666 1.524h-2.73v-1.133h2.127c.36 0 .899 0 .899-.51 0-.242-.095-.395-.479-.437-.172-.024-.804-.06-.897-.062-1.443-.038-1.778-.755-1.778-1.629 0-.992.697-1.535 1.547-1.535h2.73v1.135h-1.997c-.455.006-.945-.054-.945.461 0 .324.242.389.55.42.105.001.814.037.908.037zm-17.126-5.856h-1.3v-5.293h3.379c.638 0 1.561.284 1.561 1.417 0 .639-.189 1.112-.898 1.466.614.071.851.473.851 1.323l.047 1.087h-1.264l-.036-.969c-.012-.449-.188-.897-.638-.897h-1.701v1.866h-.001zm4.302 0h1.299V17.66h-1.299v5.299zm-10.594-5.293h4.247v1.14h-2.945v.993h2.864v1.005h-2.864v1.045h2.945v1.11h-4.247v-5.293zm-9.485 5.293h2.617v-3.928l1.736 3.928h1.182l1.777-3.863v3.863h1.299v-5.293h-2.073l-1.595 3.551-1.589-3.551H8.522v5.098l-2.269-5.098H4.535l-2.316 5.293H3.59l.507-1.181H6.69l.516 1.181zm28.856-1.178H33.47l-.508 1.181h-1.714c-1.441 0-2.08-1.208-2.049-2.673.044-2.174 1.329-2.626 1.92-2.626h1.696v1.152h-.803c-.863 0-1.536.09-1.536 1.33v.384c.006.933.495 1.154.808 1.219.077.018.219.025.271.021l.562-.003 1.79-4.1h1.72l2.215 4.968v-4.971h1.919l2.192 3.665v-3.665h1.299v5.299H41.48l-2.339-3.876v3.876h-2.564l-.515-1.181z" fill="#00acec"/><path d="M46.472 25.938V2.378H2.331v18.218l1.655-3.732h2.812l.922 2.22v-2.22h3.425l1.04 2.198 1.016-2.198h12.075c.472 0 1.11.166 1.395.685v-.685h2.528v.803c.331-.448.827-.803 1.795-.803h5.152l.945 2.149v-2.149h3.049l1.086 1.867v-1.867h2.788v6.898h-3l-1.253-2.031v2.031h-3.804l-.614-1.347h-1.206l-.567 1.347h-2.387c-.52-.046-1.724-.26-1.984-1.062v1.062h-4.584v-1.511c0-.214-.189-.473-.449-.473h-.496v1.984h-9.76v-1.559l-.732 1.559h-1.985l-.756-1.583v1.583H6.538l-.52-1.228H4.765l-.543 1.228H2.331v22.283h44.141V32.388c-.236.261-.614.473-1.181.473h-3.688v-.52c-.283.308-.684.52-1.323.52H29.884V31.42c-.024-.19.071-.591-.449-.591h-.425v2.032h-2.765V30.52c-.284.475-.897.497-1.299.521H23.48v1.82h-3.686l-1.064-1.3-1.134 1.3h-6.261v-6.923h6.356l1.11 1.252 1.135-1.252h5.033c.354.022 1.027.188 1.276.566v-.566h4.301c.378 0 1.11.164 1.418.66v-.66h5.387v.613c.283-.377.733-.613 1.417-.613h3.45v.591c.26-.379.946-.591 1.348-.591h2.906zm12.148-.602c0 .885-3.369-.091-3.369 2.061 0 .983.795 1.428 1.689 1.428.705 0 1.246-.146 1.78-.643l.192.506h1.699c-.097-.184-.112-.424-.112-.694V25.78c0-1.13-.136-1.961-2.376-1.961-1.87 0-2.584.587-2.584 1.589h1.807c.045-.406.398-.459.66-.459.2 0 .614.045.614.387zm9.776 2.714v.633h1.688v-6.506h-1.877v2.25c-.399-.47-.814-.614-1.41-.614-1.13 0-2.006 1.02-2.006 2.593 0 1.337.723 2.412 2.15 2.412.607 0 1.013-.189 1.455-.768zm-4.092-2.608V23.84c-.081-.009-.163-.027-.245-.027-.73 0-1.192.352-1.454 1.094h-.018v-.958H60.88v4.733h1.878v-1.864c0-1.021.389-1.383 1.157-1.383l.389.007zm-11.215-.79c-.064-.676-.489-1.065-1.157-1.065-.75 0-1.202.642-1.202 1.897 0 .913.199 1.77 1.282 1.77.688 0 1.013-.477 1.095-1.101h2.05c-.188 1.68-1.391 2.69-3.106 2.69-2.15 0-3.452-1.316-3.452-3.432 0-2.105 1.427-3.415 3.244-3.415 1.987 0 3.099.985 3.271 2.655h-2.025v.001z" fill="#00acec"/><path d="M22.724 29.174h1.619c.531 0 .72-.308.72-.662 0-.26-.171-.607-.715-.607h-1.624v1.269zm-6.286-1.281h-2.947v.991h2.864v1.004h-2.864v1.048h2.995l1.43-1.597-1.265-1.441-.213-.005zm11.851 1.211h1.619c.531 0 .72-.237.72-.592 0-.26-.171-.607-.715-.607h-1.624v1.199zm-5.306-9.098h1.619c.532 0 .72-.236.72-.591 0-.259-.171-.609-.715-.609h-1.624v1.2zm-16.795.633H4.606l.776-1.851.806 1.851zm28.564-1.848l-.774 1.85h1.588l-.814-1.85z" fill="#fff"/><path fill="#3b4095" d="M73.58 30.133l-15.901 15.9h2.258L73.58 32.391v-2.258z"/><path fill="#00acec" d="M73.58 34.582L62.13 46.033h2.256l9.194-9.192v-2.259z"/><path fill="#6cb35e" d="M73.58 39.032l-7.003 7.001h2.26l4.743-4.744v-2.257z"/><path d="M48.087 43.529a2.513 2.513 0 012.52-2.508 2.506 2.506 0 012.508 2.508 2.51 2.51 0 01-2.508 2.521 2.517 2.517 0 01-2.52-2.521z" fill="#00acec"/><path d="M52.812 43.529a2.203 2.203 0 00-2.205-2.204 2.205 2.205 0 00-2.211 2.204 2.208 2.208 0 004.416 0z" fill="#fff"/><path d="M51.857 44.938h-.407l-.805-1.297h-.63v1.297h-.343v-2.812h1.224c.237 0 .474.014.685.139.211.119.315.369.315.605 0 .554-.387.758-.888.771l.849 1.297z" fill="#00acec"/><path d="M50.542 43.371c.395 0 1.007.066 1.007-.508 0-.434-.382-.486-.731-.486h-.802v.994h.526zm8.078-16.779c.005.886-.267 1.166-.926 1.166-.371 0-.597-.163-.597-.397.001-.616.91-.471 1.523-.769zm9.65-.231c0 .55-.207 1.101-.858 1.101-.613 0-.739-.577-.739-1.075 0-.522.171-1.12.795-1.12.622 0 .802.569.802 1.094z" fill="#fff"/></svg><svg version="1.1" id="arrowLeft" viewBox="0 0 252.1 477.2" xml:space="preserve" xmlns="http://www.w3.org/2000/svg"><style>.abst0{fill:#da6d42}</style><path class="abst0" d="M3.9 248.1L229 473.2c5.3 5.3 13.8 5.3 19.1 0 5.3-5.3 5.3-13.8 0-19.1L32.6 238.6 248.1 23.1c5.3-5.3 5.3-13.8 0-19.1-2.6-2.6-6.1-4-9.5-4-3.4 0-6.9 1.3-9.5 4L4 229.1c-5.3 5.2-5.3 13.8-.1 19z"/></svg><svg version="1.1" id="arrowRight" viewBox="0 0 252.1 477.2" xml:space="preserve" xmlns="http://www.w3.org/2000/svg"><style>.acst0{fill:#da6d42}</style><path class="acst0" d="M248.2 229.1L23.1 4C17.8-1.3 9.3-1.3 4 4s-5.3 13.8 0 19.1l215.5 215.5L4 454.1c-5.3 5.3-5.3 13.8 0 19.1 2.6 2.6 6.1 4 9.5 4s6.9-1.3 9.5-4l225.1-225.1c5.3-5.2 5.3-13.8.1-19z"/></svg><svg version="1.1" id="arrowSelect" viewBox="0 0 97 56.1" xml:space="preserve" xmlns="http://www.w3.org/2000/svg"><style>.adst0{fill:#c4c4c4}</style><path class="adst0" d="M48.5 56.1L97 0H0z"/></svg><svg viewBox="0 0 512 512" id="book" xmlns="http://www.w3.org/2000/svg"><path d="M31.9 421h448.6c6.2-.1 11.1-5.2 11-11.4 0-1.1-.2-2.2-.5-3.2l-17.8-54.8c2.2.1 4.1.1 5.7.2 6.1.3 11.3-4.3 11.6-10.4.1-1.8-.3-3.7-1.1-5.4L467 289.5c6.3-1.6 11.3-2.7 14.9-3.4 6-1.2 9.9-6.9 8.7-12.9-.2-1.2-.7-2.3-1.3-3.4l-94.1-164.5c-3-5.3-9.7-7.1-15-4.1-.6.4-1.3.8-1.8 1.3l-125 110.4c-.4-.1-.8-.1-1.3-.1H106.5c-4.5 0-8.5 2.7-10.2 6.9L21.7 405.6c-1.4 3.4-1 7.3 1.1 10.4 2 3.1 5.4 5 9.1 5zm247.6-25c23.3-9.7 64-25.6 96.8-30.5 24.7-3.6 49.9-5.4 75.2-5.5l17.3 36H279.5zm189.3-62.2c-3-.1-6.5-.2-10.6-.2h-.3c-27.9-.1-55.8 2.3-83.1 7.4-21.6 4.1-45.7 13.4-66.8 23 23.1-16.5 48-31 74.5-43.3 21-9.6 43-17.5 65.7-23.5l20.6 36.6zM263 224l115-99 85.2 145.1c-16.2 3.3-50.8 12.3-91 33.2-52.3 27.2-90.9 61.7-109.1 79.8V224h-.1zm-146.2 12H245v160H51l65.8-160z"/></svg><svg viewBox="0 0 482.6 482.6" id="call" xmlns="http://www.w3.org/2000/svg"><path d="M98.339 320.8c47.6 56.9 104.9 101.7 170.3 133.4 24.9 11.8 58.2 25.8 95.3 28.2 2.3.1 4.5.2 6.8.2 24.9 0 44.9-8.6 61.2-26.3.1-.1.3-.3.4-.5 5.8-7 12.4-13.3 19.3-20 4.7-4.5 9.5-9.2 14.1-14 21.3-22.2 21.3-50.4-.2-71.9l-60.1-60.1c-10.2-10.6-22.4-16.2-35.2-16.2-12.8 0-25.1 5.6-35.6 16.1l-35.8 35.8c-3.3-1.9-6.7-3.6-9.9-5.2-4-2-7.7-3.9-11-6-32.6-20.7-62.2-47.7-90.5-82.4-14.3-18.1-23.9-33.3-30.6-48.8 9.4-8.5 18.2-17.4 26.7-26.1 3-3.1 6.1-6.2 9.2-9.3 10.8-10.8 16.6-23.3 16.6-36s-5.7-25.2-16.6-36l-29.8-29.8c-3.5-3.5-6.8-6.9-10.2-10.4-6.6-6.8-13.5-13.8-20.3-20.1-10.3-10.1-22.4-15.4-35.2-15.4-12.7 0-24.9 5.3-35.6 15.5l-37.4 37.4c-13.6 13.6-21.3 30.1-22.9 49.2-1.9 23.9 2.5 49.3 13.9 80 17.5 47.5 43.9 91.6 83.1 138.7zm-72.6-216.6c1.2-13.3 6.3-24.4 15.9-34l37.2-37.2c5.8-5.6 12.2-8.5 18.4-8.5 6.1 0 12.3 2.9 18 8.7 6.7 6.2 13 12.7 19.8 19.6 3.4 3.5 6.9 7 10.4 10.6l29.8 29.8c6.2 6.2 9.4 12.5 9.4 18.7s-3.2 12.5-9.4 18.7c-3.1 3.1-6.2 6.3-9.3 9.4-9.3 9.4-18 18.3-27.6 26.8l-.5.5c-8.3 8.3-7 16.2-5 22.2.1.3.2.5.3.8 7.7 18.5 18.4 36.1 35.1 57.1 30 37 61.6 65.7 96.4 87.8 4.3 2.8 8.9 5 13.2 7.2 4 2 7.7 3.9 11 6 .4.2.7.4 1.1.6 3.3 1.7 6.5 2.5 9.7 2.5 8 0 13.2-5.1 14.9-6.8l37.4-37.4c5.8-5.8 12.1-8.9 18.3-8.9 7.6 0 13.8 4.7 17.7 8.9l60.3 60.2c12 12 11.9 25-.3 37.7-4.2 4.5-8.6 8.8-13.3 13.3-7 6.8-14.3 13.8-20.9 21.7-11.5 12.4-25.2 18.2-42.9 18.2-1.7 0-3.5-.1-5.2-.2-32.8-2.1-63.3-14.9-86.2-25.8-62.2-30.1-116.8-72.8-162.1-127-37.3-44.9-62.4-86.7-79-131.5-10.3-27.5-14.2-49.6-12.6-69.7z"/></svg><svg viewBox="0 0 414 414" id="cart" xmlns="http://www.w3.org/2000/svg"><path d="M202.5 363.1c0-21.8-17.7-39.5-39.5-39.5s-39.5 17.7-39.5 39.5 17.7 39.5 39.5 39.5 39.5-17.7 39.5-39.5zm-65 0c0-14.1 11.4-25.5 25.5-25.5s25.5 11.4 25.5 25.5-11.4 25.5-25.5 25.5-25.4-11.4-25.5-25.5zM309.2 402.6c21.8 0 39.5-17.7 39.5-39.5s-17.7-39.5-39.5-39.5-39.5 17.7-39.5 39.5 17.7 39.5 39.5 39.5zm0-64.9c14.1 0 25.5 11.4 25.5 25.5s-11.4 25.5-25.5 25.5-25.5-11.4-25.5-25.5 11.4-25.5 25.5-25.5zM7 25h42.7c14.1-.1 26 10.2 28.2 24.1l33.8 213.5c3.2 20.7 21.1 36 42 35.9h208.9c3.9 0 7-3.1 7-7s-3.1-7-7-7H153.7c-14.1.1-26-10.2-28.2-24.1l-5.7-36.3h214c18.1 0 34.2-11.5 40.2-28.6l39.7-114.6c.7-2.1.4-4.5-.9-6.4a7.01 7.01 0 00-5.7-2.9H95.6l-3.9-24.7c-3.2-20.7-21.1-36-42-35.9H7c-3.9 0-7 3.1-7 7s3.1 7 7 7zm390.2 60.6l-36.5 105.3c-4 11.5-14.8 19.2-27 19.2H117.5L97.8 85.6h299.4z"/></svg><svg viewBox="0 0 484.2 400.1" id="community" xmlns="http://www.w3.org/2000/svg"><path d="M240.1 103.9c-31.2 0-56.5 25.3-56.5 56.5v25.3c.1 31.2 25.5 56.4 56.8 56.3 31-.1 56.2-25.3 56.3-56.3v-25.3c-.1-31.2-25.4-56.5-56.6-56.5zm44.5 81.8c-.1 24.6-20.1 44.4-44.7 44.3-24.4-.1-44.2-19.9-44.3-44.3v-25.3c.1-24.6 20.1-44.4 44.7-44.3 24.4.1 44.2 19.9 44.3 44.3v25.3zM146.3 400.1h187.6c3.3 0 6-2.7 6-6v-19.3H470c3.3 0 6-2.7 6-6V319c0-29.4-22.9-53.8-52.3-55.7-3.2-.2-4.8 1.7-6.5 3.8-12.9 15.7-36.1 18.1-51.8 5.2-2.4-1.9-4.5-4.2-6.3-6.6-1.2-1.6-3-2.5-5-2.4-10.2.2-20.1 3.3-28.6 8.7-11.1-13.5-27.3-21.8-44.7-22.8-3.1-.2-4.6 1.7-6.5 4-15 18.4-42.1 21.1-60.4 6-2.8-2.3-5.2-4.8-7.3-7.7-1.2-1.6-3-2.5-5-2.4-16.4.4-32 7.2-43.4 18.9-1.3 1.3-2.5 2.7-3.6 4.1-8-5.1-17.1-8.1-26.6-8.7-3.2-.2-4.8 1.7-6.5 3.8-12.9 15.7-36.1 18.1-51.8 5.2-2.4-1.9-4.5-4.2-6.3-6.6-1.2-1.6-3-2.5-5-2.4-30.3.7-54.4 25.4-54.4 55.7v49.8c0 3.3 2.7 6 6 6h130.3v19.3c0 3.2 2.7 5.9 6 5.9zm205.2-124.6c17.5 20.6 48.3 23 68.9 5.6 1.9-1.7 3.8-3.5 5.4-5.4 21.8 2.8 38.2 21.4 38.2 43.4v43.8H339.9V312c0-10.5-2.6-20.8-7.6-30 5.8-3.7 12.4-5.9 19.2-6.5zm-152.6-14.2c19.5 23.3 54.1 26.4 77.4 6.9 2.4-2 4.7-4.3 6.7-6.7 25.6 3.1 44.8 24.7 44.8 50.5v76.1H152.3V312c0-26.4 20.3-48.5 46.6-50.7zM16 362.8V319c0-22.6 17.2-41.5 39.7-43.6 17.5 20.6 48.3 23 68.9 5.6 1.9-1.7 3.8-3.5 5.4-5.4 6.3.8 12.4 3 17.8 6.4-5 9.2-7.6 19.5-7.6 29.9v50.9H16z"/><path d="M438.1 208.5v-22.1c0-27.7-22.5-50.2-50.2-50.2-27.7 0-50.2 22.5-50.2 50.2v22.1c0 27.7 22.5 50.2 50.2 50.2 27.7 0 50.2-22.4 50.2-50.2zm-88.4 0v-22.1c0-21.1 17.1-38.2 38.2-38.2s38.2 17.1 38.2 38.2v22.1c0 21.1-17.1 38.2-38.2 38.2s-38.2-17.1-38.2-38.2zM142.3 208.5v-22.1c0-27.7-22.5-50.2-50.2-50.2-27.7 0-50.2 22.5-50.2 50.2v22.1c0 27.7 22.5 50.2 50.2 50.2 27.7 0 50.2-22.4 50.2-50.2zm-88.4 0v-22.1c0-21.1 17.1-38.2 38.2-38.2s38.2 17.1 38.2 38.2v22.1c0 21.1-17.1 38.2-38.2 38.2s-38.2-17.1-38.2-38.2z"/><path d="M484.2 95.6V33.1c0-12.8-10.4-23.1-23.1-23.1H304c-12.8 0-23.1 10.4-23.1 23.1v62.5c0 12.8 10.4 23.1 23.1 23.1h7c4 22.4 18.8 29.6 22.5 31.1 1.1.6 2.4.8 3.6.6 2.5-.4 4.5-2.3 5.1-4.7.4-1.8.7-3.7.8-5.5 1.3-13.9 4.3-21.4 16.2-21.4h101.9c12.8 0 23.1-10.4 23.1-23.2zm-12 0c0 6.1-5 11.1-11.1 11.1H359.2c-21.5 0-26.2 17.2-27.6 27.7-3.4-3.3-7.2-8.9-8.8-17.9-1-5.7-6-9.8-11.8-9.7h-7c-6.1 0-11.1-5-11.1-11.1V33.1c0-6.1 5-11.1 11.1-11.1h157.1c6.1 0 11.1 5 11.1 11.1v62.5zM180.2 0H23.1C10.4 0 0 10.4 0 23.1v72.5c0 12.8 10.4 23.1 23.1 23.1h103c4 22.4 18.7 29.6 22.5 31.1 1.1.6 2.4.8 3.6.6 2.5-.4 4.5-2.3 5.1-4.7.6-2.2.4-4.9.2-8.3-.4-5.4-.9-12.7 2.3-16.1 1.6-1.7 4.5-2.6 8.4-2.6h11.9c12.8 0 23.1-10.4 23.1-23.1V23.1C203.4 10.4 193 0 180.2 0zm11.2 95.6c0 6.1-5 11.1-11.1 11.1h-11.9c-7.4 0-13.2 2.2-17.2 6.4-5.2 5.6-6 13.3-5.8 19.8-3-3.4-6-8.6-7.4-16.5-1-5.7-6-9.8-11.8-9.7h-103c-6.1 0-11.1-5-11.1-11.1V23.1C12 17 17 12 23.1 12h157.1c6.1 0 11.1 5 11.1 11.1v72.5z"/></svg><svg version="1.1" id="danger" viewBox="0 0 512 512" xml:space="preserve" xmlns="http://www.w3.org/2000/svg"><style>.aist0{fill:#e30000}</style><path class="aist0" d="M507.5 426.1L282.9 53.5c-5.7-9.4-15.9-15.2-26.9-15.2-11 0-21.2 5.8-26.9 15.2L4.5 426.1c-5.8 9.7-6 21.8-.5 31.6 5.6 9.9 16 15.9 27.3 15.9h449.3c11.3 0 21.8-6.1 27.3-15.9 5.6-9.9 5.4-21.9-.4-31.6zM256.2 167.2c12.9 0 23.8 7.3 23.8 20.2 0 39.4-4.6 95.9-4.6 135.3 0 10.3-11.2 14.6-19.2 14.6-10.6 0-19.5-4.3-19.5-14.6 0-39.4-4.6-95.9-4.6-135.3-.1-12.9 10.5-20.2 24.1-20.2zm.3 243.8c-14.6 0-25.5-11.9-25.5-25.5 0-13.9 10.9-25.5 25.5-25.5 13.6 0 25.1 11.6 25.1 25.5 0 13.6-11.5 25.5-25.1 25.5z"/></svg><svg viewBox="0 0 59 59" id="delete" xmlns="http://www.w3.org/2000/svg"><path d="M29.5 51a1 1 0 001-1V17a1 1 0 10-2 0v33a1 1 0 001 1zM19.5 51a1 1 0 001-1V17a1 1 0 10-2 0v33a1 1 0 001 1zM39.5 51a1 1 0 001-1V17a1 1 0 10-2 0v33a1 1 0 001 1z"/><path d="M52.5 6H38.456c-.11-1.25-.495-3.358-1.813-4.711C35.809.434 34.751 0 33.499 0H23.5c-1.252 0-2.31.434-3.144 1.289C19.038 2.642 18.653 4.75 18.543 6H6.5a1 1 0 100 2h2.041l1.915 46.021C10.493 55.743 11.565 59 15.364 59h28.272c3.799 0 4.871-3.257 4.907-4.958L50.459 8H52.5a1 1 0 100-2zM21.792 2.681C22.24 2.223 22.799 2 23.5 2h9.999c.701 0 1.26.223 1.708.681.805.823 1.128 2.271 1.24 3.319H20.553c.112-1.048.435-2.496 1.239-3.319zm24.752 51.298C46.538 54.288 46.4 57 43.636 57H15.364c-2.734 0-2.898-2.717-2.909-3.042L10.542 8h37.915l-1.913 45.979z"/></svg><svg version="1.1" id="doubleArrowLeft" viewBox="0 0 370.6 477.2" xml:space="preserve" xmlns="http://www.w3.org/2000/svg"><style>.akst0{fill:#da6d42}</style><path class="akst0" d="M3.9 248.1L229 473.2c5.3 5.3 13.8 5.3 19.1 0s5.3-13.8 0-19.1L32.6 238.6 248.1 23.1c5.3-5.3 5.3-13.8 0-19.1-2.6-2.6-6.1-4-9.5-4s-6.9 1.3-9.5 4L4 229.1c-5.3 5.2-5.3 13.8-.1 19z"/><path class="akst0" d="M122.4 248.1l225.1 225.1c5.3 5.3 13.8 5.3 19.1 0 5.3-5.3 5.3-13.8 0-19.1L151.1 238.6 366.6 23.1c5.3-5.3 5.3-13.8 0-19.1-2.6-2.6-6.1-4-9.5-4s-6.9 1.3-9.5 4L122.5 229.1c-5.3 5.2-5.3 13.8-.1 19z"/></svg><svg version="1.1" id="doubleArrowRight" viewBox="0 0 370.6 477.2" xml:space="preserve" xmlns="http://www.w3.org/2000/svg"><style>.alst0{fill:#da6d42}</style><path class="alst0" d="M366.7 248.1L141.6 473.2c-5.3 5.3-13.8 5.3-19.1 0s-5.3-13.8 0-19.1L338 238.6 122.5 23.1c-5.3-5.3-5.3-13.8 0-19.1 2.6-2.6 6.1-4 9.5-4s6.9 1.3 9.5 4l225.1 225.1c5.3 5.2 5.3 13.8.1 19z"/><path class="alst0" d="M248.2 248.1L23.1 473.2c-5.3 5.3-13.8 5.3-19.1 0-5.3-5.3-5.3-13.8 0-19.1l215.5-215.5L4 23.1C-1.3 17.8-1.3 9.3 4 4c2.6-2.6 6.1-4 9.5-4s6.9 1.3 9.5 4l225.1 225.1c5.3 5.2 5.3 13.8.1 19z"/></svg><svg viewBox="0 0 252.5 318.2" id="epub" xmlns="http://www.w3.org/2000/svg"><path d="M56.6 243.5c-5.9 0-10.4 1.7-13.6 5-3.2 3.4-4.8 8.2-4.8 14.5 0 6.1 1.7 10.8 5.1 14.1s8.2 4.9 14.4 4.9c3 0 5.5-.2 7.7-.6 2.1-.4 4.2-1.1 6.2-2.1v-9.2c-2.2 1-4.3 1.8-6.2 2.2-1.9.4-4 .6-6.2.6-2.5 0-4.4-.6-5.9-1.8s-2.2-2.8-2.3-4.9h22.9v-5.7c0-5.5-1.5-9.7-4.6-12.6-2.8-2.9-7.1-4.4-12.7-4.4zm-5.1 14.7c.2-2 .8-3.5 1.8-4.5s2.3-1.4 3.8-1.4c1.6 0 2.9.5 3.9 1.6s1.5 2.5 1.5 4.3h-11zM204 256.2v-.3c2.3-.5 4.1-1.8 5.4-3.7 1.4-1.9 2.1-4.2 2.1-6.9 0-4.1-1.6-7.1-4.7-9-3.2-1.9-8-2.9-14.5-2.9h-16.7v48h18.7c5.6 0 10.1-1.3 13.4-3.8 3.3-2.5 4.9-5.9 4.9-10.3 0-2.9-.7-5.3-2-7.2-1.5-1.8-3.7-3.1-6.6-3.9zm-15.5-13h3.6c4.1 0 6.1 1.3 6.1 4 0 1.5-.5 2.6-1.5 3.4-1 .8-2.5 1.1-4.3 1.1h-3.9v-8.5zm4.5 28.2h-4.6v-10.1h4.3c2.1 0 3.6.4 4.7 1.3s1.6 2.1 1.6 3.7c.1 3.4-1.9 5.1-6 5.1zM152.5 261.5c0 3.5-.6 5.9-1.8 7.5s-3.1 2.3-5.8 2.3c-2.5 0-4.3-.8-5.6-2.3-1.3-1.5-1.9-4-1.9-7.4v-28.2h-13v29.2c0 6.3 1.8 11.1 5.3 14.4 3.5 3.3 8.5 5 15.1 5 6.7 0 11.8-1.7 15.4-5.2 3.6-3.4 5.3-8.3 5.3-14.6v-28.9h-13v28.2zM112.4 237.4c-3-2.6-7.6-4-13.7-4H82.2v48h13v-15.9h3.6c5.8 0 10.3-1.5 13.5-4.4 3.2-2.9 4.7-7.1 4.7-12.4 0-4.9-1.5-8.7-4.6-11.3zm-10.3 15.8c-1.1 1.1-2.7 1.6-4.6 1.6h-2.4v-11h3.3c3.6 0 5.4 1.6 5.4 4.9 0 1.9-.5 3.5-1.7 4.5z"/><path d="M250.3 52.7L199.8 2.2C198.4.8 196.5 0 194.5 0H7.5C3.4 0 0 3.4 0 7.5v303.2c0 4.1 3.4 7.5 7.5 7.5H245c4.1 0 7.5-3.4 7.5-7.5V58c0-2-.8-3.9-2.2-5.3zM202 25.6l24.9 24.9H202V25.6zM15 15h172v10.3H15V15zm0 288.2V40.3h172V58c0 4.1 3.4 7.5 7.5 7.5h43v237.7H15z"/><path d="M132.7 182.2l44-44c5.5-5.5 5.5-14.3 0-19.8l-48.9 48.9-39-39 39-39 14.6 14.6-22.4 22.4 9.9 9.9 27.3-27.3c2.7-2.7 2.7-7.2 0-9.9l-24.5-24.5c-2.7-2.7-7.2-2.7-9.9 0l-48.9 48.9c-2.7 2.7-2.7 7.2 0 9.9l48.9 48.9c2.7 2.8 7.1 2.8 9.9 0z"/></svg><svg viewBox="0 0 1365.333 1365.333" id="facebook" xmlns="http://www.w3.org/2000/svg"><path d="M1365.333 682.667C1365.333 305.64 1059.693 0 682.667 0 305.64 0 0 305.64 0 682.667c0 340.738 249.641 623.16 576 674.373V880H402.667V682.667H576v-150.4c0-171.094 101.917-265.6 257.853-265.6 74.69 0 152.814 13.333 152.814 13.333v168h-86.083c-84.804 0-111.25 52.623-111.25 106.61v128.057h189.333L948.4 880H789.333v477.04c326.359-51.213 576-333.635 576-674.373" fill="#100f0d"/><path d="M948.4 880l30.267-197.333H789.333V554.609C789.333 500.623 815.78 448 900.584 448h86.083V280s-78.124-13.333-152.814-13.333c-155.936 0-257.853 94.506-257.853 265.6v150.4H402.667V880H576v477.04a687.805 687.805 0 00106.667 8.293c36.288 0 71.91-2.84 106.666-8.293V880H948.4" fill="#fff"/></svg><svg viewBox="-5 0 394 394" id="filter" xmlns="http://www.w3.org/2000/svg"><path d="M367.82 0H16.56A16.502 16.502 0 001.848 8.96a16.732 16.732 0 001.3 17.415L131.836 207.66c.043.063.09.121.133.184a36.751 36.751 0 017.219 21.816v147.8a16.448 16.448 0 004.773 11.688A16.45 16.45 0 00155.617 394a16.94 16.94 0 006.48-1.3l72.313-27.571c6.477-1.98 10.778-8.094 10.778-15.453V229.66a36.774 36.774 0 017.214-21.816c.043-.063.09-.121.133-.184L381.227 26.371a16.717 16.717 0 001.3-17.406A16.492 16.492 0 00367.82 0zm0 0"/></svg><svg viewBox="0 0 394 394" id="filterOpen" xmlns="http://www.w3.org/2000/svg"><path d="M372.9 15c.6 0 1.1.3 1.3.8.3.6.2 1.3-.1 1.8L245.3 198.9l-.1.1c-6.5 8.8-10.1 19.7-10.1 30.6v120c0 .6-.2 1-.2 1.1l-.4.1-.5.2-72.3 27.6-.2.1-.2.1c-.2.1-.5.1-.7.1-.4 0-.8-.2-1-.4-.3-.3-.4-.6-.4-1V229.6c0-10.9-3.6-21.8-10.1-30.6 0 0 0-.1-.1-.1L20.4 17.7c-.4-.5-.4-1.2-.1-1.8.3-.5.8-.8 1.4-.8h351.2V15m0-15c-.1 0-.1 0 0 0H21.6C15.3 0 9.7 3.5 6.8 9 4 14.5 4.5 21.3 8.1 26.4l128.7 181.3c0 .1.1.1.1.2 4.7 6.3 7.2 14 7.2 21.8v147.8c0 4.4 1.7 8.6 4.8 11.7 3.1 3.1 7.3 4.9 11.7 4.9 2.2 0 4.4-.4 6.5-1.3l72.3-27.6c6.5-2 10.8-8.1 10.8-15.5v-120c0-7.9 2.5-15.5 7.2-21.8 0-.1.1-.1.1-.2L386.2 26.4c3.7-5.1 4.2-11.8 1.3-17.4-2.8-5.5-8.5-9-14.6-9z"/></svg><svg viewBox="0 0 384 320.7" id="freeDelivery" xmlns="http://www.w3.org/2000/svg"><path d="M27 285.7h18.6c3.4 20.2 20.9 35 41.4 35s38-14.8 41.4-35h127.2c3.4 20.2 20.9 35 41.4 35s38-14.8 41.4-35H357c14.9 0 27-12.1 27-27v-89.6-.2-.4-.3c0-.1 0-.2-.1-.4s0-.2-.1-.3-.1-.2-.1-.3-.1-.2-.1-.3c0-.1-.1-.2-.1-.3 0-.1-.1-.2-.1-.3 0-.1-.1-.2-.1-.3-.1-.1-.1-.2-.2-.3-.1-.1-.1-.2-.2-.3-.1-.1-.1-.2-.2-.3-.1-.1-.1-.2-.2-.3-.1-.1-.2-.2-.2-.3l-.1-.1-51.5-56.1c-5.1-5.6-12.3-8.7-19.9-8.7h-93.3V27c0-14.9-12.1-27-27-27H27C12.1 0 0 12.1 0 27v231.7c0 14.9 12.1 27 27 27zm60 21c-15.5 0-28-12.5-28-28s12.5-28 28-28 28 12.5 28 28-12.5 28-28 28zm210 0c-15.5 0-28-12.5-28-28s12.5-28 28-28 28 12.5 28 28-12.5 28-28 28zm73-48c0 7.2-5.8 13-13 13h-18.6c-3.4-20.2-20.9-35-41.4-35s-38 14.8-41.4 35h-38.1v-95.6H370v82.6zm-59.3-145.1c3.6 0 7.1 1.5 9.6 4.2l40.8 44.4H217.5v-48.6h93.2zM14 27c0-7.2 5.8-13 13-13h163.5c7.2 0 13 5.8 13 13v244.7h-75.1c-3.4-20.2-20.9-35-41.4-35s-38 14.8-41.4 35H27c-7.2 0-13-5.8-13-13V27z"/></svg><svg viewBox="0 0 444 444" id="grid" xmlns="http://www.w3.org/2000/svg"><path d="M7 0h181c3.867 0 7 3.133 7 7v181c0 3.867-3.133 7-7 7H7c-3.867 0-7-3.133-7-7V7c0-3.867 3.133-7 7-7zm0 0M256 0h181c3.867 0 7 3.133 7 7v181c0 3.867-3.133 7-7 7H256c-3.867 0-7-3.133-7-7V7c0-3.867 3.133-7 7-7zm0 0M7 249h181c3.867 0 7 3.133 7 7v181c0 3.867-3.133 7-7 7H7c-3.867 0-7-3.133-7-7V256c0-3.867 3.133-7 7-7zm0 0M256 249h181c3.867 0 7 3.133 7 7v181c0 3.867-3.133 7-7 7H256c-3.867 0-7-3.133-7-7V256c0-3.867 3.133-7 7-7zm0 0"/></svg><svg viewBox="0 0 23.625 23.625" id="info" xmlns="http://www.w3.org/2000/svg"><path d="M11.812 0C5.289 0 0 5.289 0 11.812s5.289 11.813 11.812 11.813 11.813-5.29 11.813-11.813S18.335 0 11.812 0zm2.459 18.307c-.608.24-1.092.422-1.455.548a3.838 3.838 0 01-1.262.189c-.736 0-1.309-.18-1.717-.539s-.611-.814-.611-1.367c0-.215.015-.435.045-.659a8.23 8.23 0 01.147-.759l.761-2.688c.067-.258.125-.503.171-.731.046-.23.068-.441.068-.633 0-.342-.071-.582-.212-.717-.143-.135-.412-.201-.813-.201-.196 0-.398.029-.605.09-.205.063-.383.12-.529.176l.201-.828c.498-.203.975-.377 1.43-.521a4.225 4.225 0 011.29-.218c.731 0 1.295.178 1.692.53.395.353.594.812.594 1.376 0 .117-.014.323-.041.617a4.129 4.129 0 01-.152.811l-.757 2.68a7.582 7.582 0 00-.167.736 3.892 3.892 0 00-.073.626c0 .356.079.599.239.728.158.129.435.194.827.194.185 0 .392-.033.626-.097.232-.064.4-.121.506-.17l-.203.827zm-.134-10.878a1.807 1.807 0 01-1.275.492c-.496 0-.924-.164-1.28-.492a1.57 1.57 0 01-.533-1.193c0-.465.18-.865.533-1.196a1.812 1.812 0 011.28-.497c.497 0 .923.165 1.275.497.353.331.53.731.53 1.196 0 .467-.177.865-.53 1.193z" fill="#030104"/></svg><svg viewBox="0 0 512 512" id="instagram" xmlns="http://www.w3.org/2000/svg"><path d="M256 49.5c67.3 0 75.2.3 101.8 1.5 24.6 1.1 37.9 5.2 46.8 8.7 11.8 4.6 20.2 10 29 18.8s14.3 17.2 18.8 29c3.4 8.9 7.6 22.2 8.7 46.8 1.2 26.6 1.5 34.5 1.5 101.8s-.3 75.2-1.5 101.8c-1.1 24.6-5.2 37.9-8.7 46.8-4.6 11.8-10 20.2-18.8 29s-17.2 14.3-29 18.8c-8.9 3.4-22.2 7.6-46.8 8.7-26.6 1.2-34.5 1.5-101.8 1.5s-75.2-.3-101.8-1.5c-24.6-1.1-37.9-5.2-46.8-8.7-11.8-4.6-20.2-10-29-18.8s-14.3-17.2-18.8-29c-3.4-8.9-7.6-22.2-8.7-46.8-1.2-26.6-1.5-34.5-1.5-101.8s.3-75.2 1.5-101.8c1.1-24.6 5.2-37.9 8.7-46.8 4.6-11.8 10-20.2 18.8-29s17.2-14.3 29-18.8c8.9-3.4 22.2-7.6 46.8-8.7 26.6-1.3 34.5-1.5 101.8-1.5m0-45.4c-68.4 0-77 .3-103.9 1.5C125.3 6.8 107 11.1 91 17.3c-16.6 6.4-30.6 15.1-44.6 29.1-14 14-22.6 28.1-29.1 44.6-6.2 16-10.5 34.3-11.7 61.2C4.4 179 4.1 187.6 4.1 256s.3 77 1.5 103.9c1.2 26.8 5.5 45.1 11.7 61.2 6.4 16.6 15.1 30.6 29.1 44.6 14 14 28.1 22.6 44.6 29.1 16 6.2 34.3 10.5 61.2 11.7 26.9 1.2 35.4 1.5 103.9 1.5s77-.3 103.9-1.5c26.8-1.2 45.1-5.5 61.2-11.7 16.6-6.4 30.6-15.1 44.6-29.1 14-14 22.6-28.1 29.1-44.6 6.2-16 10.5-34.3 11.7-61.2 1.2-26.9 1.5-35.4 1.5-103.9s-.3-77-1.5-103.9c-1.2-26.8-5.5-45.1-11.7-61.2-6.4-16.6-15.1-30.6-29.1-44.6-14-14-28.1-22.6-44.6-29.1-16-6.2-34.3-10.5-61.2-11.7-27-1.1-35.6-1.4-104-1.4z"/><path d="M256 126.6c-71.4 0-129.4 57.9-129.4 129.4s58 129.4 129.4 129.4 129.4-58 129.4-129.4-58-129.4-129.4-129.4zm0 213.4c-46.4 0-84-37.6-84-84s37.6-84 84-84 84 37.6 84 84-37.6 84-84 84z"/><circle cx="390.5" cy="121.5" r="30.2"/></svg><svg viewBox="0 0 482.3 437.8" id="joinUs" xmlns="http://www.w3.org/2000/svg"><path d="M263.3 0c-3.9 0-7 3.1-7 7s3.1 7 7 7c113 0 204.9 91.9 204.9 204.9s-91.9 204.7-204.9 204.7c-101.2.2-187.3-73.7-202.5-173.7h40.9c3.8.1 6.9-2.8 7-6.6 0-1.4-.3-2.8-1.1-3.9l-47.4-74.3c-2.1-3.3-6.4-4.2-9.7-2.1-.9.5-1.6 1.3-2.1 2.1L1.1 239.5c-1.4 2.1-1.5 4.8-.2 7 1.2 2.2 3.6 3.5 6.1 3.5h39.7c17.1 119.7 128 202.8 247.7 185.7C414 418.4 497.1 307.5 480 187.9 464.6 80.1 372.2 0 263.3 0zM19.8 235.9l34.6-54.3L89 235.9H19.8z"/><path d="M168.1 256.2v15.5c0 3.4 4 5.1 7.2 5.1h57c2.9 0 5.6-3.7 5.6-7.7s-2.7-7.3-5.6-7.3h-47.2v-5.6c0-18.4 51.9-29.6 51.9-64 0-19.2-15.6-31.8-34.2-31.8-17.4 0-32.8 11.2-32.8 28.3 0 7.2 3.2 9.4 7.7 9.4 5.6 0 9-3.2 9-6.4 0-10.9 7.2-15.8 16.2-15.8 12.2 0 17.4 9 17.4 16.8 0 24.7-52.2 37.6-52.2 63.5zM294.1 166.9c0-4-5.3-6.5-8.5-6.5-3.1 0-6 1.8-7.4 4.7l-38.7 76.3c-.6 1-.9 2.2-1 3.4 0 3.8 2.6 6.1 5.9 6.1H284v20.9c0 3.7 4.2 5.6 8.5 5.6 4.2 0 8.5-1.9 8.5-5.6v-20.9h7.5c3 0 5.8-4.1 5.8-7.9 0-4-1.9-8.1-5.8-8.1H301v-21.7c0-4-4.3-5.6-8.5-5.6-4.3 0-8.5 1.6-8.5 5.6v21.7h-23.8l33-65.6c.5-.7.8-1.6.9-2.4zM319.1 121.6c-3.1 0-5 1.4-5 3.4v67.8c0 1.7 1.9 3.5 5 3.5 2.8 0 5-1.8 5-3.5v-24.5c-.2-5.5 4.1-10.1 9.6-10.3h.1c5.4 0 10.2 5.1 10.2 10.3v24.5c0 2.3 2.6 3.5 5 3.5 2.6 0 5-1.2 5-3.5v-24.5c0-10.7-8-19.4-17.3-19.4-5.3-.1-10.2 2.8-12.7 7.5V125c.1-2-2.2-3.4-4.9-3.4zM369.8 149.4c-3 0-4.6 1.4-4.6 3.4v40c0 1.7 1.9 3.5 4.9 3.5s5.1-1.8 5.1-3.5v-20.2c0-9 5.9-14.6 11.9-14.6h3.2c2.1 0 3.9-2 3.9-4.5.1-2.3-1.6-4.3-3.9-4.5H387c-5.5.2-10.4 3.3-12.9 8.2v-4.3c0-2.1-1.8-3.5-4.3-3.5z"/></svg><svg viewBox="0 0 60.1 45.3" id="list" xmlns="http://www.w3.org/2000/svg"><path d="M58.1 6.1H15.9c-1.7 0-2-1.1-2-2.3s.3-2.3 2-2.3h42.2c1.7 0 2 1.1 2 2.3s-.3 2.3-2 2.3zM58.1 25H15.9c-1.7 0-2-1.1-2-2.3s.3-2.3 2-2.3h42.2c1.7 0 2 1.1 2 2.3s-.3 2.3-2 2.3zM58.1 43.6H15.9c-1.7 0-2-1.1-2-2.3 0-1.3.3-2.3 2-2.3h42.2c1.7 0 2 1.1 2 2.3 0 1.2-.3 2.3-2 2.3z"/><circle cx="4" cy="4" r="4"/><circle cx="4" cy="22.6" r="4"/><circle cx="4" cy="41.2" r="4"/></svg><svg viewBox="0 0 401.6 498.7" id="map" xmlns="http://www.w3.org/2000/svg"><path d="M342.9 61.3C304.9 21.8 254.5 0 200.8 0S96.6 21.8 58.7 61.3l-.1.1C20.8 100.7 0 153.1 0 208.7c0 55.7 20.8 108 58.6 147.4l133.2 138.8c4.8 5 12.7 5.1 17.6.4l.4-.4L343 356.1c37.8-39.4 58.6-91.8 58.6-147.4 0-55.6-20.9-108-58.7-147.4zm-18 277.6L200.8 468.3 76.6 338.9c-68.8-71.8-68.8-188.5 0-260.3l.1-.1c33.2-34.6 77.3-53.6 124.1-53.6 46.9 0 91 19.1 124.2 53.6l.1.1c68.7 71.8 68.7 188.5-.2 260.3z"/><path d="M200.8 76.1c-62 0-112.2 50.2-112.2 112.2s50.2 112.2 112.2 112.2S313 250.3 313 188.3c-.1-61.9-50.3-112.1-112.2-112.2zm0 199.5c-48.2 0-87.3-39.1-87.3-87.3s39.1-87.3 87.3-87.3c48.2 0 87.3 39.1 87.3 87.3s-39.1 87.3-87.3 87.3z"/></svg><svg viewBox="0 0 192.756 192.756" id="mastercard" xmlns="http://www.w3.org/2000/svg"><g fill-rule="evenodd" clip-rule="evenodd"><path fill="none" d="M0 0h192.756v192.756H0V0z"/><path d="M184.252 96.379c0-28.73-23.291-52.021-52.02-52.021-12.467 0-23.811 4.363-32.77 11.676 6.834 6.598 12.051 14.859 14.85 24.197h-4.322c-2.709-8.302-7.467-15.627-13.652-21.505a52.03 52.03 0 00-13.563 21.48h-4.323A56.137 56.137 0 0193.148 56.07c-8.937-7.238-20.227-11.713-32.624-11.713-28.729 0-52.021 23.291-52.021 52.021 0 28.729 23.291 52.02 52.021 52.02 12.396 0 23.687-4.475 32.624-11.713-6.781-6.578-11.909-14.85-14.696-24.135h4.323a52.036 52.036 0 0013.563 21.48c6.186-5.879 10.943-13.203 13.652-21.506h4.322c-2.799 9.338-8.016 17.6-14.85 24.197 8.959 7.312 20.303 11.676 32.77 11.676 28.729.001 52.02-23.29 52.02-52.018z"/><path d="M146.02 108.564l3.592-19.248h4.541l.475 1.897c.814-.95 2.373-1.897 5.016-1.897l-1.422 5.014c-1.289 0-3.729-.337-5.287 5.423l-1.627 8.811h-5.288zm-69.605-24.14h5.234l-1.074 5.1h2.817l-.938 4.16H79.77l-1.477 7.783c-.269 1.477-.134 2.82 2.886 2.35l-.336 3.891c-1.141.738-2.684.941-3.893.941-1.207 0-5.167-.74-4.159-5.973l3.624-18.252zm22.681 15.568c.604-3.088 2.014-10.736-7.179-10.736-8.456 0-9.529 8.387-9.73 9.594-.201 1.209-.335 9.73 8.723 9.73 2.215.068 5.436-.201 6.712-.873l.805-3.957c-.805.199-3.826.469-5.907.469-2.079 0-5.434.135-4.831-4.227h11.407zm-27.645-6.173l1.207-3.893c-2.483-.939-4.428-.737-5.167-.737s-7.022-.077-7.985 4.563c-.738 3.557.564 5.028 1.812 5.569 2.014.873 3.155 1.678 4.229 2.215 1.328.664 1.084 2.885-.672 2.885-.806 0-4.294.402-6.911-.471l-.738 3.959c2.416.672 4.36.672 6.174.672 1.274 0 7.515.336 8.386-5.436.426-2.814-.805-4.094-1.812-4.695-1.006-.672-2.684-1.611-3.757-2.082-1.074-.469-1.879-2.28.067-2.817 1.207-.135 3.689-.135 5.167.268zM37.497 108.58l4.361-23.217H33.27l-6.376 14.092-1.007-14.092H17.5l-4.496 23.217h5.233l3.221-16.775 1.41 16.775h4.965l7.315-16.372-3.087 16.372h5.436zm5.769-18.72l-.805 4.16c1.276-.133 4.698-.67 6.509-.604 1.813.067 3.825-.201 3.221 2.684-1.342.135-10.736-1.342-12.211 6.709-.604 3.961 2.817 5.973 5.501 5.84 2.684-.135 3.422-.471 4.362-1.143l.671 1.074h4.897l2.081-10.467c.537-2.617 1.408-8.925-7.381-8.925-1.61.068-3.421 0-6.845.672zm84.818.871c-1.344-.806-2.281-.939-4.027-.939-1.744 0-5.637 1.667-6.373 6.375-.873 5.569 2.951 8.319 8.32 6.509l1.543 4.697c-1.744.805-3.49 1.207-6.375 1.207-5.436 0-11.34-4.83-8.656-14.628 1.979-7.219 8.188-9.863 11.811-9.729 4.293.16 5.838 1.61 7.18 3.087l-3.423 3.421zm44.623.805c-1.008-.737-1.609-2.28-4.094-2.28-2.885 0-7.381-.537-9.93 8.186-1.705 5.83 1.744 11.139 5.5 11.139 1.746-.066 3.49-.805 4.562-1.543l.674 1.543h5.635l4.564-24.424h-5.504l-1.407 7.379zm-40.865-1.676l-.807 4.16c1.277-.133 4.697-.67 6.51-.604 1.812.067 3.826-.201 3.221 2.684-1.342.135-10.736-1.342-12.211 6.709-.605 3.961 2.816 5.973 5.5 5.84 2.686-.135 3.422-.471 4.363-1.143l.672 1.074h4.896l2.082-10.467c.537-2.617 1.408-8.925-7.383-8.925-1.609.068-3.421 0-6.843.672z" fill="#fff"/><path d="M88.024 96.503h6.509c.336-1.879-.268-3.49-2.348-3.49-2.081 0-3.557 1.074-4.161 3.49zM51.32 99.992c-.873-.137-2.819-.672-4.497.469s-2.147 3.152-.402 3.826c1.679.645 4.158-.469 4.496-2.217l.403-2.078zm119.508-.605c.537-1.744.244-3.922-.336-4.695-1.609-2.147-5.312-.45-6.441 3.758-.738 2.75.873 4.83 2.684 4.83 1.947-.001 3.154-1.544 4.093-3.893zm-30.933.605c-.873-.137-2.818-.672-4.496.469s-2.148 3.152-.402 3.826c1.68.645 4.158-.469 4.494-2.217l.404-2.078z"/><path d="M99.246 108.58l3.557-19.056h4.496l.469 1.879c.807-.94 2.35-1.879 4.965-1.879l-1.342 5.033c-1.273 0-3.758-.402-5.301 5.299l-1.609 8.725h-5.235v-.001z" fill="#fff"/></g></svg><svg version="1.1" id="menu" viewBox="0 0 36 26" xml:space="preserve" xmlns="http://www.w3.org/2000/svg"><style>.ayst0{fill:none;stroke:#000;stroke-width:2;stroke-linecap:round;stroke-linejoin:round}</style><path class="ayst0" d="M35 1H1M35 13H8M35 25H1"/></svg><svg version="1.1" id="menuClose" viewBox="0 0 35 33" xml:space="preserve" xmlns="http://www.w3.org/2000/svg"><style>.azst0{fill:none;stroke:#000;stroke-width:2;stroke-linecap:round;stroke-linejoin:round}</style><path class="azst0" d="M31.6 31L1.9 1.5M33 1.4L3.3 30.9"/></svg><svg version="1.1" id="minus" viewBox="0 0 43.9 2.1" xml:space="preserve" xmlns="http://www.w3.org/2000/svg"><style>.bast0{fill:none;stroke:#000;stroke-width:2;stroke-linecap:round;stroke-linejoin:round}</style><path class="bast0" d="M42.9 1L1 1.1"/></svg><svg data-name="Layer 1" viewBox="0 0 512 512" id="order" xmlns="http://www.w3.org/2000/svg"><path d="M472.916 224h-24.909a24.534 24.534 0 00-23.417-18H398v-65.024a6.86 6.86 0 00-3.346-6.062L207.077 26.572a6.927 6.927 0 00-6.962 0L12.48 134.914A6.981 6.981 0 009 140.976v216.685a7 7 0 003.5 6.062l187.654 108.342a7 7 0 003.5.938 7.361 7.361 0 003.6-.938L306 415.108v41.174A29.642 29.642 0 00335.891 486h137.025A29.807 29.807 0 00503 456.282v-202.1A30.2 30.2 0 00472.916 224zm-48.077-4A10.161 10.161 0 01435 230.161v.678A10.161 10.161 0 01424.839 241h-40.678A10.161 10.161 0 01374 230.839v-.678A10.161 10.161 0 01384.161 220zM203.654 40.717l77.974 45.018-173.642 100.252-77.973-45.018zM197 453.878L23 353.619V153.085l174 100.259zm6.654-212.658l-81.668-47.151L295.628 93.818l81.672 47.151zM306 254.182v144.761l-95 54.935V253.344l173-100.259V206h.217a24.533 24.533 0 00-23.417 18h-24.909A30.037 30.037 0 00306 254.182zm183 202.1A15.793 15.793 0 01472.916 472H335.891A15.628 15.628 0 01320 456.282v-202.1A16.022 16.022 0 01335.891 238h25.182a23.944 23.944 0 0023.144 17h40.373a23.942 23.942 0 0023.143-17h25.183A16.186 16.186 0 01489 254.182z"/><path d="M343.949 325h7.327a7 7 0 100-14H351v-19h19.307a6.739 6.739 0 006.655 4.727 7.019 7.019 0 007.038-6.984v-4.71a7.093 7.093 0 00-7.076-7.033h-32.975a6.985 6.985 0 00-6.949 7.033v32.975a6.95 6.95 0 006.949 6.992zM344 389h33a7 7 0 007-7v-33a7 7 0 00-7-7h-33a7 7 0 00-7 7v33a7 7 0 007 7zm7-33h19v19h-19zM351.277 439H351v-19h18.929a7.037 7.037 0 0014.071.014v-6.745a7.3 7.3 0 00-7.076-7.269h-32.975a7.191 7.191 0 00-6.949 7.269v32.975a6.752 6.752 0 006.949 6.756h7.328a7 7 0 100-14z"/><path d="M393.041 286.592l-20.5 20.5-6.236-6.237a7 7 0 10-9.9 9.9l11.187 11.186a7 7 0 009.9 0l25.452-25.452a7 7 0 00-9.9-9.9zM393.041 415.841l-20.5 20.5-6.236-6.237a7 7 0 10-9.9 9.9l11.187 11.186a7 7 0 009.9 0l25.452-25.452a7 7 0 00-9.9-9.9zM464.857 295h-43.966a7 7 0 000 14h43.966a7 7 0 000-14zM464.857 359h-43.966a7 7 0 000 14h43.966a7 7 0 000-14zM464.857 423h-43.966a7 7 0 000 14h43.966a7 7 0 000-14z"/></svg><svg version="1.1" id="pageSelected" viewBox="0 0 42.3 42.3" xml:space="preserve" xmlns="http://www.w3.org/2000/svg"><style>.bcst0{fill:#84240c}</style><path class="bcst0" d="M21.2 2.8l18.3 18.3-18.3 18.4L2.8 21.2 21.2 2.8m0-2.8L0 21.2l21.2 21.2 21.2-21.2L21.2 0z"/></svg><svg version="1.1" id="person" viewBox="0 0 670.3 670.3" xml:space="preserve" xmlns="http://www.w3.org/2000/svg"><style>.bdst0{fill:none}</style><path class="bdst0" d="M335.1 670.3c57.7 0 112-14.6 159.4-40.3H175.7c47.4 25.7 101.7 40.3 159.4 40.3zM335.1 65.2c-67.4.1-122.1 54.8-122.2 122.3 0 67.5 54.7 122.2 122.2 122.2S457.3 255 457.3 187.5 402.6 65.2 335.1 65.2z"/><path d="M335.1 90.3c-81.3 0-147.2 65.9-147.2 147.2.1 81.3 65.9 147.1 147.2 147.2 81.3 0 147.2-65.9 147.2-147.2S416.4 90.3 335.1 90.3zm0 269.4c-67.5 0-122.2-54.7-122.2-122.2.1-67.5 54.8-122.2 122.2-122.3 67.5 0 122.2 54.7 122.2 122.2s-54.7 122.3-122.2 122.3z"/><path d="M335.1 25.6c41.8 0 82.3 8.2 120.4 24.3 36.9 15.6 69.9 37.9 98.4 66.4 28.4 28.4 50.8 61.5 66.4 98.4 16.1 38.1 24.3 78.7 24.3 120.4s-8.2 82.3-24.3 120.4c-15.6 36.9-37.9 69.9-66.4 98.4-28.4 28.4-61.5 50.8-98.4 66.4-38.1 16.1-78.7 24.3-120.4 24.3s-82.3-8.2-120.4-24.3c-36.9-15.6-69.9-37.9-98.4-66.4-28.4-28.4-50.8-61.5-66.4-98.3-16.1-38.1-24.3-78.7-24.3-120.4s8.2-82.3 24.3-120.4c15.6-36.9 37.9-69.9 66.4-98.4 28.4-28.5 61.5-50.9 98.4-66.4 38.1-16.2 78.7-24.4 120.4-24.4m0-25.6C150 0 0 150 0 335.1s150 335.1 335.1 335.1 335.1-150 335.1-335.1S520.2 0 335.1 0z"/><path d="M558.9 584.3c-11.6-35-30.6-66.7-56.2-92.8-44.1-45.1-103.6-70.1-167.6-70.1s-123.5 24.8-167.6 70c-25.7 26.3-44.7 58-56.3 93.2 6.6 6.1 13.5 11.8 20.7 17.2 10-35.2 28.1-67 53.2-92.8 39.4-40.3 92.7-62.5 149.8-62.5s110.4 22.2 149.8 62.5c25.2 25.7 43.3 57.5 53.2 92.8 7.4-5.5 14.4-11.3 21-17.5z"/></svg><svg version="1.1" id="plus" viewBox="0 0 43.9 43.9" xml:space="preserve" xmlns="http://www.w3.org/2000/svg"><style>.best0{fill:none;stroke:#000;stroke-width:2;stroke-linecap:round;stroke-linejoin:round}</style><path class="best0" d="M42.9 22.9L1 23.1M22.9 1l-.1 41.9"/></svg><svg viewBox="0 0 764.6 926.4" id="review" xmlns="http://www.w3.org/2000/svg"><path d="M129.8 45.9l-42-6.1L69 1.8C68.6.7 67.5 0 66.3 0c-1.2 0-2.3.7-2.8 1.7l-18.8 38-42 6.2c-1.2.2-2.2 1-2.6 2.2s0 2.3.9 3.2l30.4 29.6-7.2 41.8c-.2 1.2.3 2.4 1.3 3.1 1 .7 2.3.8 3.3.2l37.5-19.7 37.5 19.7c1.1.6 2.4.5 3.3-.3 1-.7 1.5-1.9 1.3-3.1l-7.2-41.8 30.4-29.6c.9-.8 1.2-2.1.8-3.2-.4-1.1-1.4-2-2.6-2.1zM287.8 45.9l-42-6.1-18.8-38c-.5-1.1-1.6-1.7-2.8-1.7-1.2 0-2.3.7-2.8 1.7l-18.8 38-41.9 6.1c-1.2.2-2.2 1-2.6 2.2s-.1 2.4.8 3.2l30.4 29.6-7.2 41.8c-.2 1.2.3 2.4 1.3 3.1 1 .7 2.3.8 3.3.2l37.5-19.7 37.5 19.7c1.1.6 2.4.5 3.3-.3 1-.7 1.5-1.9 1.3-3.1l-7.2-41.8 30.4-29.6c.9-.8 1.2-2.1.8-3.2-.3-1.1-1.3-2-2.5-2.1zM445.8 45.9l-42-6.1-18.8-38c-.5-1.1-1.6-1.7-2.8-1.7-1.2 0-2.3.7-2.8 1.7l-18.8 38-41.9 6.1c-1.2.2-2.2 1-2.6 2.2s-.1 2.4.8 3.2l30.4 29.6-7.2 41.8c-.2 1.2.3 2.4 1.3 3.1 1 .7 2.3.8 3.3.2l37.5-19.7 37.5 19.7c1.1.6 2.4.5 3.3-.3 1-.7 1.5-1.9 1.3-3.1l-7.2-41.8 30.4-29.6c.9-.8 1.2-2.1.8-3.2-.3-1.1-1.3-2-2.5-2.1zM603.8 45.9l-42-6.1-18.8-38c-.5-1.1-1.6-1.7-2.8-1.7-1.2 0-2.3.7-2.8 1.7l-18.8 38-41.9 6.1c-1.2.2-2.2 1-2.6 2.2s-.1 2.4.8 3.2l30.4 29.6-7.2 41.8c-.2 1.2.3 2.4 1.3 3.1 1 .7 2.3.8 3.3.2l37.5-19.7 37.5 19.7c1.1.6 2.4.5 3.3-.3s1.5-1.9 1.3-3.1l-7.2-41.8 30.4-29.6c.9-.8 1.2-2.1.8-3.2-.3-1.1-1.3-2-2.5-2.1zM761.8 45.9l-42-6.1-18.8-38c-.5-1.1-1.6-1.7-2.8-1.7-1.2 0-2.3.7-2.8 1.7l-18.8 38-41.9 6.1c-1.2.2-2.2 1-2.6 2.2s-.1 2.4.8 3.2l30.4 29.6-7.2 41.8c-.2 1.2.3 2.4 1.3 3.1 1 .7 2.3.8 3.3.2l37.5-19.7 37.5 19.7c1.1.6 2.4.5 3.3-.3s1.5-1.9 1.3-3.1l-7.2-41.8 30.4-29.6c.9-.8 1.2-2.1.8-3.2-.3-1.1-1.3-2-2.5-2.1zM129.8 205.9l-42-6.1-18.8-38c-.5-1.1-1.6-1.7-2.8-1.7-1.2 0-2.3.7-2.8 1.7l-18.8 38-41.9 6.1c-1.2.2-2.2 1-2.6 2.2-.4 1.1-.1 2.4.8 3.2l30.4 29.6-7.2 41.8c-.2 1.2.3 2.4 1.3 3.1 1 .7 2.3.8 3.3.2l37.5-19.7 37.5 19.7c1.1.6 2.4.5 3.3-.3 1-.7 1.5-1.9 1.3-3.1l-7.2-41.8 30.4-29.6c.9-.8 1.2-2.1.8-3.2-.3-1.1-1.3-2-2.5-2.1zM287.8 205.9l-42-6.1-18.8-38c-.5-1.1-1.6-1.7-2.8-1.7-1.2 0-2.3.7-2.8 1.7l-18.8 38-41.9 6.1c-1.2.2-2.2 1-2.6 2.2-.4 1.1-.1 2.4.8 3.2l30.4 29.6-7.2 41.8c-.2 1.2.3 2.4 1.3 3.1 1 .7 2.3.8 3.3.2l37.5-19.7 37.5 19.7c1.1.6 2.4.5 3.3-.3 1-.7 1.5-1.9 1.3-3.1l-7.2-41.8 30.4-29.6c.9-.8 1.2-2.1.8-3.2-.3-1.1-1.3-2-2.5-2.1zM445.8 205.9l-42-6.1-18.8-38c-.5-1.1-1.6-1.7-2.8-1.7-1.2 0-2.3.7-2.8 1.7l-18.8 38-41.9 6.1c-1.2.2-2.2 1-2.6 2.2-.4 1.1-.1 2.4.8 3.2l30.4 29.6-7.2 41.8c-.2 1.2.3 2.4 1.3 3.1 1 .7 2.3.8 3.3.2l37.5-19.7 37.5 19.7c1.1.6 2.4.5 3.3-.3 1-.7 1.5-1.9 1.3-3.1l-7.2-41.8 30.4-29.6c.9-.8 1.2-2.1.8-3.2-.3-1.1-1.3-2-2.5-2.1zM603.8 205.9l-42-6.1-18.8-38c-.5-1.1-1.6-1.7-2.8-1.7-1.2 0-2.3.7-2.8 1.7l-18.8 38-41.9 6.1c-1.2.2-2.2 1-2.6 2.2-.4 1.1-.1 2.4.8 3.2l30.4 29.6-7.2 41.8c-.2 1.2.3 2.4 1.3 3.1 1 .7 2.3.8 3.3.2l37.5-19.7 37.5 19.7c1.1.6 2.4.5 3.3-.3 1-.7 1.5-1.9 1.3-3.1l-7.2-41.8 30.4-29.6c.9-.8 1.2-2.1.8-3.2-.3-1.1-1.3-2-2.5-2.1zM698.3 174.1l14.4 29.2 1.9 3.8 4.2.6 32.3 4.7-23.3 22.7-3 2.9.7 4.1 5.5 32.2-29-15.1-3.7-2-3.7 2-28.9 15.2 5.5-32.1.7-4.1-3-2.9-23.3-22.8 32.2-4.7 4.2-.6 1.9-3.8 14.4-29.3m0-14.1c-1.2 0-2.3.7-2.8 1.7l-18.8 38-41.9 6.1c-1.2.2-2.2 1-2.6 2.2-.4 1.1-.1 2.4.8 3.2l30.4 29.6-7.2 41.8c-.2 1.2.3 2.4 1.3 3.1.5.4 1.2.6 1.8.6.5 0 1-.1 1.5-.4l37.5-19.7 37.5 19.7c.5.2 1 .4 1.5.4.7 0 1.3-.2 1.9-.6 1-.7 1.5-1.9 1.3-3.1l-7.2-41.8 30.4-29.6c.9-.8 1.2-2.1.8-3.2-.4-1.1-1.4-2-2.6-2.1l-42-6.1-18.8-38c-.5-1.1-1.6-1.8-2.8-1.8z"/><g><path d="M129.8 365.9l-42-6.1-18.8-38c-.5-1.1-1.6-1.7-2.8-1.7-1.2 0-2.3.7-2.8 1.7l-18.8 38-41.9 6.1c-1.2.2-2.2 1-2.6 2.2s-.1 2.4.8 3.2l30.4 29.6-7.2 41.8c-.2 1.2.3 2.4 1.3 3.1 1 .7 2.3.8 3.3.2l37.5-19.7 37.5 19.7c1.1.6 2.4.5 3.3-.3 1-.7 1.5-1.9 1.3-3.1l-7.2-41.8 30.4-29.6c.9-.8 1.2-2.1.8-3.2-.3-1.1-1.3-2-2.5-2.1zM287.8 365.9l-42-6.1-18.8-38c-.5-1.1-1.6-1.7-2.8-1.7-1.2 0-2.3.7-2.8 1.7l-18.8 38-41.9 6.1c-1.2.2-2.2 1-2.6 2.2s-.1 2.4.8 3.2l30.4 29.6-7.2 41.8c-.2 1.2.3 2.4 1.3 3.1 1 .7 2.3.8 3.3.2l37.5-19.7 37.5 19.7c1.1.6 2.4.5 3.3-.3 1-.7 1.5-1.9 1.3-3.1l-7.2-41.8 30.4-29.6c.9-.8 1.2-2.1.8-3.2-.3-1.1-1.3-2-2.5-2.1zM445.8 365.9l-42-6.1-18.8-38c-.5-1.1-1.6-1.7-2.8-1.7-1.2 0-2.3.7-2.8 1.7l-18.8 38-41.9 6.1c-1.2.2-2.2 1-2.6 2.2s-.1 2.4.8 3.2l30.4 29.6-7.2 41.8c-.2 1.2.3 2.4 1.3 3.1 1 .7 2.3.8 3.3.2l37.5-19.7 37.5 19.7c1.1.6 2.4.5 3.3-.3 1-.7 1.5-1.9 1.3-3.1l-7.2-41.8 30.4-29.6c.9-.8 1.2-2.1.8-3.2-.3-1.1-1.3-2-2.5-2.1zM540.3 334.1l14.4 29.2 1.9 3.8 4.2.6 32.3 4.7-23.3 22.7-3 2.9.7 4.1 5.5 32.2-29-15.1-3.7-2-3.7 2-28.9 15.2 5.5-32.1.7-4.1-3-2.9-23.3-22.8 32.2-4.7 4.2-.6 1.9-3.8 14.4-29.3m0-14.1c-1.2 0-2.3.7-2.8 1.7l-18.8 38-41.9 6.1c-1.2.2-2.2 1-2.6 2.2-.4 1.1-.1 2.4.8 3.2l30.4 29.6-7.2 41.8c-.2 1.2.3 2.4 1.3 3.1.5.4 1.2.6 1.8.6.5 0 1-.1 1.5-.4l37.5-19.7 37.5 19.7c.5.2 1 .4 1.5.4.7 0 1.3-.2 1.9-.6 1-.7 1.5-1.9 1.3-3.1l-7.2-41.8 30.4-29.6c.9-.8 1.2-2.1.8-3.2-.4-1.1-1.4-2-2.6-2.1l-42-6.1-18.8-38c-.5-1.1-1.6-1.8-2.8-1.8zM698.3 334.1l14.4 29.2 1.9 3.8 4.2.6 32.3 4.7-23.3 22.7-3 2.9.7 4.1 5.5 32.2-29-15.1-3.7-2-3.7 2-28.9 15.2 5.5-32.1.7-4.1-3-2.9-23.3-22.8 32.2-4.7 4.2-.6 1.9-3.8 14.4-29.3m0-14.1c-1.2 0-2.3.7-2.8 1.7l-18.8 38-41.9 6.1c-1.2.2-2.2 1-2.6 2.2-.4 1.1-.1 2.4.8 3.2l30.4 29.6-7.2 41.8c-.2 1.2.3 2.4 1.3 3.1.5.4 1.2.6 1.8.6.5 0 1-.1 1.5-.4l37.5-19.7 37.5 19.7c.5.2 1 .4 1.5.4.7 0 1.3-.2 1.9-.6 1-.7 1.5-1.9 1.3-3.1l-7.2-41.8 30.4-29.6c.9-.8 1.2-2.1.8-3.2-.4-1.1-1.4-2-2.6-2.1l-42-6.1-18.8-38c-.5-1.1-1.6-1.8-2.8-1.8z"/></g><g><path d="M129.8 525.9l-42-6.1-18.8-38c-.5-1.1-1.6-1.7-2.8-1.7-1.2 0-2.3.7-2.8 1.7l-18.8 38-41.9 6.1c-1.2.2-2.2 1-2.6 2.2s-.1 2.4.8 3.2l30.4 29.6-7.2 41.8c-.2 1.2.3 2.4 1.3 3.1 1 .7 2.3.8 3.3.2l37.5-19.7 37.5 19.7c1.1.6 2.4.5 3.3-.3 1-.7 1.5-1.9 1.3-3.1l-7.2-41.8 30.4-29.6c.9-.8 1.2-2.1.8-3.2-.3-1.1-1.3-2-2.5-2.1zM287.8 525.9l-42-6.1-18.8-38c-.5-1.1-1.6-1.7-2.8-1.7-1.2 0-2.3.7-2.8 1.7l-18.8 38-41.9 6.1c-1.2.2-2.2 1-2.6 2.2s-.1 2.4.8 3.2l30.4 29.6-7.2 41.8c-.2 1.2.3 2.4 1.3 3.1 1 .7 2.3.8 3.3.2l37.5-19.7 37.5 19.7c1.1.6 2.4.5 3.3-.3 1-.7 1.5-1.9 1.3-3.1l-7.2-41.8 30.4-29.6c.9-.8 1.2-2.1.8-3.2-.3-1.1-1.3-2-2.5-2.1zM382.3 494.1l14.4 29.2 1.9 3.8 4.2.6 32.3 4.7-23.3 22.7-3 2.9.7 4.1 5.5 32.2-29-15.1-3.7-2-3.7 2-28.9 15.2 5.5-32.1.7-4.1-3-2.9-23.3-22.8 32.2-4.7 4.2-.6 1.9-3.8 14.4-29.3m0-14.1c-1.2 0-2.3.7-2.8 1.7l-18.8 38-41.9 6.1c-1.2.2-2.2 1-2.6 2.2-.4 1.1-.1 2.4.8 3.2l30.4 29.6-7.2 41.8c-.2 1.2.3 2.4 1.3 3.1.5.4 1.2.6 1.8.6.5 0 1-.1 1.5-.4l37.5-19.7 37.5 19.7c.5.2 1 .4 1.5.4.7 0 1.3-.2 1.9-.6 1-.7 1.5-1.9 1.3-3.1l-7.2-41.8 30.4-29.6c.9-.8 1.2-2.1.8-3.2-.4-1.1-1.4-2-2.6-2.1l-42-6.1-18.8-38c-.5-1.1-1.6-1.8-2.8-1.8zM540.3 494.1l14.4 29.2 1.9 3.8 4.2.6 32.3 4.7-23.3 22.7-3 2.9.7 4.1 5.5 32.2-29-15.1-3.7-2-3.7 2-28.9 15.2 5.5-32.1.7-4.1-3-2.9-23.3-22.8 32.2-4.7 4.2-.6 1.9-3.8 14.4-29.3m0-14.1c-1.2 0-2.3.7-2.8 1.7l-18.8 38-41.9 6.1c-1.2.2-2.2 1-2.6 2.2-.4 1.1-.1 2.4.8 3.2l30.4 29.6-7.2 41.8c-.2 1.2.3 2.4 1.3 3.1.5.4 1.2.6 1.8.6.5 0 1-.1 1.5-.4l37.5-19.7 37.5 19.7c.5.2 1 .4 1.5.4.7 0 1.3-.2 1.9-.6 1-.7 1.5-1.9 1.3-3.1l-7.2-41.8 30.4-29.6c.9-.8 1.2-2.1.8-3.2-.4-1.1-1.4-2-2.6-2.1l-42-6.1-18.8-38c-.5-1.1-1.6-1.8-2.8-1.8zM698.3 494.1l14.4 29.2 1.9 3.8 4.2.6 32.3 4.7-23.3 22.7-3 2.9.7 4.1 5.5 32.2-29-15.1-3.7-2-3.7 2-28.9 15.2 5.5-32.1.7-4.1-3-2.9-23.3-22.8 32.2-4.7 4.2-.6 1.9-3.8 14.4-29.3m0-14.1c-1.2 0-2.3.7-2.8 1.7l-18.8 38-41.9 6.1c-1.2.2-2.2 1-2.6 2.2-.4 1.1-.1 2.4.8 3.2l30.4 29.6-7.2 41.8c-.2 1.2.3 2.4 1.3 3.1.5.4 1.2.6 1.8.6.5 0 1-.1 1.5-.4l37.5-19.7 37.5 19.7c.5.2 1 .4 1.5.4.7 0 1.3-.2 1.9-.6 1-.7 1.5-1.9 1.3-3.1l-7.2-41.8 30.4-29.6c.9-.8 1.2-2.1.8-3.2-.4-1.1-1.4-2-2.6-2.1l-42-6.1-18.8-38c-.5-1.1-1.6-1.8-2.8-1.8z"/></g><g><path d="M129.8 685.9l-42-6.1-18.8-38c-.5-1.1-1.6-1.7-2.8-1.7-1.2 0-2.3.7-2.8 1.7l-18.8 38-41.9 6.1c-1.2.2-2.2 1-2.6 2.2s-.1 2.4.8 3.2l30.4 29.6-7.2 41.8c-.2 1.2.3 2.4 1.3 3.1 1 .7 2.3.8 3.3.2l37.5-19.7 37.5 19.7c1.1.6 2.4.5 3.3-.3 1-.7 1.5-1.9 1.3-3.1l-7.2-41.8 30.4-29.6c.9-.8 1.2-2.1.8-3.2-.3-1.1-1.3-2-2.5-2.1zM224.3 654.1l14.4 29.2 1.9 3.8 4.2.6 32.3 4.7-23.3 22.7-3 2.9.7 4.1 5.5 32.2-29-15.1-3.7-2-3.7 2-28.9 15.2 5.5-32.1.7-4.1-3-2.9-23.3-22.8 32.2-4.7 4.2-.6 1.9-3.8 14.4-29.3m0-14.1c-1.2 0-2.3.7-2.8 1.7l-18.8 38-41.9 6.1c-1.2.2-2.2 1-2.6 2.2-.4 1.1-.1 2.4.8 3.2l30.4 29.6-7.2 41.8c-.2 1.2.3 2.4 1.3 3.1.5.4 1.2.6 1.8.6.5 0 1-.1 1.5-.4l37.5-19.7 37.5 19.7c.5.2 1 .4 1.5.4.7 0 1.3-.2 1.9-.6 1-.7 1.5-1.9 1.3-3.1l-7.2-41.8 30.4-29.6c.9-.8 1.2-2.1.8-3.2-.4-1.1-1.4-2-2.6-2.1l-42-6.1-18.8-38c-.5-1.1-1.6-1.8-2.8-1.8zM382.3 654.1l14.4 29.2 1.9 3.8 4.2.6 32.3 4.7-23.3 22.7-3 2.9.7 4.1 5.5 32.2-29-15.1-3.7-2-3.7 2-28.9 15.2 5.5-32.1.7-4.1-3-2.9-23.3-22.8 32.2-4.7 4.2-.6 1.9-3.8 14.4-29.3m0-14.1c-1.2 0-2.3.7-2.8 1.7l-18.8 38-41.9 6.1c-1.2.2-2.2 1-2.6 2.2-.4 1.1-.1 2.4.8 3.2l30.4 29.6-7.2 41.8c-.2 1.2.3 2.4 1.3 3.1.5.4 1.2.6 1.8.6.5 0 1-.1 1.5-.4l37.5-19.7 37.5 19.7c.5.2 1 .4 1.5.4.7 0 1.3-.2 1.9-.6 1-.7 1.5-1.9 1.3-3.1l-7.2-41.8 30.4-29.6c.9-.8 1.2-2.1.8-3.2-.4-1.1-1.4-2-2.6-2.1l-42-6.1-18.8-38c-.5-1.1-1.6-1.8-2.8-1.8zM540.3 654.1l14.4 29.2 1.9 3.8 4.2.6 32.3 4.7-23.3 22.7-3 2.9.7 4.1 5.5 32.2-29-15.1-3.7-2-3.7 2-28.9 15.2 5.5-32.1.7-4.1-3-2.9-23.3-22.8 32.2-4.7 4.2-.6 1.9-3.8 14.4-29.3m0-14.1c-1.2 0-2.3.7-2.8 1.7l-18.8 38-41.9 6.1c-1.2.2-2.2 1-2.6 2.2-.4 1.1-.1 2.4.8 3.2l30.4 29.6-7.2 41.8c-.2 1.2.3 2.4 1.3 3.1.5.4 1.2.6 1.8.6.5 0 1-.1 1.5-.4l37.5-19.7 37.5 19.7c.5.2 1 .4 1.5.4.7 0 1.3-.2 1.9-.6 1-.7 1.5-1.9 1.3-3.1l-7.2-41.8 30.4-29.6c.9-.8 1.2-2.1.8-3.2-.4-1.1-1.4-2-2.6-2.1l-42-6.1-18.8-38c-.5-1.1-1.6-1.8-2.8-1.8zM698.3 654.1l14.4 29.2 1.9 3.8 4.2.6 32.3 4.7-23.3 22.7-3 2.9.7 4.1 5.5 32.2-29-15.1-3.7-2-3.7 2-28.9 15.2 5.5-32.1.7-4.1-3-2.9-23.3-22.8 32.2-4.7 4.2-.6 1.9-3.8 14.4-29.3m0-14.1c-1.2 0-2.3.7-2.8 1.7l-18.8 38-41.9 6.1c-1.2.2-2.2 1-2.6 2.2-.4 1.1-.1 2.4.8 3.2l30.4 29.6-7.2 41.8c-.2 1.2.3 2.4 1.3 3.1.5.4 1.2.6 1.8.6.5 0 1-.1 1.5-.4l37.5-19.7 37.5 19.7c.5.2 1 .4 1.5.4.7 0 1.3-.2 1.9-.6 1-.7 1.5-1.9 1.3-3.1l-7.2-41.8 30.4-29.6c.9-.8 1.2-2.1.8-3.2-.4-1.1-1.4-2-2.6-2.1l-42-6.1-18.8-38c-.5-1.1-1.6-1.8-2.8-1.8z"/></g><g><path d="M66.3 814.1l14.4 29.2 1.9 3.8 4.2.6 32.3 4.7-23.3 22.7-3 2.9.7 4.1 5.5 32.2-29-15.1-3.7-2-3.7 2-28.9 15.2 5.5-32.1.7-4.1-3-2.9-23.3-22.8 32.2-4.7 4.2-.6 1.9-3.8 14.4-29.3m0-14.1c-1.2 0-2.3.7-2.8 1.7l-18.8 38-41.9 6.1c-1.2.2-2.2 1-2.6 2.2-.4 1.1-.1 2.4.8 3.2l30.4 29.6-7.2 41.8c-.2 1.2.3 2.4 1.3 3.1.5.4 1.2.6 1.8.6.5 0 1-.1 1.5-.4l37.5-19.7 37.5 19.7c.5.2 1 .4 1.5.4.7 0 1.3-.2 1.9-.6 1-.7 1.5-1.9 1.3-3.1l-7.2-41.8 30.4-29.6c.9-.8 1.2-2.1.8-3.2-.4-1.1-1.4-2-2.6-2.1l-42-6.1-18.8-38c-.5-1.1-1.6-1.8-2.8-1.8zM224.3 814.1l14.4 29.2 1.9 3.8 4.2.6 32.3 4.7-23.3 22.7-3 2.9.7 4.1 5.5 32.2-29-15.1-3.7-2-3.7 2-28.9 15.2 5.5-32.1.7-4.1-3-2.9-23.3-22.8 32.2-4.7 4.2-.6 1.9-3.8 14.4-29.3m0-14.1c-1.2 0-2.3.7-2.8 1.7l-18.8 38-41.9 6.1c-1.2.2-2.2 1-2.6 2.2-.4 1.1-.1 2.4.8 3.2l30.4 29.6-7.2 41.8c-.2 1.2.3 2.4 1.3 3.1.5.4 1.2.6 1.8.6.5 0 1-.1 1.5-.4l37.5-19.7 37.5 19.7c.5.2 1 .4 1.5.4.7 0 1.3-.2 1.9-.6 1-.7 1.5-1.9 1.3-3.1l-7.2-41.8 30.4-29.6c.9-.8 1.2-2.1.8-3.2-.4-1.1-1.4-2-2.6-2.1l-42-6.1-18.8-38c-.5-1.1-1.6-1.8-2.8-1.8zM382.3 814.1l14.4 29.2 1.9 3.8 4.2.6 32.3 4.7-23.3 22.7-3 2.9.7 4.1 5.5 32.2-29-15.1-3.7-2-3.7 2-28.9 15.2 5.5-32.1.7-4.1-3-2.9-23.3-22.8 32.2-4.7 4.2-.6 1.9-3.8 14.4-29.3m0-14.1c-1.2 0-2.3.7-2.8 1.7l-18.8 38-41.9 6.1c-1.2.2-2.2 1-2.6 2.2-.4 1.1-.1 2.4.8 3.2l30.4 29.6-7.2 41.8c-.2 1.2.3 2.4 1.3 3.1.5.4 1.2.6 1.8.6.5 0 1-.1 1.5-.4l37.5-19.7 37.5 19.7c.5.2 1 .4 1.5.4.7 0 1.3-.2 1.9-.6 1-.7 1.5-1.9 1.3-3.1l-7.2-41.8 30.4-29.6c.9-.8 1.2-2.1.8-3.2-.4-1.1-1.4-2-2.6-2.1l-42-6.1-18.8-38c-.5-1.1-1.6-1.8-2.8-1.8zM540.3 814.1l14.4 29.2 1.9 3.8 4.2.6 32.3 4.7-23.3 22.7-3 2.9.7 4.1 5.5 32.2-29-15.1-3.7-2-3.7 2-28.9 15.2 5.5-32.1.7-4.1-3-2.9-23.3-22.8 32.2-4.7 4.2-.6 1.9-3.8 14.4-29.3m0-14.1c-1.2 0-2.3.7-2.8 1.7l-18.8 38-41.9 6.1c-1.2.2-2.2 1-2.6 2.2-.4 1.1-.1 2.4.8 3.2l30.4 29.6-7.2 41.8c-.2 1.2.3 2.4 1.3 3.1.5.4 1.2.6 1.8.6.5 0 1-.1 1.5-.4l37.5-19.7 37.5 19.7c.5.2 1 .4 1.5.4.7 0 1.3-.2 1.9-.6 1-.7 1.5-1.9 1.3-3.1l-7.2-41.8 30.4-29.6c.9-.8 1.2-2.1.8-3.2-.4-1.1-1.4-2-2.6-2.1l-42-6.1-18.8-38c-.5-1.1-1.6-1.8-2.8-1.8zM698.3 814.1l14.4 29.2 1.9 3.8 4.2.6 32.3 4.7-23.3 22.7-3 2.9.7 4.1 5.5 32.2-29-15.1-3.7-2-3.7 2-28.9 15.2 5.5-32.1.7-4.1-3-2.9-23.3-22.8 32.2-4.7 4.2-.6 1.9-3.8 14.4-29.3m0-14.1c-1.2 0-2.3.7-2.8 1.7l-18.8 38-41.9 6.1c-1.2.2-2.2 1-2.6 2.2-.4 1.1-.1 2.4.8 3.2l30.4 29.6-7.2 41.8c-.2 1.2.3 2.4 1.3 3.1.5.4 1.2.6 1.8.6.5 0 1-.1 1.5-.4l37.5-19.7 37.5 19.7c.5.2 1 .4 1.5.4.7 0 1.3-.2 1.9-.6 1-.7 1.5-1.9 1.3-3.1l-7.2-41.8 30.4-29.6c.9-.8 1.2-2.1.8-3.2-.4-1.1-1.4-2-2.6-2.1l-42-6.1-18.8-38c-.5-1.1-1.6-1.8-2.8-1.8z"/></g></svg><svg viewBox="0 0 764.5 126.4" id="review0" xmlns="http://www.w3.org/2000/svg"><path d="M66.3 12l15.3 30.9 1.6 3.3 3.6.5 34.3 5-24.7 24.1-2.6 2.6.6 3.6 5.9 34.2-30.6-16.1-3.3-1.7-3.3 1.7-30.6 16.1 5.9-34.1.6-3.6-2.6-2.6-24.9-24.2 34.3-5.1 3.6-.5 1.6-3.3L66.3 12m.1-12c-1.2 0-2.3.7-2.8 1.7l-18.8 38-42 6.2c-1.2.2-2.2 1-2.6 2.2-.4 1.2 0 2.3.9 3.2l30.4 29.6-7.2 41.8c-.2 1.2.3 2.4 1.3 3.1.6.4 1.2.6 1.8.6.5 0 1-.1 1.5-.4l37.5-19.7 37.5 19.7c.5.3 1 .4 1.5.4.7 0 1.3-.2 1.8-.7 1-.7 1.5-1.9 1.3-3.1l-7.2-41.8 30.4-29.6c.9-.8 1.2-2.1.8-3.2-.4-1.1-1.4-2-2.6-2.1l-42-6.1-18.8-38C68.7.7 67.6 0 66.4 0zM224.3 11.9l15.3 31 1.6 3.3 3.6.5 34.2 5-24.7 24.1-2.6 2.6.6 3.6 5.9 34.2-30.6-16.1-3.3-1.7-3.3 1.7-30.6 16.1 5.9-34.1.6-3.6-2.6-2.6-24.8-24.2 34.2-5 3.6-.5 1.6-3.3 15.4-31m0-11.8c-1.2 0-2.3.7-2.8 1.7l-18.8 38-41.9 6.1c-1.2.2-2.2 1-2.6 2.2-.4 1.2-.1 2.4.8 3.2l30.4 29.6-7.2 41.8c-.2 1.2.3 2.4 1.3 3.1.6.4 1.2.6 1.8.6.5 0 1-.1 1.5-.4l37.5-19.7 37.5 19.7c.5.3 1 .4 1.5.4.7 0 1.3-.2 1.8-.7 1-.7 1.5-1.9 1.3-3.1l-7.2-41.8 30.4-29.6c.9-.8 1.2-2.1.8-3.2-.3-1.1-1.3-2-2.5-2.1l-42-6.1-18.8-38c-.5-1.1-1.6-1.7-2.8-1.7zM382.3 11.9l15.3 31 1.6 3.3 3.6.5 34.2 5-24.7 24.1-2.6 2.6.6 3.6 5.9 34.2-30.6-16.1-3.3-1.7-3.3 1.7-30.6 16.1 5.9-34.1.6-3.6-2.6-2.6-24.8-24.2 34.2-5 3.6-.5 1.6-3.3 15.4-31m0-11.8c-1.2 0-2.3.7-2.8 1.7l-18.8 38-41.9 6.1c-1.2.2-2.2 1-2.6 2.2-.4 1.2-.1 2.4.8 3.2l30.4 29.6-7.2 41.8c-.2 1.2.3 2.4 1.3 3.1.6.4 1.2.6 1.8.6.5 0 1-.1 1.5-.4l37.5-19.7 37.5 19.7c.5.3 1 .4 1.5.4.7 0 1.3-.2 1.8-.7 1-.7 1.5-1.9 1.3-3.1l-7.2-41.8 30.4-29.6c.9-.8 1.2-2.1.8-3.2-.3-1.1-1.3-2-2.5-2.1l-42-6.1-18.8-38c-.5-1.1-1.6-1.7-2.8-1.7zM540.3 11.9l15.3 31 1.6 3.3 3.6.5 34.2 5-24.7 24.1-2.6 2.6.6 3.6 5.9 34.2-30.6-16.1-3.3-1.7-3.3 1.7-30.6 16.1 5.9-34.1.6-3.6-2.6-2.6-24.8-24.2 34.2-5 3.6-.5 1.6-3.3 15.4-31m0-11.8c-1.2 0-2.3.7-2.8 1.7l-18.8 38-41.9 6.1c-1.2.2-2.2 1-2.6 2.2-.4 1.2-.1 2.4.8 3.2l30.4 29.6-7.2 41.8c-.2 1.2.3 2.4 1.3 3.1.6.4 1.2.6 1.8.6.5 0 1-.1 1.5-.4l37.5-19.7 37.5 19.7c.5.3 1 .4 1.5.4.7 0 1.3-.2 1.8-.7.9-.8 1.5-1.9 1.3-3.1l-7.2-41.8 30.4-29.6c.9-.8 1.2-2.1.8-3.2-.3-1.1-1.3-2-2.5-2.1l-42-6.1-18.8-38c-.5-1.1-1.6-1.7-2.8-1.7zM698.3 11.9l15.3 31 1.6 3.3 3.6.5 34.2 5-24.7 24.1-2.6 2.6.6 3.6 5.9 34.2-30.6-16.1-3.3-1.7-3.3 1.7-30.6 16.1 5.9-34.1.6-3.6-2.6-2.6-24.8-24.2 34.2-5 3.6-.5 1.6-3.3 15.4-31m0-11.8c-1.2 0-2.3.7-2.8 1.7l-18.8 38-41.9 6.1c-1.2.2-2.2 1-2.6 2.2-.4 1.2-.1 2.4.8 3.2l30.4 29.6-7.2 41.8c-.2 1.2.3 2.4 1.3 3.1.6.4 1.2.6 1.8.6.5 0 1-.1 1.5-.4l37.5-19.7 37.5 19.7c.5.3 1 .4 1.5.4.7 0 1.3-.2 1.8-.7.9-.8 1.5-1.9 1.3-3.1l-7.2-41.8 30.4-29.6c.9-.8 1.2-2.1.8-3.2-.3-1.1-1.3-2-2.5-2.1l-42-6.1-18.8-38c-.5-1.1-1.6-1.7-2.8-1.7z"/></svg><svg viewBox="0 0 764.5 126.4" id="review1" xmlns="http://www.w3.org/2000/svg"><path d="M129.9 45.9l-42-6.1-18.8-38C68.7.7 67.6 0 66.4 0s-2.3.7-2.8 1.7l-18.8 38-42 6.2c-1.2.2-2.2 1-2.6 2.2s0 2.3.9 3.2l30.4 29.6-7.2 41.8c-.2 1.2.3 2.4 1.3 3.1s2.3.8 3.3.2l37.5-19.7 37.5 19.7c1.1.6 2.4.5 3.3-.3 1-.7 1.5-1.9 1.3-3.1l-7.2-41.8 30.4-29.6c.9-.8 1.2-2.1.8-3.2-.4-1.1-1.4-2-2.6-2.1zM224.3 11.9l15.3 31 1.6 3.3 3.6.5 34.2 5-24.7 24.1-2.6 2.6.6 3.6 5.9 34.2-30.6-16.1-3.3-1.7-3.3 1.7-30.6 16.1 5.9-34.1.6-3.6-2.6-2.6-24.8-24.2 34.2-5 3.6-.5 1.6-3.3 15.4-31m0-11.8c-1.2 0-2.3.7-2.8 1.7l-18.8 38-41.9 6.1c-1.2.2-2.2 1-2.6 2.2-.4 1.2-.1 2.4.8 3.2l30.4 29.6-7.2 41.8c-.2 1.2.3 2.4 1.3 3.1.6.4 1.2.6 1.8.6.5 0 1-.1 1.5-.4l37.5-19.7 37.5 19.7c.5.3 1 .4 1.5.4.7 0 1.3-.2 1.8-.7 1-.7 1.5-1.9 1.3-3.1l-7.2-41.8 30.4-29.6c.9-.8 1.2-2.1.8-3.2-.3-1.1-1.3-2-2.5-2.1l-42-6.1-18.8-38c-.5-1.1-1.6-1.7-2.8-1.7zM382.3 11.9l15.3 31 1.6 3.3 3.6.5 34.2 5-24.7 24.1-2.6 2.6.6 3.6 5.9 34.2-30.6-16.1-3.3-1.7-3.3 1.7-30.6 16.1 5.9-34.1.6-3.6-2.6-2.6-24.8-24.2 34.2-5 3.6-.5 1.6-3.3 15.4-31m0-11.8c-1.2 0-2.3.7-2.8 1.7l-18.8 38-41.9 6.1c-1.2.2-2.2 1-2.6 2.2-.4 1.2-.1 2.4.8 3.2l30.4 29.6-7.2 41.8c-.2 1.2.3 2.4 1.3 3.1.6.4 1.2.6 1.8.6.5 0 1-.1 1.5-.4l37.5-19.7 37.5 19.7c.5.3 1 .4 1.5.4.7 0 1.3-.2 1.8-.7 1-.7 1.5-1.9 1.3-3.1l-7.2-41.8 30.4-29.6c.9-.8 1.2-2.1.8-3.2-.3-1.1-1.3-2-2.5-2.1l-42-6.1-18.8-38c-.5-1.1-1.6-1.7-2.8-1.7zM540.3 11.9l15.3 31 1.6 3.3 3.6.5 34.2 5-24.7 24.1-2.6 2.6.6 3.6 5.9 34.2-30.6-16.1-3.3-1.7-3.3 1.7-30.6 16.1 5.9-34.1.6-3.6-2.6-2.6-24.8-24.2 34.2-5 3.6-.5 1.6-3.3 15.4-31m0-11.8c-1.2 0-2.3.7-2.8 1.7l-18.8 38-41.9 6.1c-1.2.2-2.2 1-2.6 2.2-.4 1.2-.1 2.4.8 3.2l30.4 29.6-7.2 41.8c-.2 1.2.3 2.4 1.3 3.1.6.4 1.2.6 1.8.6.5 0 1-.1 1.5-.4l37.5-19.7 37.5 19.7c.5.3 1 .4 1.5.4.7 0 1.3-.2 1.8-.7.9-.8 1.5-1.9 1.3-3.1l-7.2-41.8 30.4-29.6c.9-.8 1.2-2.1.8-3.2-.3-1.1-1.3-2-2.5-2.1l-42-6.1-18.8-38c-.5-1.1-1.6-1.7-2.8-1.7zM698.3 11.9l15.3 31 1.6 3.3 3.6.5 34.2 5-24.7 24.1-2.6 2.6.6 3.6 5.9 34.2-30.6-16.1-3.3-1.7-3.3 1.7-30.6 16.1 5.9-34.1.6-3.6-2.6-2.6-24.8-24.2 34.2-5 3.6-.5 1.6-3.3 15.4-31m0-11.8c-1.2 0-2.3.7-2.8 1.7l-18.8 38-41.9 6.1c-1.2.2-2.2 1-2.6 2.2-.4 1.2-.1 2.4.8 3.2l30.4 29.6-7.2 41.8c-.2 1.2.3 2.4 1.3 3.1.6.4 1.2.6 1.8.6.5 0 1-.1 1.5-.4l37.5-19.7 37.5 19.7c.5.3 1 .4 1.5.4.7 0 1.3-.2 1.8-.7.9-.8 1.5-1.9 1.3-3.1l-7.2-41.8 30.4-29.6c.9-.8 1.2-2.1.8-3.2-.3-1.1-1.3-2-2.5-2.1l-42-6.1-18.8-38c-.5-1.1-1.6-1.7-2.8-1.7z"/></svg><svg viewBox="0 0 764.5 126.4" id="review2" xmlns="http://www.w3.org/2000/svg"><path d="M129.9 45.9l-42-6.1-18.8-38C68.7.7 67.6 0 66.4 0s-2.3.7-2.8 1.7l-18.8 38-42 6.2c-1.2.2-2.2 1-2.6 2.2s0 2.3.9 3.2l30.4 29.6-7.2 41.8c-.2 1.2.3 2.4 1.3 3.1s2.3.8 3.3.2l37.5-19.7 37.5 19.7c1.1.6 2.4.5 3.3-.3 1-.7 1.5-1.9 1.3-3.1l-7.2-41.8 30.4-29.6c.9-.8 1.2-2.1.8-3.2-.4-1.1-1.4-2-2.6-2.1zM287.9 45.9l-42-6.1-18.8-38c-.5-1.1-1.6-1.7-2.8-1.7s-2.3.7-2.8 1.7l-18.8 38-41.9 6.1c-1.2.2-2.2 1-2.6 2.2s-.1 2.4.8 3.2l30.4 29.6-7.2 41.8c-.2 1.2.3 2.4 1.3 3.1s2.3.8 3.3.2l37.5-19.7 37.5 19.7c1.1.6 2.4.5 3.3-.3 1-.7 1.5-1.9 1.3-3.1l-7.2-41.8 30.4-29.6c.9-.8 1.2-2.1.8-3.2-.3-1.1-1.3-2-2.5-2.1zM382.3 11.9l15.3 31 1.6 3.3 3.6.5 34.2 5-24.7 24.1-2.6 2.6.6 3.6 5.9 34.2-30.6-16.1-3.3-1.7-3.3 1.7-30.6 16.1 5.9-34.1.6-3.6-2.6-2.6-24.8-24.2 34.2-5 3.6-.5 1.6-3.3 15.4-31m0-11.8c-1.2 0-2.3.7-2.8 1.7l-18.8 38-41.9 6.1c-1.2.2-2.2 1-2.6 2.2-.4 1.2-.1 2.4.8 3.2l30.4 29.6-7.2 41.8c-.2 1.2.3 2.4 1.3 3.1.6.4 1.2.6 1.8.6.5 0 1-.1 1.5-.4l37.5-19.7 37.5 19.7c.5.3 1 .4 1.5.4.7 0 1.3-.2 1.8-.7 1-.7 1.5-1.9 1.3-3.1l-7.2-41.8 30.4-29.6c.9-.8 1.2-2.1.8-3.2-.3-1.1-1.3-2-2.5-2.1l-42-6.1-18.8-38c-.5-1.1-1.6-1.7-2.8-1.7zM540.3 11.9l15.3 31 1.6 3.3 3.6.5 34.2 5-24.7 24.1-2.6 2.6.6 3.6 5.9 34.2-30.6-16.1-3.3-1.7-3.3 1.7-30.6 16.1 5.9-34.1.6-3.6-2.6-2.6-24.8-24.2 34.2-5 3.6-.5 1.6-3.3 15.4-31m0-11.8c-1.2 0-2.3.7-2.8 1.7l-18.8 38-41.9 6.1c-1.2.2-2.2 1-2.6 2.2-.4 1.2-.1 2.4.8 3.2l30.4 29.6-7.2 41.8c-.2 1.2.3 2.4 1.3 3.1.6.4 1.2.6 1.8.6.5 0 1-.1 1.5-.4l37.5-19.7 37.5 19.7c.5.3 1 .4 1.5.4.7 0 1.3-.2 1.8-.7.9-.8 1.5-1.9 1.3-3.1l-7.2-41.8 30.4-29.6c.9-.8 1.2-2.1.8-3.2-.3-1.1-1.3-2-2.5-2.1l-42-6.1-18.8-38c-.5-1.1-1.6-1.7-2.8-1.7zM698.3 11.9l15.3 31 1.6 3.3 3.6.5 34.2 5-24.7 24.1-2.6 2.6.6 3.6 5.9 34.2-30.6-16.1-3.3-1.7-3.3 1.7-30.6 16.1 5.9-34.1.6-3.6-2.6-2.6-24.8-24.2 34.2-5 3.6-.5 1.6-3.3 15.4-31m0-11.8c-1.2 0-2.3.7-2.8 1.7l-18.8 38-41.9 6.1c-1.2.2-2.2 1-2.6 2.2-.4 1.2-.1 2.4.8 3.2l30.4 29.6-7.2 41.8c-.2 1.2.3 2.4 1.3 3.1.6.4 1.2.6 1.8.6.5 0 1-.1 1.5-.4l37.5-19.7 37.5 19.7c.5.3 1 .4 1.5.4.7 0 1.3-.2 1.8-.7.9-.8 1.5-1.9 1.3-3.1l-7.2-41.8 30.4-29.6c.9-.8 1.2-2.1.8-3.2-.3-1.1-1.3-2-2.5-2.1l-42-6.1-18.8-38c-.5-1.1-1.6-1.7-2.8-1.7z"/></svg><svg viewBox="0 0 764.5 126.4" id="review3" xmlns="http://www.w3.org/2000/svg"><path d="M129.9 45.9l-42-6.1-18.8-38C68.7.7 67.6 0 66.4 0s-2.3.7-2.8 1.7l-18.8 38-42 6.2c-1.2.2-2.2 1-2.6 2.2s0 2.3.9 3.2l30.4 29.6-7.2 41.8c-.2 1.2.3 2.4 1.3 3.1s2.3.8 3.3.2l37.5-19.7 37.5 19.7c1.1.6 2.4.5 3.3-.3 1-.7 1.5-1.9 1.3-3.1l-7.2-41.8 30.4-29.6c.9-.8 1.2-2.1.8-3.2-.4-1.1-1.4-2-2.6-2.1zM287.9 45.9l-42-6.1-18.8-38c-.5-1.1-1.6-1.7-2.8-1.7s-2.3.7-2.8 1.7l-18.8 38-41.9 6.1c-1.2.2-2.2 1-2.6 2.2s-.1 2.4.8 3.2l30.4 29.6-7.2 41.8c-.2 1.2.3 2.4 1.3 3.1s2.3.8 3.3.2l37.5-19.7 37.5 19.7c1.1.6 2.4.5 3.3-.3 1-.7 1.5-1.9 1.3-3.1l-7.2-41.8 30.4-29.6c.9-.8 1.2-2.1.8-3.2-.3-1.1-1.3-2-2.5-2.1zM445.9 45.9l-42-6.1-18.8-38c-.5-1.1-1.6-1.7-2.8-1.7-1.2 0-2.3.7-2.8 1.7l-18.8 38-41.9 6.1c-1.2.2-2.2 1-2.6 2.2s-.1 2.4.8 3.2l30.4 29.6-7.2 41.8c-.2 1.2.3 2.4 1.3 3.1s2.3.8 3.3.2l37.5-19.7 37.5 19.7c1.1.6 2.4.5 3.3-.3 1-.7 1.5-1.9 1.3-3.1l-7.2-41.8 30.4-29.6c.9-.8 1.2-2.1.8-3.2-.3-1.1-1.3-2-2.5-2.1zM540.3 11.9l15.3 31 1.6 3.3 3.6.5 34.2 5-24.7 24.1-2.6 2.6.6 3.6 5.9 34.2-30.6-16.1-3.3-1.7-3.3 1.7-30.6 16.1 5.9-34.1.6-3.6-2.6-2.6-24.8-24.2 34.2-5 3.6-.5 1.6-3.3 15.4-31m0-11.8c-1.2 0-2.3.7-2.8 1.7l-18.8 38-41.9 6.1c-1.2.2-2.2 1-2.6 2.2-.4 1.2-.1 2.4.8 3.2l30.4 29.6-7.2 41.8c-.2 1.2.3 2.4 1.3 3.1.6.4 1.2.6 1.8.6.5 0 1-.1 1.5-.4l37.5-19.7 37.5 19.7c.5.3 1 .4 1.5.4.7 0 1.3-.2 1.8-.7.9-.8 1.5-1.9 1.3-3.1l-7.2-41.8 30.4-29.6c.9-.8 1.2-2.1.8-3.2-.3-1.1-1.3-2-2.5-2.1l-42-6.1-18.8-38c-.5-1.1-1.6-1.7-2.8-1.7zM698.3 11.9l15.3 31 1.6 3.3 3.6.5 34.2 5-24.7 24.1-2.6 2.6.6 3.6 5.9 34.2-30.6-16.1-3.3-1.7-3.3 1.7-30.6 16.1 5.9-34.1.6-3.6-2.6-2.6-24.8-24.2 34.2-5 3.6-.5 1.6-3.3 15.4-31m0-11.8c-1.2 0-2.3.7-2.8 1.7l-18.8 38-41.9 6.1c-1.2.2-2.2 1-2.6 2.2-.4 1.2-.1 2.4.8 3.2l30.4 29.6-7.2 41.8c-.2 1.2.3 2.4 1.3 3.1.6.4 1.2.6 1.8.6.5 0 1-.1 1.5-.4l37.5-19.7 37.5 19.7c.5.3 1 .4 1.5.4.7 0 1.3-.2 1.8-.7.9-.8 1.5-1.9 1.3-3.1l-7.2-41.8 30.4-29.6c.9-.8 1.2-2.1.8-3.2-.3-1.1-1.3-2-2.5-2.1l-42-6.1-18.8-38c-.5-1.1-1.6-1.7-2.8-1.7z"/></svg><svg viewBox="0 0 764.5 126.4" id="review4" xmlns="http://www.w3.org/2000/svg"><path d="M129.9 45.9l-42-6.1-18.8-38C68.7.7 67.6 0 66.4 0s-2.3.7-2.8 1.7l-18.8 38-42 6.2c-1.2.2-2.2 1-2.6 2.2s0 2.3.9 3.2l30.4 29.6-7.2 41.8c-.2 1.2.3 2.4 1.3 3.1s2.3.8 3.3.2l37.5-19.7 37.5 19.7c1.1.6 2.4.5 3.3-.3 1-.7 1.5-1.9 1.3-3.1l-7.2-41.8 30.4-29.6c.9-.8 1.2-2.1.8-3.2-.4-1.1-1.4-2-2.6-2.1zM287.9 45.9l-42-6.1-18.8-38c-.5-1.1-1.6-1.7-2.8-1.7s-2.3.7-2.8 1.7l-18.8 38-41.9 6.1c-1.2.2-2.2 1-2.6 2.2s-.1 2.4.8 3.2l30.4 29.6-7.2 41.8c-.2 1.2.3 2.4 1.3 3.1s2.3.8 3.3.2l37.5-19.7 37.5 19.7c1.1.6 2.4.5 3.3-.3 1-.7 1.5-1.9 1.3-3.1l-7.2-41.8 30.4-29.6c.9-.8 1.2-2.1.8-3.2-.3-1.1-1.3-2-2.5-2.1zM445.9 45.9l-42-6.1-18.8-38c-.5-1.1-1.6-1.7-2.8-1.7-1.2 0-2.3.7-2.8 1.7l-18.8 38-41.9 6.1c-1.2.2-2.2 1-2.6 2.2s-.1 2.4.8 3.2l30.4 29.6-7.2 41.8c-.2 1.2.3 2.4 1.3 3.1s2.3.8 3.3.2l37.5-19.7 37.5 19.7c1.1.6 2.4.5 3.3-.3 1-.7 1.5-1.9 1.3-3.1l-7.2-41.8 30.4-29.6c.9-.8 1.2-2.1.8-3.2-.3-1.1-1.3-2-2.5-2.1zM603.9 45.9l-42-6.1-18.8-38c-.5-1.1-1.6-1.7-2.8-1.7s-2.3.7-2.8 1.7l-18.8 38-41.9 6.1c-1.2.2-2.2 1-2.6 2.2s-.1 2.4.8 3.2l30.4 29.6-7.2 41.8c-.2 1.2.3 2.4 1.3 3.1s2.3.8 3.3.2l37.5-19.7 37.5 19.7c1.1.6 2.4.5 3.3-.3s1.5-1.9 1.3-3.1l-7.2-41.8 30.4-29.6c.9-.8 1.2-2.1.8-3.2-.3-1.1-1.3-2-2.5-2.1zM698.3 11.9l15.3 31 1.6 3.3 3.6.5 34.2 5-24.7 24.1-2.6 2.6.6 3.6 5.9 34.2-30.6-16.1-3.3-1.7-3.3 1.7-30.6 16.1 5.9-34.1.6-3.6-2.6-2.6-24.8-24.2 34.2-5 3.6-.5 1.6-3.3 15.4-31m0-11.8c-1.2 0-2.3.7-2.8 1.7l-18.8 38-41.9 6.1c-1.2.2-2.2 1-2.6 2.2-.4 1.2-.1 2.4.8 3.2l30.4 29.6-7.2 41.8c-.2 1.2.3 2.4 1.3 3.1.6.4 1.2.6 1.8.6.5 0 1-.1 1.5-.4l37.5-19.7 37.5 19.7c.5.3 1 .4 1.5.4.7 0 1.3-.2 1.8-.7.9-.8 1.5-1.9 1.3-3.1l-7.2-41.8 30.4-29.6c.9-.8 1.2-2.1.8-3.2-.3-1.1-1.3-2-2.5-2.1l-42-6.1-18.8-38c-.5-1.1-1.6-1.7-2.8-1.7z"/></svg><svg viewBox="0 0 764.5 126.4" id="review5" xmlns="http://www.w3.org/2000/svg"><path d="M129.9 45.9l-42-6.1-18.8-38C68.7.7 67.6 0 66.4 0s-2.3.7-2.8 1.7l-18.8 38-42 6.2c-1.2.2-2.2 1-2.6 2.2s0 2.3.9 3.2l30.4 29.6-7.2 41.8c-.2 1.2.3 2.4 1.3 3.1s2.3.8 3.3.2l37.5-19.7 37.5 19.7c1.1.6 2.4.5 3.3-.3 1-.7 1.5-1.9 1.3-3.1l-7.2-41.8 30.4-29.6c.9-.8 1.2-2.1.8-3.2-.4-1.1-1.4-2-2.6-2.1zM287.9 45.9l-42-6.1-18.8-38c-.5-1.1-1.6-1.7-2.8-1.7s-2.3.7-2.8 1.7l-18.8 38-41.9 6.1c-1.2.2-2.2 1-2.6 2.2s-.1 2.4.8 3.2l30.4 29.6-7.2 41.8c-.2 1.2.3 2.4 1.3 3.1s2.3.8 3.3.2l37.5-19.7 37.5 19.7c1.1.6 2.4.5 3.3-.3 1-.7 1.5-1.9 1.3-3.1l-7.2-41.8 30.4-29.6c.9-.8 1.2-2.1.8-3.2-.3-1.1-1.3-2-2.5-2.1zM445.9 45.9l-42-6.1-18.8-38c-.5-1.1-1.6-1.7-2.8-1.7-1.2 0-2.3.7-2.8 1.7l-18.8 38-41.9 6.1c-1.2.2-2.2 1-2.6 2.2s-.1 2.4.8 3.2l30.4 29.6-7.2 41.8c-.2 1.2.3 2.4 1.3 3.1s2.3.8 3.3.2l37.5-19.7 37.5 19.7c1.1.6 2.4.5 3.3-.3 1-.7 1.5-1.9 1.3-3.1l-7.2-41.8 30.4-29.6c.9-.8 1.2-2.1.8-3.2-.3-1.1-1.3-2-2.5-2.1zM603.9 45.9l-42-6.1-18.8-38c-.5-1.1-1.6-1.7-2.8-1.7s-2.3.7-2.8 1.7l-18.8 38-41.9 6.1c-1.2.2-2.2 1-2.6 2.2s-.1 2.4.8 3.2l30.4 29.6-7.2 41.8c-.2 1.2.3 2.4 1.3 3.1s2.3.8 3.3.2l37.5-19.7 37.5 19.7c1.1.6 2.4.5 3.3-.3s1.5-1.9 1.3-3.1l-7.2-41.8 30.4-29.6c.9-.8 1.2-2.1.8-3.2-.3-1.1-1.3-2-2.5-2.1zM761.9 45.9l-42-6.1-18.8-38c-.5-1.1-1.6-1.7-2.8-1.7s-2.3.7-2.8 1.7l-18.8 38-41.9 6.1c-1.2.2-2.2 1-2.6 2.2s-.1 2.4.8 3.2l30.4 29.6-7.2 41.8c-.2 1.2.3 2.4 1.3 3.1s2.3.8 3.3.2l37.5-19.7 37.5 19.7c1.1.6 2.4.5 3.3-.3s1.5-1.9 1.3-3.1l-7.2-41.8 30.4-29.6c.9-.8 1.2-2.1.8-3.2-.3-1.1-1.3-2-2.5-2.1z"/></svg><svg viewBox="0 0 486.6 486.3" id="search" xmlns="http://www.w3.org/2000/svg"><path d="M383.6 365.9c36-40.2 55.9-92.3 55.9-146.2C439.5 98.6 340.9 0 219.8 0 98.6-.1 0 98.4 0 219.6s98.6 219.7 219.7 219.7c54 .1 106.1-19.8 146.2-55.9l99.3 99.3c2.3 2.4 5.5 3.7 8.9 3.6 3.3 0 6.5-1.3 8.9-3.6 2.3-2.3 3.6-5.5 3.6-8.8s-1.3-6.5-3.6-8.8l-99.4-99.2zM25 219.6c0-107.4 87.3-194.7 194.7-194.7 107.4 0 194.7 87.3 194.7 194.7s-87.3 194.7-194.7 194.7C112.3 414.4 25 327 25 219.6z"/></svg><svg viewBox="0 0 291.2 374" id="security" xmlns="http://www.w3.org/2000/svg"><path d="M287.5 75.7L147 .8c-2.1-1.1-4.6-1.1-6.7 0L3.6 75.8C1.4 77 0 79.3 0 81.9v97.8c.1 80.4 47.7 153.2 121.4 185.4l19 8.3c1.8.8 3.8.8 5.6 0l21.4-9.2c75.1-31.5 123.9-105 123.9-186.4V81.9c-.1-2.6-1.5-5-3.8-6.2zm-10.3 102.1c0 75.8-45.5 144.2-115.4 173.5l-18.6 8-16.2-7.1c-68.6-30-113-97.7-113-172.6V86l129.7-71.1L277.2 86v91.8z"/><path d="M92.1 175.2a7.08 7.08 0 00-9.9-.8 7.08 7.08 0 00-.8 9.9l37 43.3c2.5 2.9 6.8 3.3 9.7.9l86.1-70c3-2.4 3.5-6.8 1-9.8-2.4-3-6.8-3.5-9.8-1l-80.8 65.7-32.5-38.2z"/></svg><svg viewBox="0 0 50 50" id="success" xmlns="http://www.w3.org/2000/svg"><circle cx="25" cy="25" r="25" fill="#25ae88"/><path fill="none" stroke="#fff" stroke-width="2" stroke-linecap="round" stroke-linejoin="round" stroke-miterlimit="10" d="M38 15L22 33l-10-8"/></svg><svg version="1.1" id="twitter" viewBox="0 0 250 203.1" xml:space="preserve" xmlns="http://www.w3.org/2000/svg"><style>.bpst0{fill:none}</style><path class="bpst0" d="M-75-98.5h400v400H-75z"/><path d="M78.6 203.1c94.3 0 145.9-78.2 145.9-145.9 0-2.2 0-4.4-.1-6.6 10-7.3 18.7-16.3 25.6-26.5-9.4 4.1-19.3 6.9-29.5 8.1 10.7-6.4 18.7-16.5 22.5-28.4-10.1 6-21.1 10.2-32.6 12.4C191-4.5 158.5-5.5 137.8 14c-13.3 12.5-19 31.2-14.8 49C81.9 60.9 43.4 41.4 17.4 9.4 3.8 32.8 10.7 62.8 33.3 77.8c-8.2-.2-16.1-2.4-23.3-6.4v.6c0 24.4 17.2 45.4 41.2 50.3-7.6 2.1-15.5 2.4-23.2.9 6.7 20.9 26 35.2 47.9 35.6-18.2 14.3-40.6 22-63.7 22-4.1 0-8.2-.3-12.2-.7 23.5 15.1 50.7 23 78.6 23"/></svg><svg viewBox="0 0 3072 1919" id="visa" x="2000" xmlns="http://www.w3.org/2000/svg"><path d="M17.981 14.58h3037.56v1890.698H17.98z" fill="#fff" fill-rule="evenodd" stroke="#0061b2" stroke-width="32"/><path d="M120.569 132.887H2934.12v397.72H120.57z" fill="#0061b2" fill-rule="evenodd"/><path d="M120.569 1389.736H2934.12v397.72H120.57z" fill="#fdb827" fill-rule="evenodd"/><path d="M588.281 631.781l.031.188H472.656v19.656c90.263 2.872 117.212 45.341 127.188 94.781l53.218 527.75h175.125l374.157-642.375h-175.125l-224.875 386.094-38.938-386.094zM1295.617 631.4h169.97L1257.132 1274.4h-169.97zM2232.063 644.219l-328.72 630.187h184.407l47.969-96.219h214.062l7.344 96.22h169.969L2479 644.218h-246.938zm89.312 161.718l20.344 266.438H2188.5z" fill="#0061b2" fill-rule="evenodd"/><path d="M1507.277 794.956c25.505-101.96 109.229-171.573 251.747-171.573 133.502 0 232.505 83.382 232.505 83.382l-101.02 105.83s-74.672-57.726-118.657-57.726c-58.159 0-84.422 21.237-89.795 56.122-10.714 69.56 237.142 112.132 229.298 274.196-5.238 108.23-117.255 213.264-245.333 213.264-192.057 0-287.024-76.967-287.024-76.967l86.588-123.469s86.794 69.524 168.366 65.743c55.034-2.55 97.451-23.641 94.606-60.932-6.45-84.525-267.447-123.323-221.281-307.87z" fill="#0061b2"/><path d="M2547.205 644.198c-5.932 0-11.744 1.523-17.395 4.569-5.651 3.046-10.044 7.429-13.213 13.099-3.17 5.67-4.753 11.577-4.753 17.732 0 6.092 1.567 11.949 4.69 17.572 3.121 5.623 7.481 9.99 13.085 13.099 5.605 3.108 11.467 4.665 17.586 4.665 6.12 0 11.981-1.557 17.586-4.665 5.604-3.108 9.948-7.476 13.054-13.1 3.107-5.622 4.658-11.48 4.658-17.571 0-6.155-1.568-12.062-4.721-17.732-3.154-5.67-7.562-10.053-13.213-13.1-5.651-3.045-11.432-4.568-17.364-4.568zm0 5.879c4.933 0 9.734 1.256 14.449 3.802 4.714 2.546 8.388 6.193 11.026 10.926 2.639 4.733 3.961 9.67 3.961 14.793 0 5.092-1.274 9.962-3.866 14.633-2.591 4.67-6.248 8.318-10.931 10.926-4.683 2.609-9.55 3.898-14.639 3.898-5.089 0-9.987-1.29-14.67-3.898-4.684-2.608-8.325-6.256-10.932-10.926-2.607-4.671-3.897-9.54-3.897-14.633 0-5.124 1.306-10.06 3.96-14.793 2.654-4.733 6.328-8.38 11.027-10.926 4.699-2.546 9.548-3.802 14.512-3.802z" style="text-align:start" font-size="60" font-weight="400" fill="#0061b2" font-family="Arial"/><path d="M2532.572 660.115v41.689h6.175v-17.712h3.628c2.164 0 3.805.477 4.934 1.435 1.63 1.301 3.795 4.563 6.461 9.731l3.374 6.546h7.511l-4.647-8.156c-2.226-3.867-4.096-6.618-5.633-8.26-.816-.856-1.898-1.59-3.247-2.206 3.293-.274 5.934-1.556 7.925-3.815 1.992-2.259 2.992-4.9 2.993-7.946 0-2.156-.623-4.174-1.815-6.09-1.192-1.917-2.767-3.29-4.774-4.06-2.007-.77-5.255-1.156-9.74-1.156h-13.145zm6.175 5.67h7.002c3.011 0 5.093.222 6.207.7a5.747 5.747 0 012.61 2.206c.627.975.923 2.058.923 3.29 0 1.917-.64 3.457-1.942 4.62-1.301 1.164-3.745 1.75-7.32 1.75h-7.48v-12.565zM2873.127 1692.395c-5.932 0-11.745 1.523-17.396 4.569-5.65 3.046-10.044 7.429-13.213 13.099-3.169 5.67-4.752 11.577-4.752 17.732 0 6.091 1.567 11.948 4.69 17.572 3.121 5.623 7.481 9.99 13.085 13.099 5.604 3.108 11.466 4.664 17.586 4.664 6.12 0 11.981-1.556 17.585-4.664 5.605-3.109 9.948-7.476 13.055-13.1 3.106-5.623 4.658-11.48 4.658-17.571 0-6.155-1.568-12.062-4.721-17.732-3.154-5.67-7.562-10.053-13.213-13.1-5.651-3.045-11.432-4.568-17.364-4.568zm0 5.879c4.933 0 9.734 1.256 14.449 3.802 4.714 2.546 8.388 6.193 11.026 10.926 2.638 4.733 3.96 9.67 3.96 14.793 0 5.092-1.273 9.962-3.865 14.632-2.591 4.67-6.248 8.318-10.931 10.927-4.684 2.608-9.55 3.898-14.64 3.898-5.088 0-9.987-1.29-14.67-3.898-4.683-2.609-8.324-6.256-10.931-10.927-2.607-4.67-3.898-9.54-3.898-14.632 0-5.124 1.307-10.06 3.961-14.793 2.654-4.733 6.328-8.38 11.027-10.927 4.699-2.546 9.548-3.801 14.512-3.801z" style="text-align:start" font-size="60" font-weight="400" fill="#0061b2" font-family="Arial"/><path style="text-align:start" d="M2858.494 1708.312V1750h6.175v-17.712h3.628c2.164 0 3.805.477 4.934 1.435 1.63 1.3 3.795 4.563 6.46 9.731l3.375 6.546h7.511l-4.647-8.156c-2.226-3.868-4.097-6.618-5.633-8.26-.816-.856-1.898-1.59-3.247-2.206 3.293-.274 5.934-1.556 7.925-3.815 1.992-2.26 2.992-4.9 2.992-7.946 0-2.156-.622-4.174-1.814-6.09-1.192-1.917-2.767-3.29-4.774-4.061-2.007-.77-5.255-1.155-9.74-1.155h-13.145zm6.175 5.67h7.002c3.01 0 5.093.221 6.207.7a5.747 5.747 0 012.61 2.206c.627.975.923 2.058.923 3.29 0 1.917-.64 3.457-1.942 4.62-1.302 1.164-3.745 1.75-7.32 1.75h-7.48v-12.566z" font-size="60" font-weight="400" fill="#0061b2" font-family="Arial"/></svg></svg>