<?xml version="1.0" encoding="utf-8"?><svg width="2934" height="2519" viewBox="0 0 2934 2519" xmlns="http://www.w3.org/2000/svg" xmlns:xlink="http://www.w3.org/1999/xlink"><svg version="1.1" id="arrowLeft" x="1774.3" y="1365.333" viewBox="0 0 252.1 477.2" xml:space="preserve" width="252.1" height="477.2" xmlns="http://www.w3.org/2000/svg"><style>.aast0{fill:#da6d42}</style><path class="aast0" d="M3.9 248.1L229 473.2c5.3 5.3 13.8 5.3 19.1 0 5.3-5.3 5.3-13.8 0-19.1L32.6 238.6 248.1 23.1c5.3-5.3 5.3-13.8 0-19.1-2.6-2.6-6.1-4-9.5-4-3.4 0-6.9 1.3-9.5 4L4 229.1c-5.3 5.2-5.3 13.8-.1 19z"/></svg><svg version="1.1" id="arrowRight" x="482.6" y="2035.633" viewBox="0 0 252.1 477.2" xml:space="preserve" width="252.1" height="477.2" xmlns="http://www.w3.org/2000/svg"><style>.abst0{fill:#da6d42}</style><path class="abst0" d="M248.2 229.1L23.1 4C17.8-1.3 9.3-1.3 4 4s-5.3 13.8 0 19.1l215.5 215.5L4 454.1c-5.3 5.3-5.3 13.8 0 19.1 2.6 2.6 6.1 4 9.5 4s6.9-1.3 9.5-4l225.1-225.1c5.3-5.2 5.3-13.8.1-19z"/></svg><svg viewBox="0 0 512 512" width="512" height="512" id="book" x="1262.3" y="1365.333" xmlns="http://www.w3.org/2000/svg"><path d="M31.9 421h448.6c6.2-.1 11.1-5.2 11-11.4 0-1.1-.2-2.2-.5-3.2l-17.8-54.8c2.2.1 4.1.1 5.7.2 6.1.3 11.3-4.3 11.6-10.4.1-1.8-.3-3.7-1.1-5.4L467 289.5c6.3-1.6 11.3-2.7 14.9-3.4 6-1.2 9.9-6.9 8.7-12.9-.2-1.2-.7-2.3-1.3-3.4l-94.1-164.5c-3-5.3-9.7-7.1-15-4.1-.6.4-1.3.8-1.8 1.3l-125 110.4c-.4-.1-.8-.1-1.3-.1H106.5c-4.5 0-8.5 2.7-10.2 6.9L21.7 405.6c-1.4 3.4-1 7.3 1.1 10.4 2 3.1 5.4 5 9.1 5zm247.6-25c23.3-9.7 64-25.6 96.8-30.5 24.7-3.6 49.9-5.4 75.2-5.5l17.3 36H279.5zm189.3-62.2c-3-.1-6.5-.2-10.6-.2h-.3c-27.9-.1-55.8 2.3-83.1 7.4-21.6 4.1-45.7 13.4-66.8 23 23.1-16.5 48-31 74.5-43.3 21-9.6 43-17.5 65.7-23.5l20.6 36.6zM263 224l115-99 85.2 145.1c-16.2 3.3-50.8 12.3-91 33.2-52.3 27.2-90.9 61.7-109.1 79.8V224h-.1zm-146.2 12H245v160H51l65.8-160z"/></svg><svg viewBox="0 0 482.6 482.6" width="482.6" height="482.6" id="call" y="2035.633" xmlns="http://www.w3.org/2000/svg"><path d="M98.339 320.8c47.6 56.9 104.9 101.7 170.3 133.4 24.9 11.8 58.2 25.8 95.3 28.2 2.3.1 4.5.2 6.8.2 24.9 0 44.9-8.6 61.2-26.3.1-.1.3-.3.4-.5 5.8-7 12.4-13.3 19.3-20 4.7-4.5 9.5-9.2 14.1-14 21.3-22.2 21.3-50.4-.2-71.9l-60.1-60.1c-10.2-10.6-22.4-16.2-35.2-16.2-12.8 0-25.1 5.6-35.6 16.1l-35.8 35.8c-3.3-1.9-6.7-3.6-9.9-5.2-4-2-7.7-3.9-11-6-32.6-20.7-62.2-47.7-90.5-82.4-14.3-18.1-23.9-33.3-30.6-48.8 9.4-8.5 18.2-17.4 26.7-26.1 3-3.1 6.1-6.2 9.2-9.3 10.8-10.8 16.6-23.3 16.6-36s-5.7-25.2-16.6-36l-29.8-29.8c-3.5-3.5-6.8-6.9-10.2-10.4-6.6-6.8-13.5-13.8-20.3-20.1-10.3-10.1-22.4-15.4-35.2-15.4-12.7 0-24.9 5.3-35.6 15.5l-37.4 37.4c-13.6 13.6-21.3 30.1-22.9 49.2-1.9 23.9 2.5 49.3 13.9 80 17.5 47.5 43.9 91.6 83.1 138.7zm-72.6-216.6c1.2-13.3 6.3-24.4 15.9-34l37.2-37.2c5.8-5.6 12.2-8.5 18.4-8.5 6.1 0 12.3 2.9 18 8.7 6.7 6.2 13 12.7 19.8 19.6 3.4 3.5 6.9 7 10.4 10.6l29.8 29.8c6.2 6.2 9.4 12.5 9.4 18.7s-3.2 12.5-9.4 18.7c-3.1 3.1-6.2 6.3-9.3 9.4-9.3 9.4-18 18.3-27.6 26.8l-.5.5c-8.3 8.3-7 16.2-5 22.2.1.3.2.5.3.8 7.7 18.5 18.4 36.1 35.1 57.1 30 37 61.6 65.7 96.4 87.8 4.3 2.8 8.9 5 13.2 7.2 4 2 7.7 3.9 11 6 .4.2.7.4 1.1.6 3.3 1.7 6.5 2.5 9.7 2.5 8 0 13.2-5.1 14.9-6.8l37.4-37.4c5.8-5.8 12.1-8.9 18.3-8.9 7.6 0 13.8 4.7 17.7 8.9l60.3 60.2c12 12 11.9 25-.3 37.7-4.2 4.5-8.6 8.8-13.3 13.3-7 6.8-14.3 13.8-20.9 21.7-11.5 12.4-25.2 18.2-42.9 18.2-1.7 0-3.5-.1-5.2-.2-32.8-2.1-63.3-14.9-86.2-25.8-62.2-30.1-116.8-72.8-162.1-127-37.3-44.9-62.4-86.7-79-131.5-10.3-27.5-14.2-49.6-12.6-69.7z"/></svg><svg viewBox="0 0 414 414" width="414" height="414" id="cart" x="734.7" y="2035.633" xmlns="http://www.w3.org/2000/svg"><path d="M202.5 363.1c0-21.8-17.7-39.5-39.5-39.5s-39.5 17.7-39.5 39.5 17.7 39.5 39.5 39.5 39.5-17.7 39.5-39.5zm-65 0c0-14.1 11.4-25.5 25.5-25.5s25.5 11.4 25.5 25.5-11.4 25.5-25.5 25.5-25.4-11.4-25.5-25.5zM309.2 402.6c21.8 0 39.5-17.7 39.5-39.5s-17.7-39.5-39.5-39.5-39.5 17.7-39.5 39.5 17.7 39.5 39.5 39.5zm0-64.9c14.1 0 25.5 11.4 25.5 25.5s-11.4 25.5-25.5 25.5-25.5-11.4-25.5-25.5 11.4-25.5 25.5-25.5zM7 25h42.7c14.1-.1 26 10.2 28.2 24.1l33.8 213.5c3.2 20.7 21.1 36 42 35.9h208.9c3.9 0 7-3.1 7-7s-3.1-7-7-7H153.7c-14.1.1-26-10.2-28.2-24.1l-5.7-36.3h214c18.1 0 34.2-11.5 40.2-28.6l39.7-114.6c.7-2.1.4-4.5-.9-6.4a7.01 7.01 0 00-5.7-2.9H95.6l-3.9-24.7c-3.2-20.7-21.1-36-42-35.9H7c-3.9 0-7 3.1-7 7s3.1 7 7 7zm390.2 60.6l-36.5 105.3c-4 11.5-14.8 19.2-27 19.2H117.5L97.8 85.6h299.4z"/></svg><svg viewBox="0 0 484.2 400.1" width="484.2" height="400.1" id="community" x="2129.933" y="1497" xmlns="http://www.w3.org/2000/svg"><path d="M240.1 103.9c-31.2 0-56.5 25.3-56.5 56.5v25.3c.1 31.2 25.5 56.4 56.8 56.3 31-.1 56.2-25.3 56.3-56.3v-25.3c-.1-31.2-25.4-56.5-56.6-56.5zm44.5 81.8c-.1 24.6-20.1 44.4-44.7 44.3-24.4-.1-44.2-19.9-44.3-44.3v-25.3c.1-24.6 20.1-44.4 44.7-44.3 24.4.1 44.2 19.9 44.3 44.3v25.3zM146.3 400.1h187.6c3.3 0 6-2.7 6-6v-19.3H470c3.3 0 6-2.7 6-6V319c0-29.4-22.9-53.8-52.3-55.7-3.2-.2-4.8 1.7-6.5 3.8-12.9 15.7-36.1 18.1-51.8 5.2-2.4-1.9-4.5-4.2-6.3-6.6-1.2-1.6-3-2.5-5-2.4-10.2.2-20.1 3.3-28.6 8.7-11.1-13.5-27.3-21.8-44.7-22.8-3.1-.2-4.6 1.7-6.5 4-15 18.4-42.1 21.1-60.4 6-2.8-2.3-5.2-4.8-7.3-7.7-1.2-1.6-3-2.5-5-2.4-16.4.4-32 7.2-43.4 18.9-1.3 1.3-2.5 2.7-3.6 4.1-8-5.1-17.1-8.1-26.6-8.7-3.2-.2-4.8 1.7-6.5 3.8-12.9 15.7-36.1 18.1-51.8 5.2-2.4-1.9-4.5-4.2-6.3-6.6-1.2-1.6-3-2.5-5-2.4-30.3.7-54.4 25.4-54.4 55.7v49.8c0 3.3 2.7 6 6 6h130.3v19.3c0 3.2 2.7 5.9 6 5.9zm205.2-124.6c17.5 20.6 48.3 23 68.9 5.6 1.9-1.7 3.8-3.5 5.4-5.4 21.8 2.8 38.2 21.4 38.2 43.4v43.8H339.9V312c0-10.5-2.6-20.8-7.6-30 5.8-3.7 12.4-5.9 19.2-6.5zm-152.6-14.2c19.5 23.3 54.1 26.4 77.4 6.9 2.4-2 4.7-4.3 6.7-6.7 25.6 3.1 44.8 24.7 44.8 50.5v76.1H152.3V312c0-26.4 20.3-48.5 46.6-50.7zM16 362.8V319c0-22.6 17.2-41.5 39.7-43.6 17.5 20.6 48.3 23 68.9 5.6 1.9-1.7 3.8-3.5 5.4-5.4 6.3.8 12.4 3 17.8 6.4-5 9.2-7.6 19.5-7.6 29.9v50.9H16z"/><path d="M438.1 208.5v-22.1c0-27.7-22.5-50.2-50.2-50.2-27.7 0-50.2 22.5-50.2 50.2v22.1c0 27.7 22.5 50.2 50.2 50.2 27.7 0 50.2-22.4 50.2-50.2zm-88.4 0v-22.1c0-21.1 17.1-38.2 38.2-38.2s38.2 17.1 38.2 38.2v22.1c0 21.1-17.1 38.2-38.2 38.2s-38.2-17.1-38.2-38.2zM142.3 208.5v-22.1c0-27.7-22.5-50.2-50.2-50.2-27.7 0-50.2 22.5-50.2 50.2v22.1c0 27.7 22.5 50.2 50.2 50.2 27.7 0 50.2-22.4 50.2-50.2zm-88.4 0v-22.1c0-21.1 17.1-38.2 38.2-38.2s38.2 17.1 38.2 38.2v22.1c0 21.1-17.1 38.2-38.2 38.2s-38.2-17.1-38.2-38.2z"/><path d="M484.2 95.6V33.1c0-12.8-10.4-23.1-23.1-23.1H304c-12.8 0-23.1 10.4-23.1 23.1v62.5c0 12.8 10.4 23.1 23.1 23.1h7c4 22.4 18.8 29.6 22.5 31.1 1.1.6 2.4.8 3.6.6 2.5-.4 4.5-2.3 5.1-4.7.4-1.8.7-3.7.8-5.5 1.3-13.9 4.3-21.4 16.2-21.4h101.9c12.8 0 23.1-10.4 23.1-23.2zm-12 0c0 6.1-5 11.1-11.1 11.1H359.2c-21.5 0-26.2 17.2-27.6 27.7-3.4-3.3-7.2-8.9-8.8-17.9-1-5.7-6-9.8-11.8-9.7h-7c-6.1 0-11.1-5-11.1-11.1V33.1c0-6.1 5-11.1 11.1-11.1h157.1c6.1 0 11.1 5 11.1 11.1v62.5zM180.2 0H23.1C10.4 0 0 10.4 0 23.1v72.5c0 12.8 10.4 23.1 23.1 23.1h103c4 22.4 18.7 29.6 22.5 31.1 1.1.6 2.4.8 3.6.6 2.5-.4 4.5-2.3 5.1-4.7.6-2.2.4-4.9.2-8.3-.4-5.4-.9-12.7 2.3-16.1 1.6-1.7 4.5-2.6 8.4-2.6h11.9c12.8 0 23.1-10.4 23.1-23.1V23.1C203.4 10.4 193 0 180.2 0zm11.2 95.6c0 6.1-5 11.1-11.1 11.1h-11.9c-7.4 0-13.2 2.2-17.2 6.4-5.2 5.6-6 13.3-5.8 19.8-3-3.4-6-8.6-7.4-16.5-1-5.7-6-9.8-11.8-9.7h-103c-6.1 0-11.1-5-11.1-11.1V23.1C12 17 17 12 23.1 12h157.1c6.1 0 11.1 5 11.1 11.1v72.5z"/></svg><svg viewBox="0 0 59 59" width="59" height="59" id="delete" x="2641.933" y="940.6" xmlns="http://www.w3.org/2000/svg"><path d="M29.5 51a1 1 0 001-1V17a1 1 0 10-2 0v33a1 1 0 001 1zM19.5 51a1 1 0 001-1V17a1 1 0 10-2 0v33a1 1 0 001 1zM39.5 51a1 1 0 001-1V17a1 1 0 10-2 0v33a1 1 0 001 1z"/><path d="M52.5 6H38.456c-.11-1.25-.495-3.358-1.813-4.711C35.809.434 34.751 0 33.499 0H23.5c-1.252 0-2.31.434-3.144 1.289C19.038 2.642 18.653 4.75 18.543 6H6.5a1 1 0 100 2h2.041l1.915 46.021C10.493 55.743 11.565 59 15.364 59h28.272c3.799 0 4.871-3.257 4.907-4.958L50.459 8H52.5a1 1 0 100-2zM21.792 2.681C22.24 2.223 22.799 2 23.5 2h9.999c.701 0 1.26.223 1.708.681.805.823 1.128 2.271 1.24 3.319H20.553c.112-1.048.435-2.496 1.239-3.319zm24.752 51.298C46.538 54.288 46.4 57 43.636 57H15.364c-2.734 0-2.898-2.717-2.909-3.042L10.542 8h37.915l-1.913 45.979z"/></svg><svg viewBox="0 0 252.5 318.2" width="252.5" height="318.2" id="epub" x="2641.933" y="374" xmlns="http://www.w3.org/2000/svg"><path d="M56.6 243.5c-5.9 0-10.4 1.7-13.6 5-3.2 3.4-4.8 8.2-4.8 14.5 0 6.1 1.7 10.8 5.1 14.1s8.2 4.9 14.4 4.9c3 0 5.5-.2 7.7-.6 2.1-.4 4.2-1.1 6.2-2.1v-9.2c-2.2 1-4.3 1.8-6.2 2.2-1.9.4-4 .6-6.2.6-2.5 0-4.4-.6-5.9-1.8s-2.2-2.8-2.3-4.9h22.9v-5.7c0-5.5-1.5-9.7-4.6-12.6-2.8-2.9-7.1-4.4-12.7-4.4zm-5.1 14.7c.2-2 .8-3.5 1.8-4.5s2.3-1.4 3.8-1.4c1.6 0 2.9.5 3.9 1.6s1.5 2.5 1.5 4.3h-11zM204 256.2v-.3c2.3-.5 4.1-1.8 5.4-3.7 1.4-1.9 2.1-4.2 2.1-6.9 0-4.1-1.6-7.1-4.7-9-3.2-1.9-8-2.9-14.5-2.9h-16.7v48h18.7c5.6 0 10.1-1.3 13.4-3.8 3.3-2.5 4.9-5.9 4.9-10.3 0-2.9-.7-5.3-2-7.2-1.5-1.8-3.7-3.1-6.6-3.9zm-15.5-13h3.6c4.1 0 6.1 1.3 6.1 4 0 1.5-.5 2.6-1.5 3.4-1 .8-2.5 1.1-4.3 1.1h-3.9v-8.5zm4.5 28.2h-4.6v-10.1h4.3c2.1 0 3.6.4 4.7 1.3s1.6 2.1 1.6 3.7c.1 3.4-1.9 5.1-6 5.1zM152.5 261.5c0 3.5-.6 5.9-1.8 7.5s-3.1 2.3-5.8 2.3c-2.5 0-4.3-.8-5.6-2.3-1.3-1.5-1.9-4-1.9-7.4v-28.2h-13v29.2c0 6.3 1.8 11.1 5.3 14.4 3.5 3.3 8.5 5 15.1 5 6.7 0 11.8-1.7 15.4-5.2 3.6-3.4 5.3-8.3 5.3-14.6v-28.9h-13v28.2zM112.4 237.4c-3-2.6-7.6-4-13.7-4H82.2v48h13v-15.9h3.6c5.8 0 10.3-1.5 13.5-4.4 3.2-2.9 4.7-7.1 4.7-12.4 0-4.9-1.5-8.7-4.6-11.3zm-10.3 15.8c-1.1 1.1-2.7 1.6-4.6 1.6h-2.4v-11h3.3c3.6 0 5.4 1.6 5.4 4.9 0 1.9-.5 3.5-1.7 4.5z"/><path d="M250.3 52.7L199.8 2.2C198.4.8 196.5 0 194.5 0H7.5C3.4 0 0 3.4 0 7.5v303.2c0 4.1 3.4 7.5 7.5 7.5H245c4.1 0 7.5-3.4 7.5-7.5V58c0-2-.8-3.9-2.2-5.3zM202 25.6l24.9 24.9H202V25.6zM15 15h172v10.3H15V15zm0 288.2V40.3h172V58c0 4.1 3.4 7.5 7.5 7.5h43v237.7H15z"/><path d="M132.7 182.2l44-44c5.5-5.5 5.5-14.3 0-19.8l-48.9 48.9-39-39 39-39 14.6 14.6-22.4 22.4 9.9 9.9 27.3-27.3c2.7-2.7 2.7-7.2 0-9.9l-24.5-24.5c-2.7-2.7-7.2-2.7-9.9 0l-48.9 48.9c-2.7 2.7-2.7 7.2 0 9.9l48.9 48.9c2.7 2.8 7.1 2.8 9.9 0z"/></svg><svg height="1365.333" width="1365.333" viewBox="0 0 1365.333 1365.333" id="facebook" xmlns="http://www.w3.org/2000/svg"><path d="M1365.333 682.667C1365.333 305.64 1059.693 0 682.667 0 305.64 0 0 305.64 0 682.667c0 340.738 249.641 623.16 576 674.373V880H402.667V682.667H576v-150.4c0-171.094 101.917-265.6 257.853-265.6 74.69 0 152.814 13.333 152.814 13.333v168h-86.083c-84.804 0-111.25 52.623-111.25 106.61v128.057h189.333L948.4 880H789.333v477.04c326.359-51.213 576-333.635 576-674.373" fill="#100f0d"/><path d="M948.4 880l30.267-197.333H789.333V554.609C789.333 500.623 815.78 448 900.584 448h86.083V280s-78.124-13.333-152.814-13.333c-155.936 0-257.853 94.506-257.853 265.6v150.4H402.667V880H576v477.04a687.805 687.805 0 00106.667 8.293c36.288 0 71.91-2.84 106.666-8.293V880H948.4" fill="#fff"/></svg><svg height="394" viewBox="-5 0 394 394" width="394" id="filter" x="1148.7" y="2035.633" xmlns="http://www.w3.org/2000/svg"><path d="M367.82 0H16.56A16.502 16.502 0 001.848 8.96a16.732 16.732 0 001.3 17.415L131.836 207.66c.043.063.09.121.133.184a36.751 36.751 0 017.219 21.816v147.8a16.448 16.448 0 004.773 11.688A16.45 16.45 0 00155.617 394a16.94 16.94 0 006.48-1.3l72.313-27.571c6.477-1.98 10.778-8.094 10.778-15.453V229.66a36.774 36.774 0 017.214-21.816c.043-.063.09-.121.133-.184L381.227 26.371a16.717 16.717 0 001.3-17.406A16.492 16.492 0 00367.82 0zm0 0"/></svg><svg viewBox="0 0 394 394" width="394" height="394" id="filterOpen" x="1542.7" y="2035.633" xmlns="http://www.w3.org/2000/svg"><path d="M372.9 15c.6 0 1.1.3 1.3.8.3.6.2 1.3-.1 1.8L245.3 198.9l-.1.1c-6.5 8.8-10.1 19.7-10.1 30.6v120c0 .6-.2 1-.2 1.1l-.4.1-.5.2-72.3 27.6-.2.1-.2.1c-.2.1-.5.1-.7.1-.4 0-.8-.2-1-.4-.3-.3-.4-.6-.4-1V229.6c0-10.9-3.6-21.8-10.1-30.6 0 0 0-.1-.1-.1L20.4 17.7c-.4-.5-.4-1.2-.1-1.8.3-.5.8-.8 1.4-.8h351.2V15m0-15c-.1 0-.1 0 0 0H21.6C15.3 0 9.7 3.5 6.8 9 4 14.5 4.5 21.3 8.1 26.4l128.7 181.3c0 .1.1.1.1.2 4.7 6.3 7.2 14 7.2 21.8v147.8c0 4.4 1.7 8.6 4.8 11.7 3.1 3.1 7.3 4.9 11.7 4.9 2.2 0 4.4-.4 6.5-1.3l72.3-27.6c6.5-2 10.8-8.1 10.8-15.5v-120c0-7.9 2.5-15.5 7.2-21.8 0-.1.1-.1.1-.2L386.2 26.4c3.7-5.1 4.2-11.8 1.3-17.4-2.8-5.5-8.5-9-14.6-9z"/></svg><svg viewBox="0 0 384 320.7" width="384" height="320.7" id="freeDelivery" x="1936.7" y="2035.633" xmlns="http://www.w3.org/2000/svg"><path d="M27 285.7h18.6c3.4 20.2 20.9 35 41.4 35s38-14.8 41.4-35h127.2c3.4 20.2 20.9 35 41.4 35s38-14.8 41.4-35H357c14.9 0 27-12.1 27-27v-89.6-.2-.4-.3c0-.1 0-.2-.1-.4s0-.2-.1-.3-.1-.2-.1-.3-.1-.2-.1-.3c0-.1-.1-.2-.1-.3 0-.1-.1-.2-.1-.3 0-.1-.1-.2-.1-.3-.1-.1-.1-.2-.2-.3-.1-.1-.1-.2-.2-.3-.1-.1-.1-.2-.2-.3-.1-.1-.1-.2-.2-.3-.1-.1-.2-.2-.2-.3l-.1-.1-51.5-56.1c-5.1-5.6-12.3-8.7-19.9-8.7h-93.3V27c0-14.9-12.1-27-27-27H27C12.1 0 0 12.1 0 27v231.7c0 14.9 12.1 27 27 27zm60 21c-15.5 0-28-12.5-28-28s12.5-28 28-28 28 12.5 28 28-12.5 28-28 28zm210 0c-15.5 0-28-12.5-28-28s12.5-28 28-28 28 12.5 28 28-12.5 28-28 28zm73-48c0 7.2-5.8 13-13 13h-18.6c-3.4-20.2-20.9-35-41.4-35s-38 14.8-41.4 35h-38.1v-95.6H370v82.6zm-59.3-145.1c3.6 0 7.1 1.5 9.6 4.2l40.8 44.4H217.5v-48.6h93.2zM14 27c0-7.2 5.8-13 13-13h163.5c7.2 0 13 5.8 13 13v244.7h-75.1c-3.4-20.2-20.9-35-41.4-35s-38 14.8-41.4 35H27c-7.2 0-13-5.8-13-13V27z"/></svg><svg height="592" viewBox="0 0 444 444" width="592" id="grid" x="670.3" y="1365.333" xmlns="http://www.w3.org/2000/svg"><path d="M7 0h181c3.867 0 7 3.133 7 7v181c0 3.867-3.133 7-7 7H7c-3.867 0-7-3.133-7-7V7c0-3.867 3.133-7 7-7zm0 0M256 0h181c3.867 0 7 3.133 7 7v181c0 3.867-3.133 7-7 7H256c-3.867 0-7-3.133-7-7V7c0-3.867 3.133-7 7-7zm0 0M7 249h181c3.867 0 7 3.133 7 7v181c0 3.867-3.133 7-7 7H7c-3.867 0-7-3.133-7-7V256c0-3.867 3.133-7 7-7zm0 0M256 249h181c3.867 0 7 3.133 7 7v181c0 3.867-3.133 7-7 7H256c-3.867 0-7-3.133-7-7V256c0-3.867 3.133-7 7-7zm0 0"/></svg><svg viewBox="0 0 512 512" width="512" height="512" id="instagram" x="2129.933" xmlns="http://www.w3.org/2000/svg"><path d="M256 49.5c67.3 0 75.2.3 101.8 1.5 24.6 1.1 37.9 5.2 46.8 8.7 11.8 4.6 20.2 10 29 18.8s14.3 17.2 18.8 29c3.4 8.9 7.6 22.2 8.7 46.8 1.2 26.6 1.5 34.5 1.5 101.8s-.3 75.2-1.5 101.8c-1.1 24.6-5.2 37.9-8.7 46.8-4.6 11.8-10 20.2-18.8 29s-17.2 14.3-29 18.8c-8.9 3.4-22.2 7.6-46.8 8.7-26.6 1.2-34.5 1.5-101.8 1.5s-75.2-.3-101.8-1.5c-24.6-1.1-37.9-5.2-46.8-8.7-11.8-4.6-20.2-10-29-18.8s-14.3-17.2-18.8-29c-3.4-8.9-7.6-22.2-8.7-46.8-1.2-26.6-1.5-34.5-1.5-101.8s.3-75.2 1.5-101.8c1.1-24.6 5.2-37.9 8.7-46.8 4.6-11.8 10-20.2 18.8-29s17.2-14.3 29-18.8c8.9-3.4 22.2-7.6 46.8-8.7 26.6-1.3 34.5-1.5 101.8-1.5m0-45.4c-68.4 0-77 .3-103.9 1.5C125.3 6.8 107 11.1 91 17.3c-16.6 6.4-30.6 15.1-44.6 29.1-14 14-22.6 28.1-29.1 44.6-6.2 16-10.5 34.3-11.7 61.2C4.4 179 4.1 187.6 4.1 256s.3 77 1.5 103.9c1.2 26.8 5.5 45.1 11.7 61.2 6.4 16.6 15.1 30.6 29.1 44.6 14 14 28.1 22.6 44.6 29.1 16 6.2 34.3 10.5 61.2 11.7 26.9 1.2 35.4 1.5 103.9 1.5s77-.3 103.9-1.5c26.8-1.2 45.1-5.5 61.2-11.7 16.6-6.4 30.6-15.1 44.6-29.1 14-14 22.6-28.1 29.1-44.6 6.2-16 10.5-34.3 11.7-61.2 1.2-26.9 1.5-35.4 1.5-103.9s-.3-77-1.5-103.9c-1.2-26.8-5.5-45.1-11.7-61.2-6.4-16.6-15.1-30.6-29.1-44.6-14-14-28.1-22.6-44.6-29.1-16-6.2-34.3-10.5-61.2-11.7-27-1.1-35.6-1.4-104-1.4z"/><path d="M256 126.6c-71.4 0-129.4 57.9-129.4 129.4s58 129.4 129.4 129.4 129.4-58 129.4-129.4-58-129.4-129.4-129.4zm0 213.4c-46.4 0-84-37.6-84-84s37.6-84 84-84 84 37.6 84 84-37.6 84-84 84z"/><circle cx="390.5" cy="121.5" r="30.2"/></svg><svg viewBox="0 0 482.3 437.8" width="482.3" height="437.8" id="joinUs" x="1365.333" y="926.4" xmlns="http://www.w3.org/2000/svg"><path d="M263.3 0c-3.9 0-7 3.1-7 7s3.1 7 7 7c113 0 204.9 91.9 204.9 204.9s-91.9 204.7-204.9 204.7c-101.2.2-187.3-73.7-202.5-173.7h40.9c3.8.1 6.9-2.8 7-6.6 0-1.4-.3-2.8-1.1-3.9l-47.4-74.3c-2.1-3.3-6.4-4.2-9.7-2.1-.9.5-1.6 1.3-2.1 2.1L1.1 239.5c-1.4 2.1-1.5 4.8-.2 7 1.2 2.2 3.6 3.5 6.1 3.5h39.7c17.1 119.7 128 202.8 247.7 185.7C414 418.4 497.1 307.5 480 187.9 464.6 80.1 372.2 0 263.3 0zM19.8 235.9l34.6-54.3L89 235.9H19.8z"/><path d="M168.1 256.2v15.5c0 3.4 4 5.1 7.2 5.1h57c2.9 0 5.6-3.7 5.6-7.7s-2.7-7.3-5.6-7.3h-47.2v-5.6c0-18.4 51.9-29.6 51.9-64 0-19.2-15.6-31.8-34.2-31.8-17.4 0-32.8 11.2-32.8 28.3 0 7.2 3.2 9.4 7.7 9.4 5.6 0 9-3.2 9-6.4 0-10.9 7.2-15.8 16.2-15.8 12.2 0 17.4 9 17.4 16.8 0 24.7-52.2 37.6-52.2 63.5zM294.1 166.9c0-4-5.3-6.5-8.5-6.5-3.1 0-6 1.8-7.4 4.7l-38.7 76.3c-.6 1-.9 2.2-1 3.4 0 3.8 2.6 6.1 5.9 6.1H284v20.9c0 3.7 4.2 5.6 8.5 5.6 4.2 0 8.5-1.9 8.5-5.6v-20.9h7.5c3 0 5.8-4.1 5.8-7.9 0-4-1.9-8.1-5.8-8.1H301v-21.7c0-4-4.3-5.6-8.5-5.6-4.3 0-8.5 1.6-8.5 5.6v21.7h-23.8l33-65.6c.5-.7.8-1.6.9-2.4zM319.1 121.6c-3.1 0-5 1.4-5 3.4v67.8c0 1.7 1.9 3.5 5 3.5 2.8 0 5-1.8 5-3.5v-24.5c-.2-5.5 4.1-10.1 9.6-10.3h.1c5.4 0 10.2 5.1 10.2 10.3v24.5c0 2.3 2.6 3.5 5 3.5 2.6 0 5-1.2 5-3.5v-24.5c0-10.7-8-19.4-17.3-19.4-5.3-.1-10.2 2.8-12.7 7.5V125c.1-2-2.2-3.4-4.9-3.4zM369.8 149.4c-3 0-4.6 1.4-4.6 3.4v40c0 1.7 1.9 3.5 4.9 3.5s5.1-1.8 5.1-3.5v-20.2c0-9 5.9-14.6 11.9-14.6h3.2c2.1 0 3.9-2 3.9-4.5.1-2.3-1.6-4.3-3.9-4.5H387c-5.5.2-10.4 3.3-12.9 8.2v-4.3c0-2.1-1.8-3.5-4.3-3.5z"/></svg><svg viewBox="0 0 60.1 45.3" width="60.1" height="45.3" id="list" x="2641.933" y="895.3000000000001" xmlns="http://www.w3.org/2000/svg"><path d="M58.1 6.1H15.9c-1.7 0-2-1.1-2-2.3s.3-2.3 2-2.3h42.2c1.7 0 2 1.1 2 2.3s-.3 2.3-2 2.3zM58.1 25H15.9c-1.7 0-2-1.1-2-2.3s.3-2.3 2-2.3h42.2c1.7 0 2 1.1 2 2.3s-.3 2.3-2 2.3zM58.1 43.6H15.9c-1.7 0-2-1.1-2-2.3 0-1.3.3-2.3 2-2.3h42.2c1.7 0 2 1.1 2 2.3 0 1.2-.3 2.3-2 2.3z"/><circle cx="4" cy="4" r="4"/><circle cx="4" cy="22.6" r="4"/><circle cx="4" cy="41.2" r="4"/></svg><svg viewBox="0 0 401.6 498.7" width="401.6" height="498.7" id="map" x="2129.933" y="512" xmlns="http://www.w3.org/2000/svg"><path d="M342.9 61.3C304.9 21.8 254.5 0 200.8 0S96.6 21.8 58.7 61.3l-.1.1C20.8 100.7 0 153.1 0 208.7c0 55.7 20.8 108 58.6 147.4l133.2 138.8c4.8 5 12.7 5.1 17.6.4l.4-.4L343 356.1c37.8-39.4 58.6-91.8 58.6-147.4 0-55.6-20.9-108-58.7-147.4zm-18 277.6L200.8 468.3 76.6 338.9c-68.8-71.8-68.8-188.5 0-260.3l.1-.1c33.2-34.6 77.3-53.6 124.1-53.6 46.9 0 91 19.1 124.2 53.6l.1.1c68.7 71.8 68.7 188.5-.2 260.3z"/><path d="M200.8 76.1c-62 0-112.2 50.2-112.2 112.2s50.2 112.2 112.2 112.2S313 250.3 313 188.3c-.1-61.9-50.3-112.1-112.2-112.2zm0 199.5c-48.2 0-87.3-39.1-87.3-87.3s39.1-87.3 87.3-87.3c48.2 0 87.3 39.1 87.3 87.3s-39.1 87.3-87.3 87.3z"/></svg><svg version="1.1" id="menu" x="2894.433" y="374" viewBox="0 0 36 26" xml:space="preserve" width="36" height="26" xmlns="http://www.w3.org/2000/svg"><style>.arst0{fill:none;stroke:#000;stroke-width:2;stroke-linecap:round;stroke-linejoin:round}</style><path class="arst0" d="M35 1H1M35 13H8M35 25H1"/></svg><svg version="1.1" id="menuClose" x="2894.433" y="400" viewBox="0 0 35 33" xml:space="preserve" width="35" height="33" xmlns="http://www.w3.org/2000/svg"><style>.asst0{fill:none;stroke:#000;stroke-width:2;stroke-linecap:round;stroke-linejoin:round}</style><path class="asst0" d="M31.6 31L1.9 1.5M33 1.4L3.3 30.9"/></svg><svg version="1.1" id="minus" x="2702.033" y="895.3000000000001" viewBox="0 0 43.9 2.1" xml:space="preserve" width="43.9" height="2.1" xmlns="http://www.w3.org/2000/svg"><style>.atst0{fill:none;stroke:#000;stroke-width:2;stroke-linecap:round;stroke-linejoin:round}</style><path class="atst0" d="M42.9 1L1 1.1"/></svg><svg version="1.1" id="pageSelected" x="2702.033" y="897.4000000000001" viewBox="0 0 42.3 42.3" xml:space="preserve" width="42.3" height="42.3" xmlns="http://www.w3.org/2000/svg"><style>.aust0{fill:#84240c}</style><path class="aust0" d="M21.2 2.8l18.3 18.3-18.3 18.4L2.8 21.2 21.2 2.8m0-2.8L0 21.2l21.2 21.2 21.2-21.2L21.2 0z"/></svg><svg version="1.1" id="person" y="1365.333" viewBox="0 0 670.3 670.3" xml:space="preserve" width="670.3" height="670.3" xmlns="http://www.w3.org/2000/svg"><style>.avst0{fill:none}</style><path class="avst0" d="M335.1 670.3c57.7 0 112-14.6 159.4-40.3H175.7c47.4 25.7 101.7 40.3 159.4 40.3zM335.1 65.2c-67.4.1-122.1 54.8-122.2 122.3 0 67.5 54.7 122.2 122.2 122.2S457.3 255 457.3 187.5 402.6 65.2 335.1 65.2z"/><path d="M335.1 90.3c-81.3 0-147.2 65.9-147.2 147.2.1 81.3 65.9 147.1 147.2 147.2 81.3 0 147.2-65.9 147.2-147.2S416.4 90.3 335.1 90.3zm0 269.4c-67.5 0-122.2-54.7-122.2-122.2.1-67.5 54.8-122.2 122.2-122.3 67.5 0 122.2 54.7 122.2 122.2s-54.7 122.3-122.2 122.3z"/><path d="M335.1 25.6c41.8 0 82.3 8.2 120.4 24.3 36.9 15.6 69.9 37.9 98.4 66.4 28.4 28.4 50.8 61.5 66.4 98.4 16.1 38.1 24.3 78.7 24.3 120.4s-8.2 82.3-24.3 120.4c-15.6 36.9-37.9 69.9-66.4 98.4-28.4 28.4-61.5 50.8-98.4 66.4-38.1 16.1-78.7 24.3-120.4 24.3s-82.3-8.2-120.4-24.3c-36.9-15.6-69.9-37.9-98.4-66.4-28.4-28.4-50.8-61.5-66.4-98.3-16.1-38.1-24.3-78.7-24.3-120.4s8.2-82.3 24.3-120.4c15.6-36.9 37.9-69.9 66.4-98.4 28.4-28.5 61.5-50.9 98.4-66.4 38.1-16.2 78.7-24.4 120.4-24.4m0-25.6C150 0 0 150 0 335.1s150 335.1 335.1 335.1 335.1-150 335.1-335.1S520.2 0 335.1 0z"/><path d="M558.9 584.3c-11.6-35-30.6-66.7-56.2-92.8-44.1-45.1-103.6-70.1-167.6-70.1s-123.5 24.8-167.6 70c-25.7 26.3-44.7 58-56.3 93.2 6.6 6.1 13.5 11.8 20.7 17.2 10-35.2 28.1-67 53.2-92.8 39.4-40.3 92.7-62.5 149.8-62.5s110.4 22.2 149.8 62.5c25.2 25.7 43.3 57.5 53.2 92.8 7.4-5.5 14.4-11.3 21-17.5z"/></svg><svg version="1.1" id="plus" x="2700.933" y="940.6" viewBox="0 0 43.9 43.9" xml:space="preserve" width="43.9" height="43.9" xmlns="http://www.w3.org/2000/svg"><style>.awst0{fill:none;stroke:#000;stroke-width:2;stroke-linecap:round;stroke-linejoin:round}</style><path class="awst0" d="M42.9 22.9L1 23.1M22.9 1l-.1 41.9"/></svg><svg viewBox="0 0 764.6 926.4" width="764.6" height="926.4" id="review" x="1365.333" xmlns="http://www.w3.org/2000/svg"><path d="M129.8 45.9l-42-6.1L69 1.8C68.6.7 67.5 0 66.3 0c-1.2 0-2.3.7-2.8 1.7l-18.8 38-42 6.2c-1.2.2-2.2 1-2.6 2.2s0 2.3.9 3.2l30.4 29.6-7.2 41.8c-.2 1.2.3 2.4 1.3 3.1 1 .7 2.3.8 3.3.2l37.5-19.7 37.5 19.7c1.1.6 2.4.5 3.3-.3 1-.7 1.5-1.9 1.3-3.1l-7.2-41.8 30.4-29.6c.9-.8 1.2-2.1.8-3.2-.4-1.1-1.4-2-2.6-2.1zM287.8 45.9l-42-6.1-18.8-38c-.5-1.1-1.6-1.7-2.8-1.7-1.2 0-2.3.7-2.8 1.7l-18.8 38-41.9 6.1c-1.2.2-2.2 1-2.6 2.2s-.1 2.4.8 3.2l30.4 29.6-7.2 41.8c-.2 1.2.3 2.4 1.3 3.1 1 .7 2.3.8 3.3.2l37.5-19.7 37.5 19.7c1.1.6 2.4.5 3.3-.3 1-.7 1.5-1.9 1.3-3.1l-7.2-41.8 30.4-29.6c.9-.8 1.2-2.1.8-3.2-.3-1.1-1.3-2-2.5-2.1zM445.8 45.9l-42-6.1-18.8-38c-.5-1.1-1.6-1.7-2.8-1.7-1.2 0-2.3.7-2.8 1.7l-18.8 38-41.9 6.1c-1.2.2-2.2 1-2.6 2.2s-.1 2.4.8 3.2l30.4 29.6-7.2 41.8c-.2 1.2.3 2.4 1.3 3.1 1 .7 2.3.8 3.3.2l37.5-19.7 37.5 19.7c1.1.6 2.4.5 3.3-.3 1-.7 1.5-1.9 1.3-3.1l-7.2-41.8 30.4-29.6c.9-.8 1.2-2.1.8-3.2-.3-1.1-1.3-2-2.5-2.1zM603.8 45.9l-42-6.1-18.8-38c-.5-1.1-1.6-1.7-2.8-1.7-1.2 0-2.3.7-2.8 1.7l-18.8 38-41.9 6.1c-1.2.2-2.2 1-2.6 2.2s-.1 2.4.8 3.2l30.4 29.6-7.2 41.8c-.2 1.2.3 2.4 1.3 3.1 1 .7 2.3.8 3.3.2l37.5-19.7 37.5 19.7c1.1.6 2.4.5 3.3-.3s1.5-1.9 1.3-3.1l-7.2-41.8 30.4-29.6c.9-.8 1.2-2.1.8-3.2-.3-1.1-1.3-2-2.5-2.1zM761.8 45.9l-42-6.1-18.8-38c-.5-1.1-1.6-1.7-2.8-1.7-1.2 0-2.3.7-2.8 1.7l-18.8 38-41.9 6.1c-1.2.2-2.2 1-2.6 2.2s-.1 2.4.8 3.2l30.4 29.6-7.2 41.8c-.2 1.2.3 2.4 1.3 3.1 1 .7 2.3.8 3.3.2l37.5-19.7 37.5 19.7c1.1.6 2.4.5 3.3-.3s1.5-1.9 1.3-3.1l-7.2-41.8 30.4-29.6c.9-.8 1.2-2.1.8-3.2-.3-1.1-1.3-2-2.5-2.1zM129.8 205.9l-42-6.1-18.8-38c-.5-1.1-1.6-1.7-2.8-1.7-1.2 0-2.3.7-2.8 1.7l-18.8 38-41.9 6.1c-1.2.2-2.2 1-2.6 2.2-.4 1.1-.1 2.4.8 3.2l30.4 29.6-7.2 41.8c-.2 1.2.3 2.4 1.3 3.1 1 .7 2.3.8 3.3.2l37.5-19.7 37.5 19.7c1.1.6 2.4.5 3.3-.3 1-.7 1.5-1.9 1.3-3.1l-7.2-41.8 30.4-29.6c.9-.8 1.2-2.1.8-3.2-.3-1.1-1.3-2-2.5-2.1zM287.8 205.9l-42-6.1-18.8-38c-.5-1.1-1.6-1.7-2.8-1.7-1.2 0-2.3.7-2.8 1.7l-18.8 38-41.9 6.1c-1.2.2-2.2 1-2.6 2.2-.4 1.1-.1 2.4.8 3.2l30.4 29.6-7.2 41.8c-.2 1.2.3 2.4 1.3 3.1 1 .7 2.3.8 3.3.2l37.5-19.7 37.5 19.7c1.1.6 2.4.5 3.3-.3 1-.7 1.5-1.9 1.3-3.1l-7.2-41.8 30.4-29.6c.9-.8 1.2-2.1.8-3.2-.3-1.1-1.3-2-2.5-2.1zM445.8 205.9l-42-6.1-18.8-38c-.5-1.1-1.6-1.7-2.8-1.7-1.2 0-2.3.7-2.8 1.7l-18.8 38-41.9 6.1c-1.2.2-2.2 1-2.6 2.2-.4 1.1-.1 2.4.8 3.2l30.4 29.6-7.2 41.8c-.2 1.2.3 2.4 1.3 3.1 1 .7 2.3.8 3.3.2l37.5-19.7 37.5 19.7c1.1.6 2.4.5 3.3-.3 1-.7 1.5-1.9 1.3-3.1l-7.2-41.8 30.4-29.6c.9-.8 1.2-2.1.8-3.2-.3-1.1-1.3-2-2.5-2.1zM603.8 205.9l-42-6.1-18.8-38c-.5-1.1-1.6-1.7-2.8-1.7-1.2 0-2.3.7-2.8 1.7l-18.8 38-41.9 6.1c-1.2.2-2.2 1-2.6 2.2-.4 1.1-.1 2.4.8 3.2l30.4 29.6-7.2 41.8c-.2 1.2.3 2.4 1.3 3.1 1 .7 2.3.8 3.3.2l37.5-19.7 37.5 19.7c1.1.6 2.4.5 3.3-.3 1-.7 1.5-1.9 1.3-3.1l-7.2-41.8 30.4-29.6c.9-.8 1.2-2.1.8-3.2-.3-1.1-1.3-2-2.5-2.1zM698.3 174.1l14.4 29.2 1.9 3.8 4.2.6 32.3 4.7-23.3 22.7-3 2.9.7 4.1 5.5 32.2-29-15.1-3.7-2-3.7 2-28.9 15.2 5.5-32.1.7-4.1-3-2.9-23.3-22.8 32.2-4.7 4.2-.6 1.9-3.8 14.4-29.3m0-14.1c-1.2 0-2.3.7-2.8 1.7l-18.8 38-41.9 6.1c-1.2.2-2.2 1-2.6 2.2-.4 1.1-.1 2.4.8 3.2l30.4 29.6-7.2 41.8c-.2 1.2.3 2.4 1.3 3.1.5.4 1.2.6 1.8.6.5 0 1-.1 1.5-.4l37.5-19.7 37.5 19.7c.5.2 1 .4 1.5.4.7 0 1.3-.2 1.9-.6 1-.7 1.5-1.9 1.3-3.1l-7.2-41.8 30.4-29.6c.9-.8 1.2-2.1.8-3.2-.4-1.1-1.4-2-2.6-2.1l-42-6.1-18.8-38c-.5-1.1-1.6-1.8-2.8-1.8z"/><g><path d="M129.8 365.9l-42-6.1-18.8-38c-.5-1.1-1.6-1.7-2.8-1.7-1.2 0-2.3.7-2.8 1.7l-18.8 38-41.9 6.1c-1.2.2-2.2 1-2.6 2.2s-.1 2.4.8 3.2l30.4 29.6-7.2 41.8c-.2 1.2.3 2.4 1.3 3.1 1 .7 2.3.8 3.3.2l37.5-19.7 37.5 19.7c1.1.6 2.4.5 3.3-.3 1-.7 1.5-1.9 1.3-3.1l-7.2-41.8 30.4-29.6c.9-.8 1.2-2.1.8-3.2-.3-1.1-1.3-2-2.5-2.1zM287.8 365.9l-42-6.1-18.8-38c-.5-1.1-1.6-1.7-2.8-1.7-1.2 0-2.3.7-2.8 1.7l-18.8 38-41.9 6.1c-1.2.2-2.2 1-2.6 2.2s-.1 2.4.8 3.2l30.4 29.6-7.2 41.8c-.2 1.2.3 2.4 1.3 3.1 1 .7 2.3.8 3.3.2l37.5-19.7 37.5 19.7c1.1.6 2.4.5 3.3-.3 1-.7 1.5-1.9 1.3-3.1l-7.2-41.8 30.4-29.6c.9-.8 1.2-2.1.8-3.2-.3-1.1-1.3-2-2.5-2.1zM445.8 365.9l-42-6.1-18.8-38c-.5-1.1-1.6-1.7-2.8-1.7-1.2 0-2.3.7-2.8 1.7l-18.8 38-41.9 6.1c-1.2.2-2.2 1-2.6 2.2s-.1 2.4.8 3.2l30.4 29.6-7.2 41.8c-.2 1.2.3 2.4 1.3 3.1 1 .7 2.3.8 3.3.2l37.5-19.7 37.5 19.7c1.1.6 2.4.5 3.3-.3 1-.7 1.5-1.9 1.3-3.1l-7.2-41.8 30.4-29.6c.9-.8 1.2-2.1.8-3.2-.3-1.1-1.3-2-2.5-2.1zM540.3 334.1l14.4 29.2 1.9 3.8 4.2.6 32.3 4.7-23.3 22.7-3 2.9.7 4.1 5.5 32.2-29-15.1-3.7-2-3.7 2-28.9 15.2 5.5-32.1.7-4.1-3-2.9-23.3-22.8 32.2-4.7 4.2-.6 1.9-3.8 14.4-29.3m0-14.1c-1.2 0-2.3.7-2.8 1.7l-18.8 38-41.9 6.1c-1.2.2-2.2 1-2.6 2.2-.4 1.1-.1 2.4.8 3.2l30.4 29.6-7.2 41.8c-.2 1.2.3 2.4 1.3 3.1.5.4 1.2.6 1.8.6.5 0 1-.1 1.5-.4l37.5-19.7 37.5 19.7c.5.2 1 .4 1.5.4.7 0 1.3-.2 1.9-.6 1-.7 1.5-1.9 1.3-3.1l-7.2-41.8 30.4-29.6c.9-.8 1.2-2.1.8-3.2-.4-1.1-1.4-2-2.6-2.1l-42-6.1-18.8-38c-.5-1.1-1.6-1.8-2.8-1.8zM698.3 334.1l14.4 29.2 1.9 3.8 4.2.6 32.3 4.7-23.3 22.7-3 2.9.7 4.1 5.5 32.2-29-15.1-3.7-2-3.7 2-28.9 15.2 5.5-32.1.7-4.1-3-2.9-23.3-22.8 32.2-4.7 4.2-.6 1.9-3.8 14.4-29.3m0-14.1c-1.2 0-2.3.7-2.8 1.7l-18.8 38-41.9 6.1c-1.2.2-2.2 1-2.6 2.2-.4 1.1-.1 2.4.8 3.2l30.4 29.6-7.2 41.8c-.2 1.2.3 2.4 1.3 3.1.5.4 1.2.6 1.8.6.5 0 1-.1 1.5-.4l37.5-19.7 37.5 19.7c.5.2 1 .4 1.5.4.7 0 1.3-.2 1.9-.6 1-.7 1.5-1.9 1.3-3.1l-7.2-41.8 30.4-29.6c.9-.8 1.2-2.1.8-3.2-.4-1.1-1.4-2-2.6-2.1l-42-6.1-18.8-38c-.5-1.1-1.6-1.8-2.8-1.8z"/></g><g><path d="M129.8 525.9l-42-6.1-18.8-38c-.5-1.1-1.6-1.7-2.8-1.7-1.2 0-2.3.7-2.8 1.7l-18.8 38-41.9 6.1c-1.2.2-2.2 1-2.6 2.2s-.1 2.4.8 3.2l30.4 29.6-7.2 41.8c-.2 1.2.3 2.4 1.3 3.1 1 .7 2.3.8 3.3.2l37.5-19.7 37.5 19.7c1.1.6 2.4.5 3.3-.3 1-.7 1.5-1.9 1.3-3.1l-7.2-41.8 30.4-29.6c.9-.8 1.2-2.1.8-3.2-.3-1.1-1.3-2-2.5-2.1zM287.8 525.9l-42-6.1-18.8-38c-.5-1.1-1.6-1.7-2.8-1.7-1.2 0-2.3.7-2.8 1.7l-18.8 38-41.9 6.1c-1.2.2-2.2 1-2.6 2.2s-.1 2.4.8 3.2l30.4 29.6-7.2 41.8c-.2 1.2.3 2.4 1.3 3.1 1 .7 2.3.8 3.3.2l37.5-19.7 37.5 19.7c1.1.6 2.4.5 3.3-.3 1-.7 1.5-1.9 1.3-3.1l-7.2-41.8 30.4-29.6c.9-.8 1.2-2.1.8-3.2-.3-1.1-1.3-2-2.5-2.1zM382.3 494.1l14.4 29.2 1.9 3.8 4.2.6 32.3 4.7-23.3 22.7-3 2.9.7 4.1 5.5 32.2-29-15.1-3.7-2-3.7 2-28.9 15.2 5.5-32.1.7-4.1-3-2.9-23.3-22.8 32.2-4.7 4.2-.6 1.9-3.8 14.4-29.3m0-14.1c-1.2 0-2.3.7-2.8 1.7l-18.8 38-41.9 6.1c-1.2.2-2.2 1-2.6 2.2-.4 1.1-.1 2.4.8 3.2l30.4 29.6-7.2 41.8c-.2 1.2.3 2.4 1.3 3.1.5.4 1.2.6 1.8.6.5 0 1-.1 1.5-.4l37.5-19.7 37.5 19.7c.5.2 1 .4 1.5.4.7 0 1.3-.2 1.9-.6 1-.7 1.5-1.9 1.3-3.1l-7.2-41.8 30.4-29.6c.9-.8 1.2-2.1.8-3.2-.4-1.1-1.4-2-2.6-2.1l-42-6.1-18.8-38c-.5-1.1-1.6-1.8-2.8-1.8zM540.3 494.1l14.4 29.2 1.9 3.8 4.2.6 32.3 4.7-23.3 22.7-3 2.9.7 4.1 5.5 32.2-29-15.1-3.7-2-3.7 2-28.9 15.2 5.5-32.1.7-4.1-3-2.9-23.3-22.8 32.2-4.7 4.2-.6 1.9-3.8 14.4-29.3m0-14.1c-1.2 0-2.3.7-2.8 1.7l-18.8 38-41.9 6.1c-1.2.2-2.2 1-2.6 2.2-.4 1.1-.1 2.4.8 3.2l30.4 29.6-7.2 41.8c-.2 1.2.3 2.4 1.3 3.1.5.4 1.2.6 1.8.6.5 0 1-.1 1.5-.4l37.5-19.7 37.5 19.7c.5.2 1 .4 1.5.4.7 0 1.3-.2 1.9-.6 1-.7 1.5-1.9 1.3-3.1l-7.2-41.8 30.4-29.6c.9-.8 1.2-2.1.8-3.2-.4-1.1-1.4-2-2.6-2.1l-42-6.1-18.8-38c-.5-1.1-1.6-1.8-2.8-1.8zM698.3 494.1l14.4 29.2 1.9 3.8 4.2.6 32.3 4.7-23.3 22.7-3 2.9.7 4.1 5.5 32.2-29-15.1-3.7-2-3.7 2-28.9 15.2 5.5-32.1.7-4.1-3-2.9-23.3-22.8 32.2-4.7 4.2-.6 1.9-3.8 14.4-29.3m0-14.1c-1.2 0-2.3.7-2.8 1.7l-18.8 38-41.9 6.1c-1.2.2-2.2 1-2.6 2.2-.4 1.1-.1 2.4.8 3.2l30.4 29.6-7.2 41.8c-.2 1.2.3 2.4 1.3 3.1.5.4 1.2.6 1.8.6.5 0 1-.1 1.5-.4l37.5-19.7 37.5 19.7c.5.2 1 .4 1.5.4.7 0 1.3-.2 1.9-.6 1-.7 1.5-1.9 1.3-3.1l-7.2-41.8 30.4-29.6c.9-.8 1.2-2.1.8-3.2-.4-1.1-1.4-2-2.6-2.1l-42-6.1-18.8-38c-.5-1.1-1.6-1.8-2.8-1.8z"/></g><g><path d="M129.8 685.9l-42-6.1-18.8-38c-.5-1.1-1.6-1.7-2.8-1.7-1.2 0-2.3.7-2.8 1.7l-18.8 38-41.9 6.1c-1.2.2-2.2 1-2.6 2.2s-.1 2.4.8 3.2l30.4 29.6-7.2 41.8c-.2 1.2.3 2.4 1.3 3.1 1 .7 2.3.8 3.3.2l37.5-19.7 37.5 19.7c1.1.6 2.4.5 3.3-.3 1-.7 1.5-1.9 1.3-3.1l-7.2-41.8 30.4-29.6c.9-.8 1.2-2.1.8-3.2-.3-1.1-1.3-2-2.5-2.1zM224.3 654.1l14.4 29.2 1.9 3.8 4.2.6 32.3 4.7-23.3 22.7-3 2.9.7 4.1 5.5 32.2-29-15.1-3.7-2-3.7 2-28.9 15.2 5.5-32.1.7-4.1-3-2.9-23.3-22.8 32.2-4.7 4.2-.6 1.9-3.8 14.4-29.3m0-14.1c-1.2 0-2.3.7-2.8 1.7l-18.8 38-41.9 6.1c-1.2.2-2.2 1-2.6 2.2-.4 1.1-.1 2.4.8 3.2l30.4 29.6-7.2 41.8c-.2 1.2.3 2.4 1.3 3.1.5.4 1.2.6 1.8.6.5 0 1-.1 1.5-.4l37.5-19.7 37.5 19.7c.5.2 1 .4 1.5.4.7 0 1.3-.2 1.9-.6 1-.7 1.5-1.9 1.3-3.1l-7.2-41.8 30.4-29.6c.9-.8 1.2-2.1.8-3.2-.4-1.1-1.4-2-2.6-2.1l-42-6.1-18.8-38c-.5-1.1-1.6-1.8-2.8-1.8zM382.3 654.1l14.4 29.2 1.9 3.8 4.2.6 32.3 4.7-23.3 22.7-3 2.9.7 4.1 5.5 32.2-29-15.1-3.7-2-3.7 2-28.9 15.2 5.5-32.1.7-4.1-3-2.9-23.3-22.8 32.2-4.7 4.2-.6 1.9-3.8 14.4-29.3m0-14.1c-1.2 0-2.3.7-2.8 1.7l-18.8 38-41.9 6.1c-1.2.2-2.2 1-2.6 2.2-.4 1.1-.1 2.4.8 3.2l30.4 29.6-7.2 41.8c-.2 1.2.3 2.4 1.3 3.1.5.4 1.2.6 1.8.6.5 0 1-.1 1.5-.4l37.5-19.7 37.5 19.7c.5.2 1 .4 1.5.4.7 0 1.3-.2 1.9-.6 1-.7 1.5-1.9 1.3-3.1l-7.2-41.8 30.4-29.6c.9-.8 1.2-2.1.8-3.2-.4-1.1-1.4-2-2.6-2.1l-42-6.1-18.8-38c-.5-1.1-1.6-1.8-2.8-1.8zM540.3 654.1l14.4 29.2 1.9 3.8 4.2.6 32.3 4.7-23.3 22.7-3 2.9.7 4.1 5.5 32.2-29-15.1-3.7-2-3.7 2-28.9 15.2 5.5-32.1.7-4.1-3-2.9-23.3-22.8 32.2-4.7 4.2-.6 1.9-3.8 14.4-29.3m0-14.1c-1.2 0-2.3.7-2.8 1.7l-18.8 38-41.9 6.1c-1.2.2-2.2 1-2.6 2.2-.4 1.1-.1 2.4.8 3.2l30.4 29.6-7.2 41.8c-.2 1.2.3 2.4 1.3 3.1.5.4 1.2.6 1.8.6.5 0 1-.1 1.5-.4l37.5-19.7 37.5 19.7c.5.2 1 .4 1.5.4.7 0 1.3-.2 1.9-.6 1-.7 1.5-1.9 1.3-3.1l-7.2-41.8 30.4-29.6c.9-.8 1.2-2.1.8-3.2-.4-1.1-1.4-2-2.6-2.1l-42-6.1-18.8-38c-.5-1.1-1.6-1.8-2.8-1.8zM698.3 654.1l14.4 29.2 1.9 3.8 4.2.6 32.3 4.7-23.3 22.7-3 2.9.7 4.1 5.5 32.2-29-15.1-3.7-2-3.7 2-28.9 15.2 5.5-32.1.7-4.1-3-2.9-23.3-22.8 32.2-4.7 4.2-.6 1.9-3.8 14.4-29.3m0-14.1c-1.2 0-2.3.7-2.8 1.7l-18.8 38-41.9 6.1c-1.2.2-2.2 1-2.6 2.2-.4 1.1-.1 2.4.8 3.2l30.4 29.6-7.2 41.8c-.2 1.2.3 2.4 1.3 3.1.5.4 1.2.6 1.8.6.5 0 1-.1 1.5-.4l37.5-19.7 37.5 19.7c.5.2 1 .4 1.5.4.7 0 1.3-.2 1.9-.6 1-.7 1.5-1.9 1.3-3.1l-7.2-41.8 30.4-29.6c.9-.8 1.2-2.1.8-3.2-.4-1.1-1.4-2-2.6-2.1l-42-6.1-18.8-38c-.5-1.1-1.6-1.8-2.8-1.8z"/></g><g><path d="M66.3 814.1l14.4 29.2 1.9 3.8 4.2.6 32.3 4.7-23.3 22.7-3 2.9.7 4.1 5.5 32.2-29-15.1-3.7-2-3.7 2-28.9 15.2 5.5-32.1.7-4.1-3-2.9-23.3-22.8 32.2-4.7 4.2-.6 1.9-3.8 14.4-29.3m0-14.1c-1.2 0-2.3.7-2.8 1.7l-18.8 38-41.9 6.1c-1.2.2-2.2 1-2.6 2.2-.4 1.1-.1 2.4.8 3.2l30.4 29.6-7.2 41.8c-.2 1.2.3 2.4 1.3 3.1.5.4 1.2.6 1.8.6.5 0 1-.1 1.5-.4l37.5-19.7 37.5 19.7c.5.2 1 .4 1.5.4.7 0 1.3-.2 1.9-.6 1-.7 1.5-1.9 1.3-3.1l-7.2-41.8 30.4-29.6c.9-.8 1.2-2.1.8-3.2-.4-1.1-1.4-2-2.6-2.1l-42-6.1-18.8-38c-.5-1.1-1.6-1.8-2.8-1.8zM224.3 814.1l14.4 29.2 1.9 3.8 4.2.6 32.3 4.7-23.3 22.7-3 2.9.7 4.1 5.5 32.2-29-15.1-3.7-2-3.7 2-28.9 15.2 5.5-32.1.7-4.1-3-2.9-23.3-22.8 32.2-4.7 4.2-.6 1.9-3.8 14.4-29.3m0-14.1c-1.2 0-2.3.7-2.8 1.7l-18.8 38-41.9 6.1c-1.2.2-2.2 1-2.6 2.2-.4 1.1-.1 2.4.8 3.2l30.4 29.6-7.2 41.8c-.2 1.2.3 2.4 1.3 3.1.5.4 1.2.6 1.8.6.5 0 1-.1 1.5-.4l37.5-19.7 37.5 19.7c.5.2 1 .4 1.5.4.7 0 1.3-.2 1.9-.6 1-.7 1.5-1.9 1.3-3.1l-7.2-41.8 30.4-29.6c.9-.8 1.2-2.1.8-3.2-.4-1.1-1.4-2-2.6-2.1l-42-6.1-18.8-38c-.5-1.1-1.6-1.8-2.8-1.8zM382.3 814.1l14.4 29.2 1.9 3.8 4.2.6 32.3 4.7-23.3 22.7-3 2.9.7 4.1 5.5 32.2-29-15.1-3.7-2-3.7 2-28.9 15.2 5.5-32.1.7-4.1-3-2.9-23.3-22.8 32.2-4.7 4.2-.6 1.9-3.8 14.4-29.3m0-14.1c-1.2 0-2.3.7-2.8 1.7l-18.8 38-41.9 6.1c-1.2.2-2.2 1-2.6 2.2-.4 1.1-.1 2.4.8 3.2l30.4 29.6-7.2 41.8c-.2 1.2.3 2.4 1.3 3.1.5.4 1.2.6 1.8.6.5 0 1-.1 1.5-.4l37.5-19.7 37.5 19.7c.5.2 1 .4 1.5.4.7 0 1.3-.2 1.9-.6 1-.7 1.5-1.9 1.3-3.1l-7.2-41.8 30.4-29.6c.9-.8 1.2-2.1.8-3.2-.4-1.1-1.4-2-2.6-2.1l-42-6.1-18.8-38c-.5-1.1-1.6-1.8-2.8-1.8zM540.3 814.1l14.4 29.2 1.9 3.8 4.2.6 32.3 4.7-23.3 22.7-3 2.9.7 4.1 5.5 32.2-29-15.1-3.7-2-3.7 2-28.9 15.2 5.5-32.1.7-4.1-3-2.9-23.3-22.8 32.2-4.7 4.2-.6 1.9-3.8 14.4-29.3m0-14.1c-1.2 0-2.3.7-2.8 1.7l-18.8 38-41.9 6.1c-1.2.2-2.2 1-2.6 2.2-.4 1.1-.1 2.4.8 3.2l30.4 29.6-7.2 41.8c-.2 1.2.3 2.4 1.3 3.1.5.4 1.2.6 1.8.6.5 0 1-.1 1.5-.4l37.5-19.7 37.5 19.7c.5.2 1 .4 1.5.4.7 0 1.3-.2 1.9-.6 1-.7 1.5-1.9 1.3-3.1l-7.2-41.8 30.4-29.6c.9-.8 1.2-2.1.8-3.2-.4-1.1-1.4-2-2.6-2.1l-42-6.1-18.8-38c-.5-1.1-1.6-1.8-2.8-1.8zM698.3 814.1l14.4 29.2 1.9 3.8 4.2.6 32.3 4.7-23.3 22.7-3 2.9.7 4.1 5.5 32.2-29-15.1-3.7-2-3.7 2-28.9 15.2 5.5-32.1.7-4.1-3-2.9-23.3-22.8 32.2-4.7 4.2-.6 1.9-3.8 14.4-29.3m0-14.1c-1.2 0-2.3.7-2.8 1.7l-18.8 38-41.9 6.1c-1.2.2-2.2 1-2.6 2.2-.4 1.1-.1 2.4.8 3.2l30.4 29.6-7.2 41.8c-.2 1.2.3 2.4 1.3 3.1.5.4 1.2.6 1.8.6.5 0 1-.1 1.5-.4l37.5-19.7 37.5 19.7c.5.2 1 .4 1.5.4.7 0 1.3-.2 1.9-.6 1-.7 1.5-1.9 1.3-3.1l-7.2-41.8 30.4-29.6c.9-.8 1.2-2.1.8-3.2-.4-1.1-1.4-2-2.6-2.1l-42-6.1-18.8-38c-.5-1.1-1.6-1.8-2.8-1.8z"/></g></svg><svg viewBox="0 0 486.6 486.3" width="486.6" height="486.3" id="search" x="2129.933" y="1010.7" xmlns="http://www.w3.org/2000/svg"><path d="M383.6 365.9c36-40.2 55.9-92.3 55.9-146.2C439.5 98.6 340.9 0 219.8 0 98.6-.1 0 98.4 0 219.6s98.6 219.7 219.7 219.7c54 .1 106.1-19.8 146.2-55.9l99.3 99.3c2.3 2.4 5.5 3.7 8.9 3.6 3.3 0 6.5-1.3 8.9-3.6 2.3-2.3 3.6-5.5 3.6-8.8s-1.3-6.5-3.6-8.8l-99.4-99.2zM25 219.6c0-107.4 87.3-194.7 194.7-194.7 107.4 0 194.7 87.3 194.7 194.7s-87.3 194.7-194.7 194.7C112.3 414.4 25 327 25 219.6z"/></svg><svg viewBox="0 0 291.2 374" width="291.2" height="374" id="security" x="2641.933" xmlns="http://www.w3.org/2000/svg"><path d="M287.5 75.7L147 .8c-2.1-1.1-4.6-1.1-6.7 0L3.6 75.8C1.4 77 0 79.3 0 81.9v97.8c.1 80.4 47.7 153.2 121.4 185.4l19 8.3c1.8.8 3.8.8 5.6 0l21.4-9.2c75.1-31.5 123.9-105 123.9-186.4V81.9c-.1-2.6-1.5-5-3.8-6.2zm-10.3 102.1c0 75.8-45.5 144.2-115.4 173.5l-18.6 8-16.2-7.1c-68.6-30-113-97.7-113-172.6V86l129.7-71.1L277.2 86v91.8z"/><path d="M92.1 175.2a7.08 7.08 0 00-9.9-.8 7.08 7.08 0 00-.8 9.9l37 43.3c2.5 2.9 6.8 3.3 9.7.9l86.1-70c3-2.4 3.5-6.8 1-9.8-2.4-3-6.8-3.5-9.8-1l-80.8 65.7-32.5-38.2z"/></svg><svg version="1.1" id="twitter" x="2641.933" y="692.2" viewBox="0 0 250 203.1" xml:space="preserve" width="250" height="203.1" xmlns="http://www.w3.org/2000/svg"><style>.bast0{fill:none}</style><path class="bast0" d="M-75-98.5h400v400H-75z"/><path d="M78.6 203.1c94.3 0 145.9-78.2 145.9-145.9 0-2.2 0-4.4-.1-6.6 10-7.3 18.7-16.3 25.6-26.5-9.4 4.1-19.3 6.9-29.5 8.1 10.7-6.4 18.7-16.5 22.5-28.4-10.1 6-21.1 10.2-32.6 12.4C191-4.5 158.5-5.5 137.8 14c-13.3 12.5-19 31.2-14.8 49C81.9 60.9 43.4 41.4 17.4 9.4 3.8 32.8 10.7 62.8 33.3 77.8c-8.2-.2-16.1-2.4-23.3-6.4v.6c0 24.4 17.2 45.4 41.2 50.3-7.6 2.1-15.5 2.4-23.2.9 6.7 20.9 26 35.2 47.9 35.6-18.2 14.3-40.6 22-63.7 22-4.1 0-8.2-.3-12.2-.7 23.5 15.1 50.7 23 78.6 23"/></svg></svg>